<?xml version="1.0" encoding="utf-8"?>
<!-- Generator: Adobe Illustrator 27.4.0, SVG Export Plug-In . SVG Version: 6.00 Build 0)  -->
<svg version="1.1" id="圖層_1" xmlns="http://www.w3.org/2000/svg" xmlns:xlink="http://www.w3.org/1999/xlink" x="0px" y="0px"
	 viewBox="0 0 50 50" style="enable-background:new 0 0 50 50;" xml:space="preserve">
<style type="text/css">
	.st0{fill:#FFFFFF;}
	.st1{fill:#9E5E5E;}
</style>
<path class="st0" d="M48.6,24.2c0,2.3-1.9,4.2-4.2,4.2s-4.2-1.9-4.2-4.2c0-2.3,1.9-4.2,4.2-4.2S48.6,21.9,48.6,24.2z"/>
<g>
	<path class="st1" d="M47.8,24.2c0,0.9-0.3,1.7-1,2.3c-0.6,0.6-1.5,1-2.3,1s-1.7-0.3-2.3-1c-0.6-0.6-1-1.5-1-2.3
		c0-1.8,1.5-3.3,3.3-3.3S47.8,22.4,47.8,24.2z M44.4,19.2c-2.8,0-5,2.2-5,5c0,1.3,0.5,2.6,1.5,3.5c0.9,0.9,2.2,1.5,3.5,1.5
		c1.3,0,2.6-0.5,3.5-1.5c0.9-0.9,1.5-2.2,1.5-3.5C49.5,21.5,47.2,19.2,44.4,19.2z"/>
	<path class="st1" d="M44.4,29.8c-1.5,0-2.9-0.6-3.9-1.6c-1.1-1.1-1.6-2.5-1.6-3.9c0-3.1,2.5-5.6,5.6-5.6s5.6,2.5,5.6,5.6
		c0,1.5-0.6,2.9-1.6,3.9C47.3,29.2,45.9,29.8,44.4,29.8z M44.4,19.8c-2.4,0-4.4,2-4.4,4.4c0,1.2,0.5,2.3,1.3,3.1
		c0.8,0.8,2,1.3,3.1,1.3c1.2,0,2.3-0.5,3.1-1.3c0.8-0.8,1.3-2,1.3-3.1C48.9,21.8,46.9,19.8,44.4,19.8z M44.4,28.1
		c-1,0-2-0.4-2.7-1.1c-0.7-0.7-1.1-1.7-1.1-2.7c0-2.1,1.7-3.9,3.9-3.9c2.1,0,3.9,1.7,3.9,3.9c0,1-0.4,2-1.1,2.7
		C46.5,27.7,45.5,28.1,44.4,28.1z M44.4,21.5c-1.5,0-2.7,1.2-2.7,2.7c0,0.7,0.3,1.4,0.8,1.9c0.5,0.5,1.2,0.8,1.9,0.8
		c0.7,0,1.4-0.3,1.9-0.8c0.5-0.5,0.8-1.2,0.8-1.9C47.2,22.7,46,21.5,44.4,21.5z"/>
</g>
<path class="st0" d="M9.9,24.2c0,2.3-1.9,4.2-4.2,4.2s-4.2-1.9-4.2-4.2c0-2.3,1.9-4.2,4.2-4.2S9.9,21.9,9.9,24.2z"/>
<g>
	<path class="st1" d="M9,24.2c0,0.9-0.3,1.7-1,2.3c-0.6,0.6-1.5,1-2.3,1s-1.7-0.3-2.3-1c-0.6-0.6-1-1.5-1-2.3c0-1.8,1.5-3.3,3.3-3.3
		S9,22.4,9,24.2z M5.7,19.2c-2.8,0-5,2.2-5,5c0,1.3,0.5,2.6,1.5,3.5c0.9,0.9,2.2,1.5,3.5,1.5c1.3,0,2.6-0.5,3.5-1.5
		c0.9-0.9,1.5-2.2,1.5-3.5C10.7,21.5,8.5,19.2,5.7,19.2z"/>
	<path class="st1" d="M5.7,29.8c-1.5,0-2.9-0.6-3.9-1.6c-1.1-1.1-1.6-2.5-1.6-3.9c0-3.1,2.5-5.6,5.6-5.6s5.6,2.5,5.6,5.6
		c0,1.5-0.6,2.9-1.6,3.9C8.6,29.2,7.2,29.8,5.7,29.8z M5.7,19.8c-2.4,0-4.4,2-4.4,4.4c0,1.2,0.5,2.3,1.3,3.1c0.8,0.8,2,1.3,3.1,1.3
		s2.3-0.5,3.1-1.3c0.8-0.8,1.3-2,1.3-3.1C10.1,21.8,8.1,19.8,5.7,19.8z M5.7,28.1c-1,0-2-0.4-2.7-1.1c-0.7-0.7-1.1-1.7-1.1-2.7
		c0-2.1,1.7-3.9,3.9-3.9s3.9,1.7,3.9,3.9c0,1-0.4,2-1.1,2.7C7.7,27.7,6.7,28.1,5.7,28.1z M5.7,21.5c-1.5,0-2.7,1.2-2.7,2.7
		c0,0.7,0.3,1.4,0.8,1.9C4.3,26.7,5,27,5.7,27s1.4-0.3,1.9-0.8c0.5-0.5,0.8-1.2,0.8-1.9C8.4,22.7,7.2,21.5,5.7,21.5z"/>
</g>
<path class="st0" d="M39.4,37.6c-7,7.9-19.1,8.7-27,1.7c-7.9-7-8.7-19.1-1.7-27c7-7.9,19.1-8.7,27-1.7
	C45.7,17.6,46.4,29.7,39.4,37.6z"/>
<g>
	<path class="st1" d="M38.8,37.1c-6.7,7.6-18.3,8.3-25.8,1.6C5.4,32,4.7,20.4,11.3,12.8c6.7-7.6,18.3-8.3,25.8-1.6
		c3.7,3.2,5.9,7.7,6.2,12.6C43.7,28.7,42,33.4,38.8,37.1z M38.3,9.9C30,2.6,17.4,3.4,10.1,11.7C2.8,20,3.6,32.6,11.8,39.9
		c8.3,7.3,20.9,6.5,28.2-1.8c3.5-4,5.3-9.2,5-14.5C44.7,18.4,42.3,13.5,38.3,9.9z"/>
	<path class="st1" d="M25.1,45.5c-4.8,0-9.7-1.7-13.6-5.1c-8.5-7.5-9.3-20.5-1.8-29c7.5-8.5,20.5-9.3,29-1.8
		c4.1,3.6,6.6,8.7,6.9,14.1c0.3,5.5-1.5,10.8-5.1,14.9C36.4,43.2,30.8,45.5,25.1,45.5z M25.1,5.5c-5.4,0-10.8,2.2-14.6,6.6
		c-7.1,8-6.3,20.4,1.7,27.4c8,7.1,20.4,6.3,27.4-1.7c3.4-3.9,5.2-8.9,4.8-14.1c-0.3-5.2-2.6-9.9-6.5-13.4v0
		C34.2,7.1,29.7,5.5,25.1,5.5z M25.1,43.8c-4.4,0-8.9-1.6-12.5-4.7C4.8,32.2,4,20.2,10.9,12.4c6.9-7.8,18.8-8.6,26.6-1.7
		c3.8,3.3,6,7.9,6.3,13c0.3,5-1.4,9.9-4.7,13.7l0,0C35.5,41.6,30.3,43.8,25.1,43.8z M25.1,7.2c-4.9,0-9.8,2-13.3,6
		c-6.5,7.3-5.8,18.6,1.6,25c7.3,6.5,18.6,5.8,25-1.6l0,0c3.1-3.6,4.7-8.1,4.4-12.8c-0.3-4.7-2.4-9.1-6-12.2
		C33.4,8.7,29.3,7.2,25.1,7.2z"/>
</g>
<g>
	<g>
		<path class="st1" d="M19.1,16.2c1.4,0.2,2.4,1.5,2.2,2.9c-0.2,1.4-1.5,2.4-2.9,2.2c-1.4-0.2-2.4-1.5-2.2-3
			C16.4,17,17.7,16,19.1,16.2z"/>
		<path class="st1" d="M18.8,22c-0.2,0-0.3,0-0.5,0c-1.7-0.3-2.9-1.9-2.7-3.6c0.1-0.8,0.6-1.6,1.2-2.1c0.7-0.5,1.5-0.7,2.4-0.6l0,0
			c1.7,0.2,2.9,1.9,2.7,3.6c-0.1,0.8-0.6,1.6-1.2,2.1C20.1,21.8,19.4,22,18.8,22z M18.7,16.8c-0.4,0-0.9,0.1-1.2,0.4
			c-0.4,0.3-0.7,0.8-0.8,1.3c-0.2,1.1,0.6,2.1,1.7,2.3c0.5,0.1,1.1-0.1,1.5-0.4c0.4-0.3,0.7-0.8,0.8-1.3c0.2-1.1-0.6-2.2-1.7-2.3
			l0,0C18.9,16.8,18.8,16.8,18.7,16.8z"/>
	</g>
	<g>
		<path class="st1" d="M30.3,16.2c1.4,0.2,2.4,1.5,2.2,2.9c-0.2,1.4-1.5,2.4-2.9,2.2c-1.4-0.2-2.4-1.5-2.2-2.9
			C27.5,17,28.9,16,30.3,16.2z"/>
		<path class="st1" d="M29.9,22c-0.2,0-0.3,0-0.5,0c-1.7-0.2-2.9-1.9-2.7-3.6c0.1-0.8,0.6-1.6,1.2-2.1c0.7-0.5,1.5-0.7,2.4-0.6
			c1.7,0.2,2.9,1.9,2.7,3.6c-0.1,0.8-0.6,1.6-1.2,2.1C31.3,21.7,30.6,22,29.9,22z M29.9,16.7c-0.4,0-0.9,0.1-1.2,0.4
			c-0.4,0.3-0.7,0.8-0.8,1.3c-0.2,1.1,0.6,2.1,1.7,2.3c0.5,0.1,1.1-0.1,1.5-0.4c0.4-0.3,0.7-0.8,0.8-1.3c0.2-1.1-0.6-2.1-1.7-2.3h0
			C30.1,16.7,30,16.7,29.9,16.7z"/>
	</g>
	<g>
		<g>
			<path class="st1" d="M25,35.5c-5.2,0-9.7-3.4-11.5-8.8c-0.2-0.4,0.1-0.9,0.5-1.1c0.4-0.1,0.9,0.1,1.1,0.5
				c1.6,4.7,5.5,7.7,9.9,7.7c0,0,0.1,0,0.1,0c4.4-0.1,8-3.1,9.4-7.8c0.1-0.4,0.6-0.7,1.1-0.6c0.4,0.1,0.7,0.6,0.6,1.1
				C34.5,31.9,30.3,35.4,25,35.5C25.1,35.5,25.1,35.5,25,35.5L25,35.5z"/>
			<path class="st1" d="M24.9,36c-5.4,0-10-3.6-12-9.2c-0.1-0.4-0.1-0.7,0.1-1.1c0.2-0.3,0.5-0.6,0.8-0.7c0.7-0.2,1.5,0.1,1.8,0.9
				c1.5,4.5,5.2,7.3,9.4,7.3c0,0,0.1,0,0.1,0c4.1-0.1,7.5-2.9,8.9-7.4c0.2-0.7,1-1.2,1.8-0.9c0.7,0.2,1.2,1,0.9,1.8
				c-1.7,5.7-6.1,9.4-11.5,9.4L25,36C25,36,25,36,24.9,36z M14.3,26.1C14.3,26.1,14.2,26.1,14.3,26.1c-0.2,0-0.2,0.1-0.2,0.2
				c0,0,0,0.1,0,0.2c1.8,5.2,6.1,8.5,11,8.4l0.1,0c4.9-0.1,8.9-3.4,10.5-8.6c0-0.1,0-0.3-0.2-0.3c-0.1,0-0.3,0-0.3,0.2
				c-1.5,5-5.3,8.2-10,8.2l-0.1,0c0,0-0.1,0-0.1,0c-4.6,0-8.7-3.2-10.4-8.1C14.5,26.2,14.4,26.1,14.3,26.1z"/>
		</g>
	</g>
</g>
</svg>
