<?xml version="1.0" encoding="utf-8"?>
<!-- Generator: Adobe Illustrator 27.4.0, SVG Export Plug-In . SVG Version: 6.00 Build 0)  -->
<svg version="1.1" id="圖層_1" xmlns="http://www.w3.org/2000/svg" xmlns:xlink="http://www.w3.org/1999/xlink" x="0px" y="0px"
	 viewBox="0 0 50 50" style="enable-background:new 0 0 50 50;" xml:space="preserve">
<style type="text/css">
	.st0{fill:#FFFFFF;}
</style>
<g id="MALE_00000020388010043045182520000004959185999235469741_">
	<g id="face_00000075875230517189949060000004426904709761269655_">
		<path id="head_00000013912242503657842520000008106420136674491834_" class="st0" d="M47.4,22.5C45.1,11.5,35.9,3.2,25,3.2
			c-10.9,0-20.1,8.2-22.4,19.2c-1.1,0.1-2,1.1-2,2.4v5.5c0,1.3,1,2.4,2.2,2.4h0.8c0.8,0,1.5-0.5,1.9-1.2l0.1,0.1
			c1.9,8.9,9.9,15.6,19.3,15.6c9.5,0,17.5-6.8,19.4-15.8c0.4,0.8,1.1,1.4,2,1.4h0.8c1.2,0,2.2-1.1,2.2-2.4v-5.5
			C49.3,23.6,48.5,22.6,47.4,22.5z M25,44.6c-7.5,0-14-4.9-16.3-11.7l10.8,4.6c0.1,1.2,1.1,2.2,2.3,2.2c1.3,0,2.3-1,2.3-2.3
			c0-1.3-1-2.3-2.3-2.3c-0.6,0-1.1,0.2-1.5,0.6L8.1,30.5c-0.2-1-0.3-2-0.3-3c0-2,0.3-3.9,1-5.7c10.3-0.2,21.8-9,23.1-10
			c6.1,2.7,10.3,8.7,10.3,15.7C42.2,36.9,34.5,44.6,25,44.6z M44.4,23.7c-1.7-9.1-9.8-16-19.4-16c-9.6,0-17.7,6.9-19.4,16
			c-0.2-0.4-0.5-0.8-0.9-1C6.8,12.7,15.1,5.3,25,5.3c9.9,0,18.2,7.5,20.3,17.4C45,22.9,44.6,23.3,44.4,23.7z"/>
		<path id="shadow_00000139269153341663711250000003808455842433554577_" class="st0" d="M45.4,27.8h-3.2C42,37.1,34.4,44.6,25,44.6
			c-7.5,0-14-4.9-16.3-11.7l10.8,4.6c0.1,1.2,1.1,2.2,2.3,2.2c1.3,0,2.3-1,2.3-2.3c0-1.3-1-2.3-2.3-2.3c-0.6,0-1.1,0.2-1.5,0.6
			L8.1,30.5c-0.2-0.9-0.2-1.8-0.3-2.7H4.6c-1.4,0-2.7-0.2-4-0.7v3.3c0,1.3,1,2.4,2.2,2.4h0.8c0.8,0,1.5-0.5,1.9-1.2l0.1,0.1
			c1.9,8.9,9.9,15.6,19.3,15.6c9.5,0,17.5-6.8,19.4-15.8c0.4,0.8,1.1,1.4,2,1.4h0.8c1.2,0,2.2-1.1,2.2-2.4v-3.3
			C48.1,27.6,46.8,27.8,45.4,27.8z"/>
		<g id="eyes_00000166672264217029632390000012210126383279463341_">
			<path class="st0" d="M31.9,24l1.4-1.4c-0.5-0.9-1.5-1.6-2.6-1.6c-1.6,0-3,1.3-3,3s1.3,3,3,3c1.1,0,2.1-0.6,2.6-1.6L31.9,24z"/>
			<path class="st0" d="M20.6,24l1.4-1.4c-0.5-0.9-1.5-1.6-2.6-1.6c-1.6,0-3,1.3-3,3s1.3,3,3,3c1.1,0,2.1-0.6,2.6-1.6L20.6,24z"/>
		</g>
	</g>
</g>
</svg>
