<?xml version="1.0" encoding="utf-8"?>
<!-- Generator: Adobe Illustrator 27.4.0, SVG Export Plug-In . SVG Version: 6.00 Build 0)  -->
<svg version="1.1" id="圖層_1" xmlns="http://www.w3.org/2000/svg" xmlns:xlink="http://www.w3.org/1999/xlink" x="0px" y="0px"
	 viewBox="0 0 23.6 23.6" style="enable-background:new 0 0 23.6 23.6;" xml:space="preserve">
<path d="M1,23.6c-0.3,0-0.5-0.1-0.7-0.3c-0.4-0.4-0.4-1,0-1.4L21.9,0.3c0.4-0.4,1-0.4,1.4,0s0.4,1,0,1.4L1.7,23.3
	C1.5,23.5,1.3,23.6,1,23.6z"/>
<path d="M22.6,23.6c-0.3,0-0.5-0.1-0.7-0.3L0.3,1.7c-0.4-0.4-0.4-1,0-1.4s1-0.4,1.4,0l21.6,21.6c0.4,0.4,0.4,1,0,1.4
	C23.1,23.5,22.8,23.6,22.6,23.6z"/>
</svg>
