<?xml version="1.0" encoding="utf-8"?>
<!-- Generator: Adobe Illustrator 27.4.0, SVG Export Plug-In . SVG Version: 6.00 Build 0)  -->
<svg version="1.1" id="圖層_1" xmlns="http://www.w3.org/2000/svg" xmlns:xlink="http://www.w3.org/1999/xlink" x="0px" y="0px"
	 viewBox="0 0 29.2 22.9" style="enable-background:new 0 0 29.2 22.9;" xml:space="preserve">
<style type="text/css">
	.st0{fill:#FFFFFF;}
</style>
<path class="st0" d="M28.7,12.9c0.1-0.1,0.1-0.2,0.2-0.3c0-0.1,0-0.1,0.1-0.2c0-0.1,0.1-0.2,0.1-0.3c0-0.1,0-0.1,0-0.2
	c0-0.2,0.1-0.3,0.1-0.5c0,0,0,0,0,0c0,0,0,0,0,0c0-0.2,0-0.3,0-0.5c0-0.1,0-0.1,0-0.2c0-0.1-0.1-0.2-0.1-0.3c0-0.1,0-0.1-0.1-0.2
	c0-0.1-0.1-0.2-0.2-0.3c0,0-0.1-0.1-0.1-0.1c0,0,0,0,0,0l-6.3-8.6c-0.9-1.3-2.7-1.5-3.9-0.6c-1.3,0.9-1.5,2.7-0.6,3.9l3,4.2h-18
	C1.3,8.6,0,9.9,0,11.4c0,1.5,1.3,2.8,2.8,2.8h18l-3,4.2c-0.9,1.3-0.6,3,0.6,3.9c0.5,0.4,1.1,0.5,1.6,0.5c0.9,0,1.7-0.4,2.3-1.2
	l6.3-8.6c0,0,0,0,0,0C28.7,13,28.7,12.9,28.7,12.9z"/>
</svg>
