<?xml version="1.0" encoding="utf-8"?>
<!-- Generator: Adobe Illustrator 25.4.1, SVG Export Plug-In . SVG Version: 6.00 Build 0)  -->
<svg version="1.1" id="圖層_1" xmlns="http://www.w3.org/2000/svg" xmlns:xlink="http://www.w3.org/1999/xlink" x="0px" y="0px"
	 viewBox="0 0 30 30" style="enable-background:new 0 0 30 30;" xml:space="preserve">
<style type="text/css">
	.st0{fill:#FFFFFF;}
</style>
<g>
	<path class="st0" d="M28.5,12h-1.9c-0.3-1.1-0.7-2.1-1.3-3.1l1.3-1.3c0.6-0.6,0.6-1.5,0-2.1l-2.1-2.1c-0.3-0.3-0.7-0.4-1.1-0.4
		c-0.4,0-0.8,0.2-1.1,0.4l-1.3,1.3c-1-0.6-2-1-3.1-1.3V1.5C18,0.7,17.3,0,16.5,0h-3C12.7,0,12,0.7,12,1.5v1.9
		c-1.1,0.3-2.1,0.7-3.1,1.3L7.6,3.3C7.3,3.1,6.9,2.9,6.5,2.9c-0.4,0-0.8,0.2-1.1,0.4L3.3,5.5C2.7,6,2.7,7,3.3,7.6l1.3,1.3
		c-0.6,1-1,2-1.3,3.1H1.5C0.7,12,0,12.7,0,13.5v3C0,17.3,0.7,18,1.5,18h1.9c0.3,1.1,0.7,2.1,1.3,3.1l-1.3,1.3
		c-0.6,0.6-0.6,1.5,0,2.1l2.1,2.1c0.3,0.3,0.7,0.4,1.1,0.4c0.4,0,0.8-0.1,1.1-0.4l1.3-1.3c1,0.6,2,1,3.1,1.3v1.9
		c0,0.8,0.7,1.5,1.5,1.5h3c0.8,0,1.5-0.7,1.5-1.5v-1.9c1.1-0.3,2.1-0.7,3.1-1.3l1.3,1.3c0.3,0.3,0.7,0.4,1.1,0.4
		c0.4,0,0.8-0.1,1.1-0.4l2.1-2.1c0.6-0.6,0.6-1.5,0-2.1l-1.3-1.3c0.6-1,1-2,1.3-3.1h1.9c0.8,0,1.5-0.7,1.5-1.5v-3
		C30,12.7,29.3,12,28.5,12z M28.5,16.5h-3.1c-0.3,1.8-1,3.4-2,4.8l2.2,2.2l-2.1,2.1l-2.2-2.2c-1.4,1-3,1.7-4.8,2v3.1h-3v-3.1
		c-1.8-0.3-3.4-1-4.8-2l-2.2,2.2l-2.1-2.1l2.2-2.2c-1-1.4-1.7-3-2-4.8H1.5v-3h3.1c0.3-1.8,1-3.4,2-4.8L4.4,6.5l2.1-2.1l2.2,2.2
		c1.4-1,3-1.7,4.8-2V1.5h3v3.1c1.8,0.3,3.4,1,4.8,2l2.2-2.2l2.1,2.1l-2.2,2.2c1,1.4,1.7,3,2,4.8h3.1V16.5z"/>
	<path class="st0" d="M15,7.5c-4.1,0-7.5,3.4-7.5,7.5s3.4,7.5,7.5,7.5c4.1,0,7.5-3.4,7.5-7.5S19.1,7.5,15,7.5z M15,21
		c-3.3,0-6-2.7-6-6s2.7-6,6-6c3.3,0,6,2.7,6,6S18.3,21,15,21z"/>
</g>
</svg>
