<?xml version="1.0" encoding="utf-8"?>
<!-- Generator: Adobe Illustrator 25.4.1, SVG Export Plug-In . SVG Version: 6.00 Build 0)  -->
<svg version="1.1" id="圖層_1" xmlns="http://www.w3.org/2000/svg" xmlns:xlink="http://www.w3.org/1999/xlink" x="0px" y="0px"
	 viewBox="0 0 30 30" style="enable-background:new 0 0 30 30;" xml:space="preserve">
<style type="text/css">
	.st0{fill:#FFFFFF;}
</style>
<g>
	<path class="st0" d="M15,22.5c5,0,9-5,9-11.2S20,0,15,0c-5,0-9,5-9,11.2S10,22.5,15,22.5z M15,1.5c4.1,0,7.5,4.4,7.5,9.8
		S19.1,21,15,21c-4.1,0-7.5-4.4-7.5-9.8S10.9,1.5,15,1.5z"/>
	<path class="st0" d="M21.6,21.2c-0.4,0.4-0.8,0.7-1.3,1.1c1.4,0.7,2.7,1.2,3.8,1.7c4,1.7,4.5,2.1,4.5,3.1c0,0.7-0.7,1.5-1.5,1.5H3
		c-0.8,0-1.5-0.8-1.5-1.5c0-1,0.5-1.3,4.5-3.1c1.1-0.5,2.3-1,3.8-1.7c-0.4-0.3-0.9-0.7-1.3-1.1C2.2,24.1,0,24.4,0,27
		c0,1.5,1.3,3,3,3h24c1.7,0,3-1.5,3-3C30,24.4,27.8,24.1,21.6,21.2z"/>
</g>
</svg>
