<?xml version="1.0" encoding="utf-8"?>
<!-- Generator: Adobe Illustrator 28.0.0, SVG Export Plug-In . SVG Version: 6.00 Build 0)  -->
<svg version="1.1" id="圖層_1" xmlns="http://www.w3.org/2000/svg" xmlns:xlink="http://www.w3.org/1999/xlink" x="0px" y="0px"
	 viewBox="0 0 68.3 68.9" style="enable-background:new 0 0 68.3 68.9;" xml:space="preserve">
<style type="text/css">
	.st0{fill:#B32A25;}
</style>
<g>
	<g>
		<path class="st0" d="M0.3,31.4c0.1-0.1,0.1-0.2,0.1-0.3c0.5-2.2,0.9-4.5,1.4-6.7C1.9,24,2,23.7,2,23.3c0.1-0.7,0.4-1.3,0.8-1.9
			c0.9-1.5,1.7-3,2.5-4.5C6.2,15.4,7.2,14,8.6,13c0.1-0.1,0.2-0.2,0.2-0.3C9,12,9.4,11.5,9.9,11c0.3-0.4,0.6-0.8,0.9-1.1
			c0.1-0.1,0.1-0.2,0.2-0.2c0.4-0.3,0.8-0.5,1.1-0.9C14.6,6.2,17.6,4.3,21,3c2.9-1.2,5.9-1.9,8.9-2.5c0.7-0.1,1.4-0.2,2.1-0.4
			c0.7-0.2,1.5-0.1,2.2,0c2,0.2,4.1,0.3,6.1,0.5c1.1,0.1,2.1,0.3,3.1,0.8c0.4,0.2,0.8,0.3,1.3,0.3c0.7,0,1.3,0.2,1.9,0.5
			C48,3.1,49.5,3.8,51,4.5c0.5,0.2,0.9,0.6,1.4,0.9c1,0.7,2,1.5,2.9,2.3c0.5,0.4,1,0.9,1.5,1.4c0.4,0.4,0.8,0.7,1.2,1
			c0.6,0.4,1.1,0.9,1.5,1.5c0.8,1.1,1.8,2,2.5,3.2c1.6,2.4,3.2,4.8,4.2,7.5c0.7,1.9,1.2,3.8,1.5,5.8c0.3,2.1,0.4,4.1,0.5,6.2
			c0.1,1.1,0.2,2.3,0.1,3.4c-0.2,1.7-0.5,3.4-1,5.1c-0.9,2.9-2,5.6-3.3,8.4c-0.3,0.7-0.9,1.3-1.3,1.9c-1.4,1.8-2.9,3.6-4.4,5.3
			c-1.5,1.6-3.1,2.9-4.9,4.1c-2.8,1.8-5.7,3.3-8.8,4.4s-6.4,1.7-9.7,2c-1,0.1-2-0.1-2.9-0.3c-1.5-0.3-3.1-0.5-4.7-0.8
			c-2.7-0.4-5.2-1.4-7.7-2.6c-3.7-1.8-6.9-4.4-9.6-7.5c-0.7-0.8-1.6-1.6-2.4-2.3c-0.6-0.6-1-1.3-1.4-2S5.5,52.1,5,51.5
			c-0.5-0.7-0.9-1.4-1.3-2.2c-0.1-0.2-0.1-0.5-0.1-0.8c0.1-0.7-0.2-1.3-0.5-1.8c-0.5-1-0.9-1.9-1.4-2.9c-0.4-0.9-0.5-1.9-0.4-2.9
			c0-0.1,0-0.4-0.1-0.4c-0.5-0.4-0.7-0.9-0.7-1.5c0-0.9,0-1.7,0-2.6c0-0.5-0.1-1-0.2-1.5c0-0.2-0.2-0.3-0.3-0.5
			C0.3,33.3,0.3,32.3,0.3,31.4z M55.4,9.3c-0.1-0.5-0.1-0.5-0.6-1c-0.1-0.1-0.2-0.2-0.3-0.2c-0.4,0.1-0.7-0.1-0.9-0.4
			c-1.4-1.8-3.2-3.1-5.4-3.7c-0.5-0.1-1.1-0.3-1.5-0.6C46.2,3,45.6,2.8,45,2.6c-1.5-0.3-3-0.6-4.6-0.9C38,1.3,35.5,1.1,33,1.2
			c-1.9,0.1-3.8,0.4-5.6,0.9c-2.6,0.7-5.2,1.4-7.7,2.5c-1.8,0.8-3.5,1.8-4.9,3.2c-0.1,0.1-0.2,0.2-0.3,0.4c0,0,0,0.1,0.1,0.1
			c0.2,0,0.4,0,0.6-0.1c0.9-0.5,1.8-1.1,2.7-1.7c0.6-0.3,1.2-0.6,1.8-1c0,0.1-0.1,0.1-0.1,0.2c-0.8,0.5-1.7,1.1-2.5,1.6
			c-0.9,0.6-1.9,1.1-2.5,2c-0.1,0.1-0.2,0.1-0.3,0.2c-0.2,0.2-0.6,0.4-0.7,0.6c-0.4,0.9-0.9,1.6-1.6,2.2c-1,0.8-2.1,1.6-3.1,2.5
			c-0.2,0.2-0.4,0.4-0.6,0.6c-0.5,0.9-1,1.8-1.5,2.7c-0.3,0.5-0.7,1-1,1.6c0,0,0,0-0.1,0c0.2-0.5,0.4-0.9,0.5-1.4l-0.1-0.1
			c-0.1,0.1-0.3,0.2-0.4,0.3c-0.4,0.5-0.8,0.9-1,1.5c-0.5,1.2-1,2.4-1.4,3.7c-0.5,1.6-1.1,3.3-1.4,4.9c-0.6,2.2-0.6,4.5-0.5,6.7
			c0,2.3,0.6,4.6,1.2,6.8c0.6,2.4,1.6,4.7,2.6,6.9c0.5,0.9,0.9,1.9,1.5,2.7c1,1.4,2.1,2.7,3.3,3.9c0.9,1.1,1.9,2.1,2.9,3.2
			c0.3,0.3,0.7,0.5,1.1,0.8l0.1-0.1c-0.1-0.2-0.2-0.4-0.3-0.5c-1-1.1-1.9-2.1-2.9-3.1c-1.1-1.2-2.3-2.4-3-4c0-0.1-0.1-0.2-0.3-0.3
			c-0.8-0.5-1-1.4-1.3-2.3c0.1,0.1,0.1,0.1,0.2,0.1c0.6,0.7,1.2,1.4,1.8,2.1c0.1,0.1,0.1,0.1,0.1,0.2c0.2,0.5,0.5,1,0.7,1.5
			c0.1,0.1,0.2,0.2,0.3,0.3c1.3,0.6,2.1,1.6,2.6,2.9c0.1,0.2,0.2,0.4,0.4,0.5c0.8,0.6,1.5,1.3,1.9,2.1c0.2,0.5,0.6,0.7,1,0.9
			c1.6,0.8,3.2,1.6,4.8,2.3c0.7,0.3,1.4,0.4,2,0.8c1.2,0.7,2.4,1.2,3.7,1.5c1.6,0.4,3.1,0.8,4.7,1.2c0.1,0,0.2,0,0.2,0
			c0.8,0,1.6,0.1,2.4,0.1c0.9,0.1,1.8,0.3,2.7,0.1c0.4-0.1,0.7-0.2,1.1-0.2c0.5,0,1.1,0,1.6,0c1.6-0.1,3.1-0.3,4.5-1.2
			c0.1-0.1,0.2-0.1,0.4-0.1c1,0.2,1.7-0.3,2.5-0.7c0.9-0.5,1.8-1.1,2.8-1.5c0.7-0.3,1.4-0.6,2-1.1c0.3-0.3,0.6-0.6,1-0.8
			c0.6-0.4,1.2-0.8,1.8-1.1c0.4-0.2,0.6-0.3,0.9-0.6c0.6-0.7,1.3-1.2,2-1.8c0.6-0.6,1.4-1,1.6-1.9c0.2-0.5,0.4-0.9,1-0.9
			c0.3,0,0.5-0.2,0.5-0.6c0-0.4,0.3-0.8,0.6-1.1c0.5-0.4,1-0.7,1.6-1.1c0,0.1,0,0.2,0.1,0.3c0,0.1,0.1,0.2,0.1,0.3
			c0.1-0.1,0.1-0.1,0.2-0.2c2.1-2.7,3.4-5.7,4.2-9c0.5-1.9,0.9-3.9,1.2-5.8c0.1-0.8,0.2-1.7,0.2-2.5c-0.1-1.4-0.2-2.8-0.3-4.1
			c0-0.2,0-0.4-0.1-0.5s-0.2-0.2-0.4-0.3c-0.1,0.1-0.2,0.3-0.1,0.4c0,1.2,0.1,2.4,0.1,3.5c0.1,2.6-0.2,5.2-0.7,7.7
			c-0.7,3.2-1.9,6.2-3.7,9c-0.1,0.1-0.1,0.2-0.2,0.3c0-0.1,0-0.2,0-0.2c0.6-1.3,1.3-2.6,1.9-3.9c1.3-2.9,2.1-6,1.9-9.2
			c0-0.2,0-0.5,0-0.7c0-0.6,0.1-1.2,0.1-1.8c-0.1-1.6-0.2-3.2-0.3-4.8c-0.1-2.4-0.7-4.8-1.6-7.1c-0.8-2.1-1.8-4-3.1-5.8
			c-0.7-1-1.2-2.2-2.4-2.7c-0.3-0.2-0.5-0.7-0.8-1c-0.2-0.4-0.5-0.6-0.9-0.7c-0.3-0.1-0.5-0.3-0.7-0.5c-0.5-0.6-1-1.2-1.4-1.8
			c-0.5-0.6-1.1-1.1-1.9-1.4c-1.3-0.4-1.8-1.5-2.5-2.5c0.1,0,0.1,0,0.2,0.1c2.2,1.6,4.3,3.3,6.3,5.1c0.2,0.2,0.3,0.3,0.5,0.1
			c0.3,0.5,0.6,0.9,0.9,1.3c2.9,3.2,5.2,6.8,6.8,10.9c0.3,0.9,0.7,1.9,0.8,2.9c0.1,0.6,0.3,1.2,0.6,1.7c0.1,0.2,0.3,0.3,0.5,0.6
			c0.2-0.6,0.2-1,0-1.5c-0.2-0.8-0.6-1.5-0.6-2.4c0-0.1,0-0.1-0.1-0.2c-1.4-3.6-3.1-7-5.4-10.1c-1.1-1.4-2.3-2.8-3.6-4
			c0,0-0.1-0.1-0.2-0.1c-0.1,0.1-0.1,0.2-0.1,0.3h-0.1c-0.1-0.2-0.2-0.4-0.3-0.6c-0.1-0.4-0.1-0.7-0.6-0.7c-0.1,0-0.1-0.1-0.2-0.1
			C55.8,9.5,55.6,9.4,55.4,9.3z M21.7,63.6c-0.1-0.1-0.2-0.1-0.3-0.1c-0.6-0.2-1.2-0.4-1.8-0.7c-1.3-0.8-2.6-1.6-3.8-2.4
			c-0.2-0.1-0.4-0.3-0.6-0.4c-0.1,0-0.2,0-0.4,0c0,0.1,0,0.2,0,0.3s0.1,0.1,0.2,0.2c1,0.7,1.9,1.3,2.9,2c0,0,0,0,0.1,0
			c0.8,0.1,1.4,0.5,2,1c0.3,0.2,0.7,0.4,1.1,0.5C21.3,64,21.5,63.9,21.7,63.6z M5.8,17.9C5.9,17.9,5.9,17.9,5.8,17.9
			c0.2,0,0.3,0,0.3-0.1c0.7-0.5,1.2-1.3,1.7-2.1c0.6-1,1.1-2.1,2.2-2.8c0.1,0,0.1-0.2,0.1-0.2c-0.1,0-0.2,0-0.3,0
			c-0.5,0.4-1,0.7-1.4,1.2c-1,1.1-1.8,2.4-2.5,3.7C5.9,17.7,5.9,17.8,5.8,17.9z M53.1,60.9L53.1,60.9c-0.2,0-0.3,0-0.4,0.1
			c-0.7,0.5-1.5,1-2.2,1.4s-1.6,0.5-2.3,1.1c-0.1,0.1-0.2,0.1-0.2,0.1c-0.3,0.1-0.6,0.2-0.9,0.3c-0.1,0.1-0.2,0.2-0.3,0.2
			c0.5-0.1,1-0.2,1.6-0.3c0.1,0,0.2-0.1,0.4-0.1c0.3-0.2,0.7-0.3,1-0.5c0.5-0.2,1.1-0.4,1.5-0.7c0.5-0.5,1-1,1.7-1.3
			C52.9,61.2,53,61,53.1,60.9z M27.4,65.9c0-0.1,0-0.1,0.1-0.2c-0.2-0.1-0.4-0.2-0.6-0.3c-0.5-0.1-1-0.2-1.4-0.4
			c-0.6-0.2-1.2-0.5-1.8-0.7c-0.3-0.1-0.7-0.1-1-0.2c-0.1,0-0.2,0.1-0.2,0.2c0.1,0.1,0.1,0.2,0.2,0.2c1.1,0.4,2.1,0.7,3.2,1.1
			C26.3,65.9,26.8,66,27.4,65.9z M36,66.8c-1.7-0.1-3.3-0.5-5.1-0.3C31.6,67.2,35.3,67.3,36,66.8z M56.9,57.9L56.9,57.9
			c-1.3,0.6-2.2,1.7-3.3,2.5c0.4,0.1,0.7,0.1,1-0.2c0.6-0.7,1.3-1.3,1.9-2C56.7,58.2,56.8,58.1,56.9,57.9z M12.8,10.2
			c-0.8-0.1-2.1,1-2.5,1.9C11.4,11.7,12,10.9,12.8,10.2z M57.5,57.1L57.5,57.1c0.4-0.1,0.8-0.2,1.1-0.4c0.2-0.1,0.3-0.4,0.4-0.6
			c0-0.1,0-0.2,0-0.3c0,0-0.2,0-0.3,0C58,56,57.7,56.5,57.5,57.1z M60.6,53c-0.5,0.7-0.9,1.4-1.4,2C60.2,54.9,60.9,53.8,60.6,53z
			 M27.9,65.6c0,0.1,0,0.1-0.1,0.2c0.5,0.4,1,0.7,1.7,0.7c0.1,0,0.2,0,0.3,0c0.1,0,0.1-0.1,0.2-0.2c-0.1-0.1-0.1-0.1-0.2-0.2
			c-0.3-0.1-0.7-0.2-1-0.3C28.5,65.7,28.2,65.6,27.9,65.6z M12.6,9.8c0.8,0,1.9-0.7,2.1-1.2C14.1,8.5,12.8,9.2,12.6,9.8z M44.5,65.2
			c-0.6,0.1-1.3,0.1-1.8,0.6C43.3,65.7,44,65.7,44.5,65.2z M39.9,66.2c0,0.1,0,0.1,0,0.2c0.5,0.2,1.1,0,1.3-0.3
			C40.8,66.1,40.3,66.2,39.9,66.2z M37.9,66.7c0.2,0.2,0.8,0.2,1,0c0,0,0-0.2,0-0.3C38.6,66.3,38,66.5,37.9,66.7z M61.2,52.5
			L61.2,52.5c0.2,0,0.4-0.1,0.5-0.3c0-0.1,0-0.3,0-0.4c-0.2,0.1-0.3,0.1-0.4,0.2C61.3,52.2,61.2,52.3,61.2,52.5z"/>
		<path class="st0" d="M34.4,15.2c1.6,0,3.2,0.1,4.7,0.7c0.7,0.2,1.2,0.6,1.2,1.5c0,0.2,0,0.4,0.2,0.5c0.3,0.3,0.2,0.6,0.1,0.9
			c-0.1,0.9-0.2,1.8-0.1,2.7c0,0.8,0,1.6-0.2,2.4c-0.1,0.4-0.1,0.9,0,1.3s0.1,0.8-0.1,1.2c-0.3,0.6-0.3,1.2-0.3,1.8
			c0.1,0.8,0,1.4-0.5,2.1c-0.1,0.2-0.3,0.4-0.3,0.7c-0.3,1-1,1.5-1.9,1.8c-1.8,0.5-3.6,0.6-5.4,0.4c-0.5-0.1-0.9-0.2-1.4-0.3
			c-1.1-0.2-1.6-0.9-1.8-2c-0.2-1-0.4-2-0.6-2.9c-0.1-0.4,0-0.8,0.1-1.1c0.2-0.6,0.2-1.2,0.2-1.9c-0.1-0.6-0.2-1.2-0.2-1.8
			c0-0.9,0.2-1.8,0.2-2.7c0.1-0.9,0.2-1.8,0.2-2.6c0-0.7,0.1-1.5,0.8-2c0.2-0.2,0.5-0.3,0.8-0.3C31.6,15.3,33,15.3,34.4,15.2z
			 M39.2,23.8c0-0.3,0-0.6,0-0.9s-0.2-0.4-0.4-0.4c-0.6,0-1.2-0.1-1.8,0c-0.6,0-1.2,0.2-1.7,0.4c-0.4,0.1-0.4,0.4-0.1,0.6
			c0.6,0.4,1.7,0.6,2.3,0.1c0.1-0.1,0.4,0,0.6,0.1c0.1,0,0.1,0.3,0.1,0.4c-0.1,0.6-0.2,1.3-0.3,1.9c-0.1,0.9-0.2,1.9-0.3,2.8
			c-0.2,0.9-0.7,1.5-1.7,1.6c-1.3,0.1-2.7,0-4-0.2c-0.5-0.1-0.7-0.4-0.9-0.8c-0.3-0.7-0.4-1.5-0.4-2.3c0-1.2,0.1-2.3,0.2-3.4
			c0-0.6,0.1-0.6,0.6-0.6c0.1,0,0.2,0,0.3,0c0.2,0,0.3,0.1,0.3,0.3c0,0.3,0.1,0.4,0.3,0.3c0.3,0,0.5-0.1,0.7-0.2
			c0.1-0.1,0.4-0.2,0.4-0.3c0-0.2-0.1-0.6-0.3-0.6c-0.9-0.3-1.9-0.5-2.9-0.2c-0.7,0.2-0.9,0.5-0.9,1.2c0,0.2,0,0.5,0,0.7
			c0.1,1,0.1,2-0.1,3.1c-0.1,0.5,0,1,0.1,1.4c0.1,0.6,0.3,1.2,0.4,1.8c0,0.3,0.2,0.5,0.5,0.6c1.4,0.6,2.9,0.8,4.4,0.5
			c0.2,0,0.4,0,0.6,0c1.1,0.2,2-0.1,2.6-1c0.1-0.1,0.2-0.1,0.2-0.2c0.2-0.2,0.4-0.4,0.5-0.6c0.2-0.3,0.3-0.6,0.4-1
			c0-0.1,0-0.3,0-0.5c0-0.4-0.1-0.9-0.1-1.3C39,26,39.1,24.9,39.2,23.8z M32.9,17.5C32.9,17.4,32.9,17.4,32.9,17.5
			c1.5,0.1,3,0.2,4.5,0.3c0.2,0,0.4,0.1,0.4,0.3c0,0.1,0,0.3,0.1,0.4c0.3,1.3,0,1.7-1.3,1.9c-0.1,0-0.2,0-0.2,0
			c-0.3,0.1-0.6,0.2-0.9,0.3c-0.1,0.1-0.2,0.3-0.3,0.4c0.1,0.1,0.3,0.3,0.4,0.2c0.7,0,1.3,0,2-0.1c0.2,0,0.4-0.2,0.6-0.3
			c0.3-0.1,0.5-0.4,0.8-0.4c0.3-0.1,0.5-0.2,0.5-0.5c0-0.1,0-0.2,0.1-0.3c0.1-0.8,0.2-1.7-0.1-2.5c-0.1-0.4-0.3-0.6-0.7-0.6
			c-0.5,0-1,0-1.4-0.2s-0.8-0.2-1.3-0.2c-1.6,0.2-3.2,0.4-4.8,0c-0.1,0-0.2,0-0.3,0.1c-0.3,0.3-0.7,0.6-1,1
			c-0.1,0.1-0.2,0.3-0.2,0.4c-0.1,0.8-0.2,1.5-0.2,2.3c0,0.1,0.1,0.3,0.2,0.4c1.1,0.5,2.2,0.8,3.4,0.6c0.1,0,0.2-0.1,0.2-0.1
			c0-0.1-0.1-0.3-0.1-0.3c-0.3-0.1-0.5-0.2-0.8-0.3c-0.8-0.2-1.2-0.6-1.2-1.5c0-0.4,0.1-0.8,0.2-1.1c0-0.1,0.2-0.2,0.3-0.3
			C32,17.5,32.4,17.5,32.9,17.5z M32.3,26.2c-0.3,0.2-0.4,0.5-0.4,0.8c0,0.4,0,0.8,0,1.3c0,0.3,0.1,0.4,0.4,0.4
			c0.8,0.2,1.6,0.4,2.4,0.5c0.1,0,0.3,0,0.4-0.1c0.3-0.1,0.6-0.4,0.9-0.4c0.5,0,0.7-0.3,0.8-0.6c0.1-0.3,0.1-0.6,0.1-0.9
			c0-0.5,0-1,0-1.6c0-0.5-0.1-0.8-0.6-1c-0.2-0.1-0.5-0.2-0.7-0.2c-1,0-2.1,0-3.1,0c-0.2,0-0.4,0.1-0.4,0.3c0,0.1,0.2,0.3,0.4,0.3
			c0.7,0.1,1.4,0.1,2.1,0.1c0.5,0,0.9,0.1,1.4,0.2c0.3,0.1,0.4,0.2,0.3,0.5c-0.1,0.5-0.1,1-0.1,1.5c0,0.3-0.1,0.5-0.4,0.5
			c-0.6,0.1-1.3,0.2-1.9,0.2c-1,0-1.2-0.2-1.2-1.2c0-0.1,0-0.2,0-0.3C32.5,26.5,32.4,26.4,32.3,26.2z M35,19.7
			c0.5,0,0.9-0.1,1.3-0.1c0.2,0,0.4,0,0.3-0.3c-0.1-0.2-0.1-0.5-0.5-0.5s-0.9,0-1.3,0c-0.4,0-0.7-0.1-1.1-0.1c-0.3,0-0.6,0-0.8,0.3
			c-0.1,0.2-0.1,0.4,0.2,0.5C33.7,19.5,34.4,19.6,35,19.7z M34.3,27.2c0.6,0,0.8-0.1,0.8-0.5s-0.2-0.6-0.6-0.6
			c-0.4,0-0.7,0.4-0.7,0.8C33.8,27.3,34.1,27.2,34.3,27.2z"/>
		<path class="st0" d="M27.1,37.7c0.2-0.4,0.5-0.5,0.9-0.5c0.9,0,1.9,0,2.8,0c0.4,0,0.8,0,1.2,0.1c0.3,0,0.5-0.1,0.5-0.3
			c0-0.1-0.2-0.4-0.3-0.4c-0.3-0.1-0.7-0.2-1.1-0.2c-0.7-0.1-1.4,0-2.1-0.1c-0.4,0-0.7-0.3-1-0.4c0-0.1,0-0.1,0-0.2
			c0.2,0,0.3-0.1,0.5-0.1c0.8,0,1.5,0,2.3,0c0.3,0,0.5,0,0.8,0c0.5,0,0.8-0.3,1-0.7c0.3-0.6,0.4-0.6,1-0.3c0.4,0.2,0.7,0.4,0.9,0.8
			c0,0.1,0.2,0.2,0.4,0.2c0.7,0,1.3,0,2,0.1c0.3,0,0.5,0.2,0.8,0.3c0.1,0.1,0.2,0.2,0.3,0.3c0.1,0.4,0.2,0.9,0.3,1.3
			c0,0.2,0.1,0.3,0.2,0.5c0.4,0.5,0.8,1,1.2,1.6c0.1,0.1,0.1,0.2,0.1,0.3c-0.3,2.3-0.2,4.6-0.2,6.8c0,1.8-0.1,3.6-0.6,5.4
			c-0.1,0.2-0.1,0.4-0.2,0.5c-0.4-0.2-0.5-0.5-0.5-0.9c0.1-0.6,0.2-1.3,0.3-1.9c0.2-1.5,0.1-3-0.1-4.6l0,0c-0.2-1-0.5-1.2-1.5-0.8
			c-0.5,0.2-1.1,0.5-1.6,0.7c-0.2,0.1-0.3,0.2-0.1,0.4s0.5,0.3,0.7,0.3c0.5,0,1,0,1.5,0c0.2,0,0.6,0,0.6,0.3s-0.2,0.5-0.5,0.5
			c-0.8,0.1-1.6,0.1-2.4,0.1c-1.2,0-2.5-0.2-3.7-0.3h-0.1c-1,0-1.7,0.2-2.1,1.2c-0.3,0.8-1,1.6-1.5,2.3c-0.1,0.2-0.2,0.4-0.3,0.6
			c-0.2,0.4-0.5,0.7-0.7,1c-0.1,0.1-0.2,0.2-0.3,0.3c0,0-0.1,0-0.1-0.1c0-0.2,0.1-0.4,0.1-0.6c0.6-1.6,1.2-3.1,1.7-4.7
			c0.1-0.3,0.2-0.6,0.3-0.9c0.1-0.3,0.3-0.5,0.6-0.5c0.4,0,0.8,0.1,1.1,0.1c0.1,0,0.3-0.1,0.4-0.2c0-0.1,0-0.3-0.1-0.4
			c-0.3-0.3-0.7-0.6-1.1-0.8c-0.5-0.3-0.9-0.6-1.2-1.1c-0.1-0.1-0.2-0.2-0.3-0.2c-0.1,0-0.3,0-0.5,0c1.1-1.1,2.6-1.5,4-2.2
			c-0.6-0.4-1.1-0.4-1.6-0.4s-0.9,0-1.4-0.1c-0.3,0-0.5-0.2-0.8-0.3c-0.1,0-0.1-0.2-0.1-0.3s0.2-0.1,0.2-0.1c0.5,0,1,0,1.6,0
			s1.3,0.1,1.9,0.1c0.3,0,0.6-0.2,0.9-0.3s0.3-0.4,0-0.5c-0.3-0.2-0.6-0.3-0.9-0.3c-0.5,0-1,0.2-1.5,0.2s-1-0.3-1.5-0.4
			C27.9,37.7,27.6,37.8,27.1,37.7z M34.4,41.2c-0.4,0-0.8,0.2-0.8,0.5c0,0.1,0.2,0.3,0.3,0.4c0.4,0.4,0.8,0.8,1.2,1.2
			c0.1,0.1,0.2,0.2,0.3,0.2c0.4-0.1,0.8-0.1,1.1-0.3c0.3-0.1,0.3-0.3,0.1-0.6c-0.5-0.4-1.1-0.8-1.6-1.2
			C34.7,41.3,34.5,41.3,34.4,41.2z M30.5,43.1L30.5,43.1c0.3-0.5,0.6-1,1.2-1c0.1,0,0.2-0.1,0.3-0.1c-0.1-0.1-0.1-0.3-0.2-0.3
			c-0.3,0-0.6,0-0.9,0c-0.4,0.1-0.9,0.3-1.3,0.4c-0.1,0-0.3,0.1-0.3,0.2c0,0.2,0,0.5,0.1,0.6c0.6,0.4,1.2,0.8,1.8,1.1
			c0.3,0.2,0.6,0.1,0.8-0.2c0.2-0.3,0.2-0.5-0.2-0.5c-0.3-0.1-0.6,0-0.9-0.1C30.8,43.1,30.7,43.1,30.5,43.1z M38.2,40.6L38.2,40.6
			c0-0.1,0.1-0.2,0-0.4c0-0.1-0.1-0.3-0.1-0.3c-0.1,0-0.3,0-0.3,0.1c-0.2,0.4-0.6,0.4-1,0.3c-0.3,0-0.5,0-0.8,0
			c-0.2,0-0.3,0.2-0.1,0.4c0.5,0.4,1,0.8,1.5,1.1c0.2,0.1,0.5,0.1,0.8,0.1c0.2,0,0.3-0.2,0.3-0.4C38.3,41.4,38.2,41,38.2,40.6z
			 M34.9,39.3L34.9,39.3c0.4,0,0.8,0,1.2-0.1c0.3,0,0.3-0.2,0.2-0.5s-0.4-0.4-0.7-0.4c-0.5,0-0.9,0.1-1.4,0.1
			c-0.3,0-0.4,0.1-0.3,0.4c0.1,0.3,0.2,0.5,0.6,0.5C34.5,39.3,34.7,39.3,34.9,39.3z M34.6,37.2L34.6,37.2c0.2,0,0.4,0.1,0.6,0.1
			c0.3,0,0.7,0,1-0.1c0.3,0,0.3-0.2,0.1-0.5c-0.4-0.4-1.6-0.6-2-0.2c-0.2,0.1-0.2,0.4-0.3,0.6C34.2,37.1,34.4,37.1,34.6,37.2
			C34.5,37.2,34.6,37.2,34.6,37.2z M34.2,43.9c-0.1-0.2-0.2-0.5-0.3-0.7c-0.2-0.3-0.4-0.2-0.5,0.1c-0.1,0.2-0.1,0.5-0.1,0.7
			c0,0.3,0.1,0.5,0.4,0.4C34,44.4,34.2,44.3,34.2,43.9z"/>
		<path class="st0" d="M52.9,29.5c0.1,0.5,0.3,1.3,0.4,2.1c0.1,0.5,0.1,1.1,0.2,1.6c0,0.2-0.1,0.3-0.3,0.4c-1.9,0.3-3.8,0.4-5.6-0.3
			c-0.1-0.1-0.3-0.1-0.5,0c-1.6,0.3-3.2,0.1-4.8-0.3c-0.1,0-0.2-0.1-0.2-0.2c-0.1-0.5-0.2-1-0.1-1.3c0.2-0.5,0.1-1,0.1-1.5
			c0-1.9,0-3.7,0.1-5.6c0-1.4,0.2-2.7,0.3-4.1c0.1-0.8,0.2-1.7,0.4-2.5c0-0.3,0.2-0.4,0.5-0.3c0.9,0.3,1.8,0.7,2.6,1.2
			c0.9,0.6,1.9,1.3,2.8,1.9c0.1,0,0.1,0.1,0.2,0.2c0.7,1,1.4,2,2,3c0.2,0.3,0.3,0.6,0.4,0.9c0.1,0.1,0.1,0.3,0.2,0.3
			c0.2,0.1,0.3,0.3,0.4,0.5c0.2,0.5,0.4,1.1,0.6,1.6C52.8,27.8,53,28.5,52.9,29.5z M47.5,25.2c-0.1-0.1-0.2-0.4-0.4-0.4
			c-0.3-0.2-0.6-0.3-0.9-0.3c-0.9,0-1.8,0-2.6,0c-0.2,0-0.4,0.1-0.4,0.4c0,0.5-0.1,1-0.1,1.5c-0.1,1.1-0.2,2.1,0.1,3.2
			c0,0.1,0.2,0.3,0.3,0.3c1.5,0.3,3,0.5,4.6,0c0.8-0.2,1-0.6,0.9-1.4c-0.1-0.5-0.2-1-0.7-1.3c0,0.3,0,0.5,0,0.7c0,0.6-0.3,1-0.9,1.2
			c-1.1,0.3-2.2,0.2-3.2-0.4c-0.1-0.1-0.2-0.3-0.2-0.5c0-0.5,0-1,0-1.5s0-0.9,0.1-1.4c0-0.1,0.1-0.3,0.1-0.2
			c0.4,0.1,0.8,0.2,1.2,0.3c0,0,0,0.1,0.1,0.1c0.2,0.5,0.5,0.6,1,0.4C46.7,25.6,47,25.4,47.5,25.2z M43.2,21.3
			c0.1,0.6,0.2,1.1,0.4,1.6c0,0.1,0.2,0.3,0.3,0.3c0.8,0.2,1.6-0.3,1.8-1.1c0.2-0.8,0-1.6-0.3-2.3c-0.2-0.4-0.5-0.7-1-0.7
			c-0.4,0-0.7,0.3-0.8,0.6C43.5,20.3,43.4,20.8,43.2,21.3z M49,31.7c0-0.4-0.2-0.7-0.5-0.7c-1.2,0-2.3-0.1-3.5-0.1
			c-0.6,0-1.2,0-1.6,0.4c-0.1,0.1-0.2,0.3-0.2,0.3c0.1,0.1,0.2,0.2,0.4,0.2c0.4,0,0.8-0.1,1.2-0.1c0.2,0,0.3,0,0.5,0
			c0.4,0.1,0.7,0.2,1.1,0.2c0.7,0,1.4-0.1,2,0.1C48.5,32.2,49,31.9,49,31.7z M50.5,32.4c0.5-0.4,1-0.3,1.5-0.2
			c0.1,0,0.3-0.1,0.3-0.1c-0.1-0.5-0.1-1-0.3-1.3c-0.3-0.3-0.8-0.5-1.2-0.6c-0.3-0.1-0.6,0.1-0.7,0.4C50,31.1,50.2,31.7,50.5,32.4z
			 M50.7,26.3c-0.1-0.3-0.1-0.6-0.3-0.9c-0.1-0.3-0.3-0.6-0.7-0.5c-0.3,0.1-0.6,0.3-0.7,0.7c-0.1,0.6,0.1,1.1,0.6,1.5
			c0.3,0.3,0.7,0.2,1-0.2C50.6,26.8,50.6,26.5,50.7,26.3z M48.1,22.8L48.1,22.8c-0.2,0.1-0.4,0.1-0.7,0.1c-0.1,0-0.4,0.1-0.4,0.2
			c0,0.2,0,0.4,0.1,0.5s0.3,0.3,0.4,0.3c0.5,0,1.1,0,1.6-0.1c0.1,0,0.2-0.3,0.2-0.3c-0.1-0.2-0.2-0.4-0.4-0.4
			C48.8,22.9,48.4,22.8,48.1,22.8z M45.8,27.8c0.3-0.1,0.6-0.1,0.9-0.2c0.1-0.1,0.2-0.3,0.2-0.5c0-0.1-0.1-0.4-0.2-0.4
			c-0.3-0.1-0.7-0.1-1,0c-0.4,0-0.6,0.3-0.5,0.7C45.1,27.6,45.3,27.8,45.8,27.8z M51.3,27.9c-0.2,0-0.3,0-0.5,0.1
			c-0.3,0.1-0.5,0.6-0.2,0.8c0.2,0.2,0.5,0.4,0.8,0.5s0.5,0,0.4-0.3s-0.1-0.5-0.2-0.8C51.5,28.1,51.4,28,51.3,27.9z M46.6,21.6
			c0.2,0.2,0.3,0.4,0.4,0.4c0.3,0,0.6-0.1,0.9-0.1c0,0,0.1-0.1,0.1-0.2c0-0.3-0.5-0.7-0.9-0.6C46.9,21.1,46.8,21.4,46.6,21.6z"/>
		<path class="st0" d="M20.5,27.3c-0.8,0.4-0.9,0.9-0.6,1.6c0.3,0.5,0.6,1.1,0.9,1.6c0.3,0.6,0.4,1.2,0,1.8c0,0.1-0.1,0.2-0.1,0.3
			c0.3,0.9,0.1,1.8-0.1,2.7c-0.1,0.7-0.2,1.4-0.3,2.1c0,0.2-0.1,0.3-0.2,0.4c-0.2,0.2-0.4,0.4-0.6,0.6c-0.1,0.1-0.2,0.4-0.2,0.5
			c0.3,0.9,0.6,1.9,0.9,2.8c0.1,0.5,0.3,0.9,0.4,1.4h-0.1c-0.1-0.1-0.1-0.2-0.2-0.3c-0.5-0.7-0.9-1.4-1.4-2.1
			c-0.1-0.2-0.3-0.5-0.7-0.3c-0.3,0.2-0.6,0.7-0.4,1c0.4,1,0.9,2,1.3,3c0.3,0.7,0.7,1.5,1.1,2.2c0.1,0.1,0.1,0.2,0,0.4
			c-0.2-0.3-0.4-0.5-0.6-0.8c-1.3-1.8-2.5-3.5-3.4-5.5c-0.1-0.2-0.2-0.4-0.3-0.6c-0.1-0.4,0-0.6,0.4-0.6c0.2,0,0.3-0.1,0.5-0.1
			c0.7-0.1,0.9-0.6,0.5-1.2c-0.1-0.1-0.3-0.3-0.4-0.4c-0.3-0.2-0.4-0.4-0.4-0.8c0.1-1.4,0.2-2.9,0.4-4.3c0.1-0.8,0.2-1.5,0.3-2.2
			c0-0.2,0.2-0.5,0.4-0.7c0.5-0.5,1-1,1.1-1.7c0-0.4,0-0.7-0.1-1.1c-0.1-0.3-0.1-0.5,0.2-0.7c0.1-0.1,0.2-0.2,0.3-0.3
			c0.2,0.2,0.5,0.3,0.7,0.5c0.3,0.2,0.5,0.1,0.5-0.2c0.1-0.4,0.2-0.9,0.1-1.4s-0.1-0.9,0-1.3c0.1-0.5,0.1-1,0.1-1.5
			c0-0.7,0.3-1.2,1-1.4c0.4-0.2,0.9-0.4,1.3-0.6c0.5-0.3,0.9-0.6,0.9-1.2c0-0.1,0.2-0.3,0.3-0.4c0.1,0,0.3,0.1,0.4,0.2
			s0.1,0.3,0.1,0.4c0,0.9,0.6,1.5,1.2,2c0.2,0.2,0.4,0.3,0.6,0.4c0.4,0.2,0.4,0.5,0.4,0.9c-0.1,1.7-0.3,3.4-0.4,5.1
			c0,0.6-0.1,1.2,0.2,1.8c0.1,0.3,0.1,0.8,0,1.2c-0.4,0.8-0.2,1.6,0,2.3c0.1,0.4,0.1,0.8,0.1,1.1c0,0.2,0,0.4-0.1,0.5
			C25.9,35.2,26,36.1,26,37c0,1.6,0,3.2,0.1,4.8c0,0.8-0.1,1.6-0.4,2.4c-0.2,0.4-0.1,0.9-0.1,1.3c0,0.6,0.2,1.1,0.2,1.7
			c0.1,0.8-0.1,1.6-0.5,2.3c0,0.1-0.1,0.1-0.1,0.2c0,0-0.1,0-0.2,0.1c0-0.4-0.1-0.8-0.1-1.1c-0.1-1.3-0.1-2.6-0.1-3.9
			c0-0.5,0.2-1-0.1-1.5c0-0.1,0-0.2,0-0.3c0.4-0.8,0.4-1.6,0.3-2.4c-0.2-1.9,0.1-3.7,0.3-5.5c0.1-1.6,0.1-3.2,0.1-4.8c0-1,0-2,0.1-3
			c0.1-1.1,0.1-2.2,0.2-3.3c0-0.3,0.1-0.6,0.2-0.9c0.1-0.9-0.3-1.6-1-2s-1.4-0.5-2.2,0c-0.3,0.2-0.4,0.4-0.4,0.7
			c-0.2,1.5-0.5,2.9-0.7,4.4c-0.1,0.8-0.2,1.7-0.3,2.6c0,0.2-0.2,0.4-0.2,0.5c-0.1-0.2-0.2-0.3-0.3-0.5
			C20.6,28.2,20.5,27.8,20.5,27.3z M19.7,35.2c0-0.7-0.1-0.9-0.5-1s-0.8,0-0.9,0.3c-0.2,0.5-0.3,1-0.3,1.4c0.1,0.9,0.3,1,1.1,0.7
			c0.1,0,0.3-0.2,0.4-0.3C19.6,35.9,19.7,35.4,19.7,35.2z M18.4,32.1c0,1-0.1,0.9,0.8,0.9c0.5,0,0.7-0.2,0.7-0.7s-0.1-1-0.1-1.5
			c0-0.4-0.1-0.5-0.5-0.5s-0.6,0.2-0.7,0.6C18.5,31.3,18.4,31.7,18.4,32.1z"/>
		<path class="st0" d="M49.2,39.7C49.3,39.7,49.3,39.7,49.2,39.7c1.1,0.2,1.2,0.4,0.8,1.3c-0.2,0.4-0.4,0.9-0.7,1.3
			c-0.2,0.3-0.2,0.5-0.1,0.8c0.3,0.7,0.6,1.4,0.5,2.2c0,0.2-0.1,0.5-0.2,0.7h-0.1c-0.1-0.3-0.2-0.7-0.3-1c-0.2-0.5-0.4-0.8-0.9-0.9
			c-0.3-0.1-0.4,0-0.4,0.3c-0.1,0.8-0.1,1.6-0.2,2.4c0,0.5-0.2,0.9-0.2,1.4c0,0.1-0.1,0.2-0.2,0.2c-0.5,0-0.6,0.4-0.9,0.6
			c-0.6,0.4-1.3,0.8-1.9,1.2c-0.5,0.3-1.1,0.6-1.7,0.9c0.2-0.3,0.3-0.6,0.6-0.9c0.7-0.7,1.4-1.5,2.1-2.1c0.5-0.4,0.7-1,0.9-1.5
			c0.1-0.2,0-0.4-0.1-0.6c0-0.1-0.3,0-0.4,0c-0.7,0.4-1.3,0.7-2,1.1c-0.3,0.2-0.7,0.3-1.1,0.5c-0.1-0.4,0.1-0.5,0.3-0.7
			c0.3-0.2,0.6-0.4,0.9-0.6c0.2-0.2,0.5-0.4,0.7-0.6c0.3-0.3,0.6-0.5,0.9-0.8c0.2-0.2,0.5-0.3,0.7-0.5c0.1-0.1,0.2-0.4,0.2-0.5
			c0-0.3-0.2-0.4-0.5-0.3c-0.7,0.3-1.5,0.6-2.2,0.9c-0.1,0-0.1,0.1-0.2,0.1c-0.2,0-0.3,0-0.5,0c0.1-0.2,0.1-0.4,0.3-0.5
			c0.5-0.4,1-0.9,1.5-1.3c0.2-0.2,0.5-0.3,0.8-0.4c0.4-0.1,0.5-0.4,0.5-0.8c0-0.2,0-0.4-0.1-0.5c-0.3-0.6-0.4-0.7-1-0.5
			c-0.4,0.1-0.7,0.2-1.1,0.3c-0.2,0-0.4,0-0.6,0c0,0,0-0.1-0.1-0.1c0.2-0.2,0.4-0.4,0.6-0.6c0.4-0.2,0.9-0.4,1.4-0.5
			c0.4-0.1,0.6-0.8,0.3-1.1c0-0.1-0.1-0.1-0.2-0.1c-0.7,0-1.3,0-2,0c-0.3,0-0.6,0.2-0.6,0.6c-0.1,1-0.3,2.1-0.3,3.1
			c0,2.7-0.3,5.3-0.6,7.9c0,0.5-0.2,0.9-0.3,1.4C41.1,51.3,41,51,41,50.6c0-0.5,0.1-1,0.1-1.5s0-1-0.1-1.6c0-0.1,0-0.3,0-0.4
			c0.4-1.3,0.3-2.7,0.2-4c-0.1-1-0.1-2,0-3.1c0-0.3,0.1-0.6,0.2-0.9c0.2-0.6,0.3-1.2,0.2-1.8c0-0.3,0-0.6,0-0.8
			c0.1-0.6,0.1-0.8,0.8-0.9c0.6-0.1,1.2-0.1,1.9-0.1c0.6,0,1.2,0,1.8-0.1c0.4,0,0.8-0.2,1-0.7c0.2-0.4,0.8-0.4,1,0
			c0.5,1.1,1.4,1.2,2.4,1.3c0.8,0.1,1.6,0.1,2.4,0.2c0.3,0,0.5,0.2,0.4,0.5c-0.1,0.6-0.1,1.1-0.2,1.7C53,39,53,39.5,52.9,40.1
			c0,0.1,0,0.3-0.1,0.3c-0.7,0.4-1,1.1-1.4,1.6c-0.2,0.3-0.4,0.5-0.6,0.8c-0.1,0.1-0.2,0.2-0.4,0.3h-0.1c0-0.3,0-0.6,0.1-0.8
			c0.2-0.5,0.4-1,0.7-1.5c0.3-0.6,0.5-1.3,0.2-2c-0.1-0.2-0.2-0.3-0.5-0.3c-1.1,0-2.1,0.2-3.1,0.8c-0.4,0.3-0.7,0.6-0.7,1.1
			c0.1,0.6,0.5,0.9,0.9,1.2c0.1,0.1,0.3,0,0.4-0.1c0.5-0.3,0.7-0.7,0.8-1.2C49.1,40.3,49.2,40,49.2,39.7z M44.4,36.6
			C44.4,36.6,44.4,36.7,44.4,36.6c-0.4,0.1-0.8,0.1-1.3,0.1c-0.3,0-0.3,0.2-0.2,0.4s0.3,0.4,0.5,0.4c0.3,0.1,0.7,0.2,1.1,0.2
			c0.5,0,1,0,1.5,0c0.9,0.1,1.8,0.2,2.7,0.2c0.5,0,1.1-0.2,1.6,0.1c0.3,0.1,0.5-0.1,0.5-0.4c0-0.4-0.2-0.6-0.6-0.6
			C48.2,36.9,46.3,36.7,44.4,36.6z"/>
		<path class="st0" d="M22.1,30.3c-0.1-1.8,0-3.7,0.3-5.5c0.1-0.5,0.2-0.9,0.3-1.3c0.1-0.5,0.5-0.7,1-0.6c1.2,0.1,1.4,0.2,1.4,1.5
			c0,2.3-0.1,4.5-0.2,6.8c0,0.7-0.3,1.2-0.9,1.6c-0.3,0.2-0.5,0.4-0.8,0.6c-0.5,0.5-0.5,1-0.1,1.5c0.2,0.2,0.4,0.4,0.7,0.6
			c0.6,0.5,0.6,1.1,0.6,1.8c-0.1,2-0.2,3.9-0.3,5.9c-0.1,1-0.1,2-0.2,3c0,0.6-0.1,1.3-0.1,1.9c0,0.4-0.1,0.7-0.2,1
			c-0.2,0.4-0.5,0.5-0.8,0.2c-0.5-0.3-0.9-0.7-1.3-1.1c-0.2-0.2-0.2-0.4-0.2-0.4c0.3-1.2,0.2-2.4,0.1-3.7c-0.1-2,0.1-3.9,0.2-5.8
			c0.2-1.9,0.3-3.9,0.4-5.8C22.1,31.8,22.1,31,22.1,30.3z M22.7,37.3c-0.1,0.4-0.2,0.8-0.2,1.1c0,0.7,0.1,1.3,0,2
			c-0.2,1.7-0.2,3.4-0.1,5.1c0,0.2,0.1,0.4,0.1,0.5s0.2,0.1,0.3,0.2c0.1-0.1,0.2-0.2,0.2-0.3c0.1-0.4,0.2-0.9,0.2-1.3
			c0.1-2.1,0.1-4.3,0.2-6.4C23.4,37.6,23.4,37.6,22.7,37.3z M24.2,26.9C24.2,26.9,24.1,26.9,24.2,26.9c-0.1-0.7-0.1-1.4-0.1-2.2
			c0-0.3-0.1-0.4-0.4-0.4s-0.3,0.2-0.3,0.4c-0.2,2-0.3,4-0.5,5.9c0,0.4,0.2,0.4,0.4,0.5c0.3,0.1,0.4-0.1,0.4-0.4
			C24,29.5,24.1,28.2,24.2,26.9z"/>
		<path class="st0" d="M33.3,47.2c0.8,0.1,1.8,0.2,2.8,0.3c1,0.2,1.5,0.8,1.5,1.8s-0.4,2-0.8,2.9c0,0.1-0.1,0.2-0.2,0.2
			c-1.9,0.5-3.7,0.7-5.6,0c-0.2-0.1-0.4-0.2-0.6-0.3c-0.4-0.3-0.7-0.6-0.6-1.2c0.1-0.6,0-1.2,0-1.8c-0.1-1.1,0.5-1.6,1.6-1.7
			C31.9,47.3,32.5,47.3,33.3,47.2z M33.5,51.6c0.8-0.1,1.3-0.1,1.9-0.1c0.5,0,0.7-0.2,0.7-0.6c0.1-0.5,0-0.6-0.5-0.6
			c-1.3-0.1-2.5-0.2-3.8-0.2c-0.4,0-0.5,0.4-0.5,0.6c-0.1,0.4,0.1,0.7,0.4,0.7C32.3,51.4,33,51.5,33.5,51.6z M34.4,49.3
			c0.6-0.1,1-0.2,1.4-0.2c0.1,0,0.2-0.1,0.3-0.2c-0.1-0.1-0.1-0.2-0.2-0.2c-0.8-0.4-1.6-0.5-2.5-0.6c-0.5,0-0.9,0.1-1.4,0.2
			c-0.1,0-0.2,0.1-0.3,0.2c0.1,0.1,0.2,0.2,0.3,0.2C32.9,49,33.7,49.2,34.4,49.3z"/>
		<path class="st0" d="M27.4,58.6c0,0.4-0.4,0.9-1,1.1c-0.5,0.2-0.5,0.2-0.4,0.7c0.1,0.3,0.1,0.7,0.2,1c0,0.4-0.2,0.7-0.6,0.7
			c-0.3,0-0.4-0.1-0.4-0.3c-0.2-0.8-0.5-1.6-1.3-2c-0.3-0.2-0.7-0.4-1.1-0.5c-0.3-0.1-0.6,0-0.8,0.3c-0.2,0.3-0.6,0.5-0.9,0.7
			s-0.6,0-0.8-0.2c-0.1-0.1-0.1-0.3-0.1-0.4c0.7-1.2,1.3-2.4,2-3.7c0.2-0.3,0.4-0.4,0.7-0.3c1,0.2,1.9,0.4,2.9,0.6
			C26.8,56.6,27.4,57.5,27.4,58.6z M23.9,56.7c-0.2,0-0.3,0-0.4,0c-0.4,0.1-0.6,0.4-0.8,0.8c-0.1,0.4,0.2,0.5,0.4,0.6
			c0.7,0.5,1.5,0.7,2.3,0.7c0.2,0,0.4,0,0.5-0.2c0.1-0.3,0.3-0.7,0-0.9C25.4,57.2,24.7,56.8,23.9,56.7z"/>
		<path class="st0" d="M33,64c-0.8,0-1.5-0.4-2-0.9c0,0-0.1-0.1-0.1-0.2c-0.8-0.7-0.9-1.5-0.7-2.5c0.2-1,0.7-1.7,1.6-2.2
			c1.2-0.8,2.4-0.3,3.5,0.3c1.2,0.6,1.6,1.8,1.2,3.1c-0.4,1.2-1.3,1.9-2.4,2.3C33.7,63.9,33.4,63.9,33,64z M35.5,61.1
			c0-1.3-0.7-2.2-1.9-2.3c-1,0-1.9,0.9-2,2c0,1.2,0.9,2.1,2.1,2.1C34.6,62.9,35.6,62.4,35.5,61.1z"/>
		<path class="st0" d="M52.9,54.3c0.1,0.2,0.2,0.4,0.3,0.5c0.5,0.9,0.4,1.6-0.8,1.9c-0.1,0-0.2,0.2-0.3,0.3
			c-0.2,0.5-0.6,0.8-1.1,0.9c-0.5,0-1-0.1-1.2-0.7c-0.1-0.1-0.2-0.2-0.4-0.2c-1,0-1.4-1.2-0.8-1.9c0.1-0.1,0.2-0.4,0.2-0.5
			c-0.1-1,0.7-1.7,1.7-1.5c0.2,0,0.4,0,0.6,0C52,52.5,53,53.2,52.9,54.3z"/>
		<path class="st0" d="M18.8,53.5c0.1,0.4,0.2,0.8,0.4,1.2c0.3,0.6,0.1,1.1-0.6,1.4c-0.3,0.1-0.6,0.3-0.8,0.6
			c-0.5,0.8-1.5,0.7-1.9-0.2c-0.1-0.1-0.2-0.2-0.3-0.3c-0.2-0.2-0.5-0.3-0.7-0.5c-0.5-0.5-0.5-0.7-0.1-1.3c0.2-0.3,0.4-0.7,0.5-1.1
			c0.2-0.9,0.6-1.1,1.4-0.7c0.2,0.1,0.4,0,0.5,0s0.2-0.1,0.3-0.1C18.3,52.1,18.9,52.5,18.8,53.5z"/>
		<path class="st0" d="M62.6,26.4c0,0.6-0.4,1.1-0.9,1.3c-0.1,0-0.3,0-0.4-0.1c-0.3-0.2-0.5-0.1-0.6,0.2c-0.4,0.5-0.8,0.8-1.4,0.9
			c-0.5,0.1-1,0-1.3-0.5c-0.3-0.6-0.5-1.2-0.8-1.9c-0.1-0.2-0.1-0.4-0.2-0.6c-0.2-0.4,0-0.6,0.4-0.7c1.2-0.5,2.4-1.1,3.6-1.7
			c0.1,0,0.3,0,0.4,0.1C62.1,24.2,62.6,25.2,62.6,26.4z M58.7,25.6c-0.3,0-0.4,0.1-0.5,0.4c-0.1,0.6,0.3,1.3,0.9,1.4
			c0.2,0,0.5,0,0.6-0.1c0.1-0.2,0.2-0.5,0.2-0.7C59.9,26,59.2,25.6,58.7,25.6z M61.9,25.8c0-0.6-0.5-1.2-1-1.2
			c-0.3,0-0.6,0.3-0.6,0.6c0,0.4,0.5,1.2,0.8,1.2C61.8,26.3,61.9,26.3,61.9,25.8z"/>
		<path class="st0" d="M44.5,57.3c-0.2,0.1-0.3,0.1-0.4,0.2c-0.6,0.2-1.2,0.3-1.8,0.5c-1,0.4-1.5,1.4-1.2,2.3
			c0.2,0.5,0.6,0.8,1.1,0.9c0.6,0.1,1.2-0.1,1.6-0.7c0.2-0.3,0.3-0.7,0.5-1c0.1-0.2,0.4-0.6,0.6-0.6c0.3,0.1,0.5,0.3,0.7,0.6
			s0.2,0.6,0,0.9c-0.6,1-1.5,1.5-2.6,1.7s-2.2,0-3.1-0.7c-0.4-0.3-0.5-0.6-0.5-1.1c0.3-2.8,2.9-3.6,4.8-3.1
			C44.3,57.2,44.4,57.3,44.5,57.3z"/>
		<path class="st0" d="M39.4,5.2c0.8,0,1.6,0.3,2.3,0.8c0.8,0.7,0.8,1.6,0,2.2c-0.3,0.3-0.4,0.5-0.3,0.9c0.1,0.4,0.2,0.8,0.2,1.2
			c0,0.5-0.3,0.8-0.8,0.6c-0.1,0-0.2-0.2-0.2-0.3c-0.1-0.4-0.1-0.8-0.1-1.2c-0.2-0.6-0.6-0.9-1.2-0.7c-0.1,0-0.2,0.2-0.3,0.3
			c-0.1,0.3-0.2,0.6-0.3,1s-0.3,0.4-0.8,0.3c-0.3-0.1-0.4-0.2-0.3-0.6c0.2-1,0.5-2,0.7-3c0.1-0.3,0.1-0.6,0.2-0.9
			C38.7,5.2,38.7,5.2,39.4,5.2z M40.7,8.2c0.1-0.1,0.4-0.2,0.4-0.3c0.2-0.6-0.3-1.3-0.9-1.4c-0.6-0.1-1,0.4-0.8,1
			C39.6,8.1,40.2,7.9,40.7,8.2z"/>
		<path class="st0" d="M5.6,27c0.1-0.1,0.3-0.2,0.4-0.2c0.5-0.2,1-0.4,1.5-0.6c0.2-0.1,0.4-0.3,0.6-0.5c0.4-0.4,0.3-0.8-0.2-0.9
			c-0.3-0.1-0.7-0.2-1-0.3c-0.2-0.1-0.4-0.2-0.4-0.3c0-0.2,0.1-0.5,0.2-0.7c0-0.1,0.3,0,0.5,0c0.9,0.4,1.8,0.8,2.7,1.2
			c0.4,0.2,0.8,0.4,1.1,0.7c0.1,0.1,0.2,0.2,0.4,0.3c-0.3,0.1-0.5,0.2-0.8,0.3c-0.5,0.2-1.1,0.3-1.6,0.4c-0.3,0.1-0.7,0.2-0.6,0.6
			c0,0.2,0.4,0.4,0.7,0.5s0.6,0.2,0.9,0.3c0.3,0.1,0.5,0.3,0.3,0.6c-0.1,0.3-0.2,0.5-0.7,0.4c-1.4-0.3-2.7-0.9-4-1.5
			C5.7,27.1,5.7,27.1,5.6,27z"/>
		<path class="st0" d="M63.2,32.8c-0.1,0.2-0.1,0.6-0.3,0.9c-0.2,0.5-0.6,0.7-1.1,0.5c-0.7-0.4-1.3,0-1.9,0.3
			c-0.2,0.2-0.4,0.2-0.7,0c-0.5-0.4-0.5-0.6,0-1c0.2-0.2,0.5-0.3,0.7-0.5c0.2-0.1,0.2-0.3,0.2-0.6l0,0c-0.3-0.7-0.3-0.7-1-0.5
			c-0.5,0.1-1-0.4-0.9-0.9c0-0.1,0.2-0.2,0.3-0.2c0.7-0.1,1.5-0.3,2.2-0.4c0.4-0.1,0.9-0.2,1.3-0.3c0.3-0.1,0.4,0.1,0.5,0.2
			C63,30.8,63.3,31.8,63.2,32.8z M62.4,32.8c-0.1-0.3-0.1-0.6-0.2-0.8c-0.1-0.2-0.2-0.5-0.4-0.7s-0.6-0.1-0.7,0.2
			c-0.1,0.4,0.2,1.4,0.5,1.6c0.1,0.1,0.4,0.2,0.5,0.1C62.3,33.2,62.3,32.9,62.4,32.8z"/>
		<path class="st0" d="M61.7,43.2c-0.1,0.6-0.2,1.2-0.4,1.7c-0.3,0.8-1.3,1.2-2,0.9c-0.2-0.1-0.4-0.2-0.5-0.4
			c-0.2-0.4-0.5-0.5-1-0.4c-0.2,0.1-0.5,0.1-0.7,0.1c-0.3,0-0.4-0.1-0.5-0.4c-0.2-0.7,0-1,0.7-1.1c0.3,0,0.6-0.1,0.9-0.1
			c0.3,0,0.6,0,0.6-0.3s0-0.6-0.1-0.9c-0.1-0.1-0.3-0.2-0.4-0.3c-0.2-0.1-0.5-0.1-0.4-0.4c0-0.3,0.2-0.6,0.5-0.7
			c0.3,0,0.6-0.1,0.8,0c0.8,0.3,1.6,0.7,2.4,1c0.1,0,0.1,0.2,0.2,0.3c0,0.2,0,0.5,0,0.7C61.6,43.2,61.6,43.2,61.7,43.2z M59.7,44.8
			c0.8,0,1.5-0.8,1.4-1.6c0-0.3-0.1-0.4-0.4-0.5c-0.6-0.1-1,0.1-1.3,0.6c-0.1,0.2-0.2,0.5-0.2,0.7C59.1,44.7,59.2,44.8,59.7,44.8z"
			/>
		<path class="st0" d="M15.7,32.3c0-0.6,0-1.2,0-1.7c0.1-0.8,0.2-1.6,0.3-2.4c0-0.1,0-0.2,0.1-0.3c0.7-0.6,1-1.4,1.3-2.2
			c0.2-0.3,0.3-0.7,0.5-1c0.3-0.4,0.5-0.7,0.4-1.2c0-0.1,0-0.2,0.1-0.3c0.6-0.3,0.7-0.8,0.8-1.3c0-0.2,0-0.4,0.3-0.4
			s0.3,0.2,0.3,0.4c0.2,1.1,0.1,2.1-0.2,3.2c0,0.1-0.1,0.2-0.2,0.3c-0.1-0.1-0.2-0.1-0.2-0.2c-0.2-0.4-0.2-0.4-0.5-0.1
			c-0.6,0.6-0.9,1.4-1.1,2.2c-0.3,0.8-0.5,1.5-1.1,2.2c-0.1,0.1-0.1,0.4-0.2,0.6c-0.2,0.7-0.3,1.3-0.5,2
			C15.8,32.2,15.7,32.2,15.7,32.3C15.8,32.3,15.8,32.3,15.7,32.3z"/>
		<path class="st0" d="M6.6,44.9c0.2-0.3,0.5-0.6,0.7-1c0.8-1,1.6-2,2.7-2.7c0.2-0.1,0.4-0.3,0.6-0.1c0.2,0.3,0.2,0.5,0,0.7
			c-0.1,0.1-0.2,0.2-0.4,0.3c-0.3,0.3-0.3,0.5,0,0.8c0.2,0.3,0.5,0.5,0.7,0.7c0.2,0.3,0.4,0.6,0.9,0.6c0.1,0,0.4,0.3,0.4,0.4
			c0,0.1-0.2,0.4-0.3,0.4c-0.6,0.4-1.3,0.4-2,0.3C8.8,45.2,7.8,45,6.6,44.9C6.6,45,6.6,45,6.6,44.9z M9.3,44.5L9.3,44.5
			c0.2,0,0.4-0.1,0.4-0.2c0.1-0.2,0.2-0.5-0.1-0.7s-0.9,0-1.1,0.3c-0.1,0.4,0,0.5,0.4,0.5C9,44.4,9.2,44.5,9.3,44.5z"/>
		<path class="st0" d="M20.3,9.7c-0.4,0.1-0.8,0.2-1.2,0.3c-0.6,0.3-0.9,1.1-0.8,2c0.1,0.7,0.6,1.3,1.2,1.4c0.3,0,0.6,0,0.9-0.2
			c0.1-0.1,0.2-0.3,0.2-0.5c0-0.3-0.1-0.5-0.2-0.8s0.1-0.4,0.3-0.4c0.6,0,1,0.5,1,1.1c0,1.3-1.1,2.2-2.4,2.1c-0.3,0-0.6-0.2-0.9-0.4
			c-0.9-0.8-1.5-1.7-1.5-2.9c0-1.1,0.8-1.9,1.9-2C19.5,9.4,19.9,9.4,20.3,9.7z"/>
		<path class="st0" d="M28,6.3c0.3,0.2,0.5,0.4,0.8,0.6c0.4,0.3,0.8,0.6,1.2,0.8c0.3,0.2,0.5,0.1,0.6-0.3c0.1-0.5,0.1-1,0.2-1.6
			c0-0.2,0.2-0.5,0.3-0.5c0.2,0,0.5,0.1,0.7,0.2c0.1,0,0.1,0.2,0.1,0.3c-0.1,1.3-0.1,2.5-0.2,3.8c0,0.1,0,0.2,0,0.3
			c0,0,0,0.1-0.1,0.2c-0.3-0.2-0.5-0.4-0.7-0.6c-0.4-0.3-0.7-0.6-1.1-0.8c-0.1-0.1-0.4-0.2-0.5-0.1c-0.1,0.1-0.1,0.3-0.1,0.5
			c0,0.3,0,0.7,0.1,1c0,0.4-0.2,0.5-0.7,0.5c-0.4,0-0.5-0.1-0.5-0.5C28.1,9.1,28,8,28,7C28,6.8,28,6.6,28,6.3
			C27.9,6.4,28,6.3,28,6.3z"/>
		<path class="st0" d="M7.5,33.6c-0.8-0.1-1.5-0.2-2.1-0.7c-1.4-1-0.8-2.4,0.2-3c0.6-0.4,1.2-0.5,1.9-0.4c1,0.1,1.9,0.5,2.5,1.4
			c0.4,0.5,0.3,0.9,0,1.4c-0.5,0.8-1.2,1.1-2,1.2C7.8,33.6,7.6,33.6,7.5,33.6z M7.9,30.1c-0.5,0.1-0.9,0.2-1.3,0.3
			c-0.9,0.3-0.8,1.3-0.3,1.7c0.6,0.5,1.7,0.7,2.4,0.3s0.9-1.3,0.2-1.8C8.7,30.4,8.3,30.3,7.9,30.1z"/>
		<path class="st0" d="M59.8,39.8c-0.5,0-1-0.1-1.5-0.1c-0.3,0-0.4-0.2-0.3-0.5c0-0.3,0.2-0.3,0.4-0.2c0.6,0.2,0.9,0,1-0.5
			c0.2-0.6-0.1-1.2-0.7-1.3c-0.4-0.1-0.5-0.2-0.4-0.7c0-0.4,0.3-0.4,0.5-0.4c1.3,0.1,2.6,0.4,3.6,1.2c0.2,0.2,0.4,0.4,0.5,0.6
			c0.2,0.5,0.1,1-0.4,1.3c-0.4,0.2-0.8,0.4-1.3,0.4C60.9,39.8,60.3,39.8,59.8,39.8z M61.2,39c0.3-0.1,0.6-0.2,0.9-0.4
			c0.2-0.1,0.2-0.4,0-0.5c-0.3-0.2-0.7-0.3-1.1-0.4c-0.5,0-0.8,0.5-0.5,0.9C60.6,38.8,60.9,38.9,61.2,39z"/>
		<path class="st0" d="M9.2,19.4c1.5,0,2.8,0.5,4,1.2c0.1,0.1,0.1,0.2,0.2,0.2c-0.1,0.1-0.2,0.2-0.3,0.2c-0.2,0-0.4,0-0.6,0
			c-0.4,0-0.6,0.2-0.7,0.6c-0.1,0.6,0.1,1,0.4,1.5c0.3,0.3,0.2,0.4-0.2,0.6c-0.4,0.1-0.7,0-1-0.1c-0.8-0.5-1.5-1.1-2-1.9
			c-0.3-0.5-0.6-1-0.9-1.6c-0.2-0.4-0.1-0.6,0.4-0.6C8.9,19.4,9,19.4,9.2,19.4z M11.3,20.9c0-0.1-0.1-0.3-0.2-0.3
			c-0.2-0.1-0.5-0.3-0.8-0.3c-0.1,0-0.3,0-0.4,0c-0.1,0.1-0.2,0.3-0.1,0.5c0.1,0.2,0.2,0.5,0.4,0.7s0.5,0.4,0.6,0.3
			c0.2-0.1,0.3-0.4,0.4-0.6C11.3,21.1,11.3,21,11.3,20.9z"/>
		<path class="st0" d="M12.6,46.5c-0.1,0.4-0.1,0.7-0.2,1c-0.1,0.5-0.2,0.9-0.2,1.4s0.1,0.5,0.5,0.3c0.3-0.1,0.6-0.3,1-0.4
			c0.2-0.1,0.4-0.1,0.5,0.2s0.2,0.5-0.2,0.7c-1.1,0.6-2.2,1.3-3.4,1.9c0,0-0.1,0-0.2,0.1c0.2-0.5,0.4-1,0.5-1.4
			c0.1-0.6,0.3-1.1,0.2-1.7c0-0.6-0.2-0.7-0.8-0.4C9.9,48.5,9.4,48.7,9,49c-0.3,0.1-0.8-0.2-0.8-0.5c0-0.1,0.1-0.2,0.3-0.3
			c0.8-0.4,1.5-0.7,2.3-1.1C11.4,46.8,11.9,46.7,12.6,46.5z"/>
		<path class="st0" d="M25.4,7c-0.5,0.3-1,0.5-1.4,0.8c-0.4,0.2-0.5,0.5-0.3,1c0.1,0.4,0.3,0.5,0.7,0.4c0.5-0.1,1-0.3,1.5-0.4
			c0.1,0,0.2,0,0.4-0.1c0,0,0,0.1,0.1,0.1c-0.1,0.1-0.2,0.3-0.4,0.3c-0.3,0.2-0.6,0.3-0.8,0.5c-0.2,0.2-0.5,0.4-0.6,0.7
			c-0.2,0.3-0.1,0.6,0.3,0.6c0.6,0.1,1.1,0,1.7-0.2c0.1,0,0.2-0.1,0.4-0.1c-0.1,0.1-0.1,0.3-0.2,0.4c-1,1.2-2.5,1.1-3.4-0.2
			c-0.5-0.7-0.7-1.6-0.8-2.5c0-0.1,0-0.3,0.1-0.4c0.6-0.6,1.6-0.9,2.6-1L25.4,7z"/>
		<path class="st0" d="M45.5,52.5c-0.5,0.4-1,0.7-1.7,0.9c-1.3,0.4-2.5,0.9-3.7,1.3c-1.7,0.6-3.6,0.7-5.4,0.7
			c-1.8,0-3.5-0.2-5.2-0.7c-0.2-0.1-0.4-0.2-0.6-0.2v-0.1c0.2,0,0.5,0.1,0.7,0.1c3.6,0.6,7.1,0.5,10.6-0.5c0.6-0.2,1.2-0.3,1.9-0.5
			c0.8-0.2,1.6-0.5,2.3-0.7c0.3-0.1,0.7-0.3,1-0.4C45.5,52.4,45.5,52.5,45.5,52.5z"/>
		<path class="st0" d="M56.3,51.4c0.1-0.4,0.1-0.7,0.2-1c0.1-0.6,0-1.1-0.6-1.5c-0.4-0.3-0.8-0.6-1.1-0.9c-0.4-0.3-0.4-0.6-0.2-0.9
			c0.2-0.3,0.5-0.3,0.9-0.1c0.4,0.3,0.8,0.7,1.2,0.9c0.2,0.1,0.4,0.2,0.6,0.1c0.5-0.1,1-0.3,1.5-0.5c0.3-0.1,0.4,0,0.5,0.2
			c0.3,0.7,0.2,1-0.6,1.2c-0.1,0-0.2,0.1-0.4,0.1c-0.8,0.1-0.8,0.1-0.8,0.9c0,0.4,0,0.9-0.1,1.3c-0.1,0.4-0.3,0.5-0.7,0.4
			C56.5,51.7,56.4,51.5,56.3,51.4z"/>
		<path class="st0" d="M45.9,7.5C46,7.9,46,8.1,46.1,8.4c0.1,1,0.2,2.1,0.2,3.1c0,0.3-0.2,0.6-0.3,0.9c-0.1,0.2-0.3,0.2-0.3-0.1
			c0-0.1-0.1-0.3-0.1-0.4c0.1-0.5-0.2-0.8-0.6-1c-0.1-0.1-0.2-0.1-0.4-0.1c-0.4-0.2-0.6-0.1-0.7,0.3c-0.3,0.5-0.8,0.6-1.2,0.2
			c-0.2-0.2-0.1-0.3,0-0.5c0.5-0.9,1.2-1.7,2-2.3C45,8.1,45.4,7.8,45.9,7.5z M45.6,10.4c0-0.3,0-0.6,0-0.9c0-0.2-0.2-0.5-0.3-0.5
			c-0.2,0-0.4,0.1-0.6,0.3c-0.1,0.1-0.2,0.3-0.2,0.4c0,0.1,0,0.2,0.1,0.3C44.8,10.1,45.1,10.2,45.6,10.4z"/>
		<path class="st0" d="M32.4,13.1c0.7-0.4,1.4-0.5,2.2-0.5c3.2-0.1,6.2,0.8,9.1,2.2c2.5,1.2,4.5,2.8,6.5,4.7
			c0.3,0.3,0.5,0.6,0.8,0.9c0,0,0,0-0.1,0.1c-0.2-0.1-0.4-0.3-0.5-0.4c-1.3-1.1-2.6-2.2-3.9-3.3c-0.2-0.1-0.4-0.1-0.6-0.2
			c-0.2-0.1-0.5-0.2-0.7-0.3c-0.6-0.5-1.3-0.8-2.1-1.1c-0.9-0.3-1.8-0.7-2.7-1c-0.1,0-0.2-0.1-0.2-0.1c-0.8-0.7-1.7-0.7-2.7-0.8
			c-1.6-0.2-3.2-0.2-4.9,0C32.6,13.2,32.5,13.1,32.4,13.1z"/>
		<path class="st0" d="M37.1,5.9C36.8,6,36.5,6,36.2,6.1c-0.3,0-0.5,0.1-0.5,0.4c-0.1,0.4-0.1,0.9-0.2,1.3c0,0.6-0.1,1.2-0.1,1.7
			c0,0.4-0.2,0.5-0.6,0.5c-0.1,0-0.3-0.1-0.4-0.1c-0.2-0.1-0.3-0.2-0.3-0.4c0.2-0.8,0.3-1.6,0.4-2.4c0-0.1,0.1-0.3,0.1-0.4
			c0-0.3-0.1-0.4-0.4-0.4c-0.1,0-0.2,0-0.3,0c-0.3,0-0.6,0.1-0.7-0.3c-0.1-0.4,0.1-0.8,0.5-0.9C33.9,5,34.2,5,34.4,5
			c0.9,0,1.8,0.2,2.7,0.6l0.1,0.1C37.1,5.9,37.1,5.9,37.1,5.9z"/>
		<path class="st0" d="M16.4,17.3c-0.2,0.7-0.5,1.3-1.1,1.8c-0.4,0.4-1,0.4-1.5,0.3c-0.7-0.2-1.3-0.7-1.8-1.2
			c-0.4-0.4-0.8-0.8-1.2-1.2c-0.2-0.2-0.4-0.3-0.2-0.6c0.2-0.3,0.5-0.5,0.8-0.3c0.3,0.1,0.5,0.3,0.7,0.5c0.5,0.5,0.9,1,1.4,1.5
			c0.6,0.6,0.8,0.6,1.5,0.1c0.3-0.2,0.6-0.5,0.9-0.7C16.1,17.2,16.2,17.2,16.4,17.3C16.3,17.2,16.3,17.2,16.4,17.3z"/>
		<path class="st0" d="M5.8,37.8c0.2,0.3,0.3,0.6,0.4,0.8C6.4,38.9,6.6,39,6.9,39c0.9-0.2,1.7-0.4,2.6-0.5c0.4-0.1,0.5,0.2,0.7,0.5
			c0.1,0.3,0,0.5-0.2,0.6c-0.5,0.1-1,0.2-1.5,0.3c-0.4,0-0.8,0-1.2,0.1s-0.5,0.2-0.4,0.6c0,0.2,0.1,0.3,0.1,0.5
			c0.1,0.3,0.1,0.5-0.2,0.6c-0.3,0.1-0.5,0.2-0.8-0.1c-0.4-0.3-0.5-0.7-0.5-1.2C5.6,39.7,5.7,38.8,5.8,37.8z"/>
		<path class="st0" d="M16,23.5c0.2-0.4,0.4-0.8,0.6-1.1c1-1.8,2.3-3.3,4-4.4c0.4-0.3,0.8-0.6,1.2-0.9c0.1-0.1,0.2-0.2,0.3-0.3
			c0.4-0.5,1-0.4,1.4-0.9c0.3-0.4,1-0.6,1.5-0.9c0.5-0.3,1.1-0.5,1.6-0.7s1.1-0.4,1.7-0.5c0.6-0.2,1.2-0.2,1.7-0.4
			c0.2,0,0.3,0,0.5,0.1c-0.1,0-0.2,0.1-0.3,0.1c-2.9,0.8-5.7,2-8.1,3.9c-0.8,0.7-1.7,1.1-2.5,1.8c-1.3,1-2.2,2.4-3.1,3.8
			C16.4,23.1,16.3,23.3,16,23.5C16.1,23.5,16,23.5,16,23.5z"/>
		<path class="st0" d="M55.5,20.6c-0.6-0.1-0.9-0.4-1.2-0.7c-0.4-0.4-0.7-0.9-1-1.4c-0.1-0.1,0-0.4,0.1-0.5c0.4-0.5,0.8-0.9,1.3-1.3
			c0.5-0.5,1.2-0.9,1.7-1.4c0.2-0.1,0.3-0.1,0.4,0c0.3,0.3,0.3,0.7,0,1.1c-0.3,0.3-0.7,0.6-1,0.9s-0.7,0.5-1.1,0.7
			c-0.3,0.2-0.3,0.4-0.2,0.7c0.3,0.5,0.6,1.1,0.9,1.6C55.4,20.4,55.4,20.5,55.5,20.6z"/>
		<path class="st0" d="M50.3,14.6c-1.3-0.3-2.4-0.7-3-2c-0.1-0.1-0.1-0.3,0-0.4c0.4-0.7,0.8-1.4,1.2-2c0.4-0.5,0.9-0.6,1.4-0.3
			c0.2,0.2,0.3,0.4,0.1,0.6c-0.2,0.3-0.4,0.5-0.6,0.7c-0.1,0.2-0.3,0.3-0.4,0.5c-0.5,0.7-0.5,1.3,0.3,1.9c0.3,0.3,0.7,0.5,1,0.8
			C50.3,14.4,50.4,14.5,50.3,14.6C50.4,14.6,50.4,14.6,50.3,14.6z"/>
		<path class="st0" d="M13.3,35.2c0.1,0.2,0.2,0.4,0.2,0.6c0.3,2.4,0.8,4.7,1.8,6.9c1,2.5,2.5,4.7,4.3,6.6c0.1,0.1,0.1,0.1,0.2,0.2
			c0,0,0,0.1,0,0.2c-0.2-0.1-0.5-0.2-0.6-0.3c-0.3-0.3-0.6-0.6-1-0.9c-1.1-1-1.4-2.4-2-3.6c-0.7-1.3-1.3-2.6-1.9-3.9
			c-0.8-1.7-1.1-3.6-1.2-5.4c0-0.1,0-0.1,0-0.2C13.3,35.2,13.3,35.2,13.3,35.2z"/>
		<path class="st0" d="M60,20.8c-0.1,0.1-0.1,0.3-0.3,0.4c-0.2,0.2-0.5,0.3-0.7,0.4c-0.7,0.4-1.4,0.7-2.1,1.1
			c-0.2,0.1-0.4,0.2-0.6,0.2c-0.1,0-0.3-0.1-0.4-0.1c0-0.1,0-0.3,0.1-0.4c0.8-0.9,1.7-1.6,2.8-2.1c0.1,0,0.2-0.1,0.3-0.1
			C59.6,20,59.9,20.2,60,20.8z"/>
		<path class="st0" d="M13.3,34.7c-0.8-3.2,0.2-6.1,1.6-8.9C13.9,28.7,13.9,31.8,13.3,34.7z"/>
		<path class="st0" d="M10,35.8c-0.3,0.1-0.6,0.3-0.9,0.3c-0.7,0.1-1.4,0-2.1,0c-0.5,0-1.1,0-1.6,0.1c-0.3,0-0.4-0.1-0.5-0.4
			c-0.1-0.6,0-0.7,0.5-0.8c1.4-0.1,2.8,0,4.2,0.3c0.1,0,0.2,0.1,0.3,0.1C9.9,35.7,10,35.8,10,35.8z"/>
		<path class="st0" d="M54.7,41.5c0.1-0.6,0.3-1.2,0.4-1.8c0.3-1.2,0.5-2.3,0.7-3.5c0.2-1.3-0.1-2.5-0.4-3.7
			c-0.1-0.6-0.1-1.2-0.1-1.8c0-0.1,0.1-0.3,0.1-0.5C56.6,32.1,56.3,39.5,54.7,41.5z"/>
		<path class="st0" d="M3,27c-0.4,3.7-0.9,7.3-0.5,11C1.6,36.4,1.9,29.8,3,27z"/>
		<path class="st0" d="M26.3,53.9c-0.3-0.1-0.7-0.2-1-0.4c-1.1-0.9-2.4-1.4-3.6-2c-0.6-0.3-1.1-0.8-1.3-1.2c0.4,0.2,0.8,0.5,1.2,0.7
			c0.9,0.5,1.8,0.9,2.7,1.5c0.5,0.3,0.9,0.6,1.4,1C25.9,53.6,26.1,53.8,26.3,53.9C26.4,53.9,26.3,53.9,26.3,53.9z"/>
		<path class="st0" d="M46.6,52c2.1-1.7,4.1-3.4,5.7-5.6C50.9,48.8,49,50.6,46.6,52z"/>
		<path class="st0" d="M3.7,43.5c0.6,1.7,1.9,3,2.3,4.8C4.7,46.9,4.1,45.2,3.7,43.5z"/>
		<path class="st0" d="M31.6,2.1c1.5-0.3,3-0.4,4.5-0.3v0.1c-1.5,0.1-3,0.2-4.5,0.4C31.6,2.2,31.6,2.1,31.6,2.1z"/>
		<path class="st0" d="M38.4,2c1.4,0.1,2.6,0.6,4,0.9V3c-0.2,0-0.5,0-0.7,0c-1.1-0.3-2.2-0.6-3.3-0.8C38.4,2.1,38.4,2.1,38.4,2z"/>
		<path class="st0" d="M21.3,4.8c1-0.4,2.1-0.9,3.1-1.3c0,0,0,0.1,0.1,0.1c-1,0.6-2,1.1-3.1,1.3C21.3,4.9,21.3,4.8,21.3,4.8z"/>
		<path class="st0" d="M53.2,44.9c0.2-1.1,0.7-1.9,1.2-2.8C54.5,42.6,53.8,44.2,53.2,44.9z"/>
		<path class="st0" d="M4.6,21.8c-0.3,1-0.5,2-0.8,3C3.5,24.3,4,22.4,4.6,21.8z"/>
		<path class="st0" d="M43.8,3.3c1.2,0,2.2,0.5,3.2,1v0.1C45.9,4.1,44.8,3.7,43.8,3.3z"/>
		<path class="st0" d="M55.3,29.6c-0.3-0.8-0.8-1.4-0.8-2.2C54.9,27.6,55.3,28.8,55.3,29.6z"/>
		<path class="st0" d="M53.9,25.3c-0.4-0.5-0.9-1-0.9-1.8l0.1-0.1c0.3,0.6,0.6,1.2,0.9,1.8C54,25.3,54,25.3,53.9,25.3z"/>
		<path class="st0" d="M30.3,2.2c-0.7,0.2-1.4,0.3-2.1,0.4V2.5C28.9,2.1,29.6,2.1,30.3,2.2L30.3,2.2z"/>
		<path class="st0" d="M51.8,21.6c0.2,0.3,0.3,0.5,0.5,0.8l-0.1,0.1c-0.2-0.2-0.4-0.5-0.6-0.7C51.7,21.7,51.8,21.6,51.8,21.6z"/>
		<path class="st0" d="M54.2,25.9c0.1,0.3,0.2,0.6,0.3,0.9c-0.1,0-0.1,0-0.2,0.1c-0.1-0.3-0.2-0.6-0.3-0.9
			C54.1,26,54.2,25.9,54.2,25.9z"/>
		<path class="st0" d="M2.6,39c0.1,0.3,0.1,0.5,0.2,0.8c-0.1,0-0.1,0-0.2,0c-0.1-0.3-0.2-0.5-0.2-0.8C2.5,39,2.6,39,2.6,39z"/>
		<path class="st0" d="M48.7,5.1c0.2,0.1,0.5,0.3,0.7,0.4l-0.1,0.1C49.1,5.5,48.9,5.3,48.7,5.1C48.7,5.2,48.7,5.1,48.7,5.1z"/>
		<path class="st0" d="M25.7,3.3c-0.2,0-0.4,0-0.6,0.1c0-0.1,0-0.1,0-0.2c0.2,0,0.4,0,0.6-0.1C25.7,3.2,25.7,3.3,25.7,3.3z"/>
	</g>
</g>
</svg>
