<?xml version="1.0" encoding="utf-8"?>
<!-- Generator: Adobe Illustrator 25.4.1, SVG Export Plug-In . SVG Version: 6.00 Build 0)  -->
<svg version="1.1" id="圖層_1" xmlns="http://www.w3.org/2000/svg" xmlns:xlink="http://www.w3.org/1999/xlink" x="0px" y="0px"
	 viewBox="0 0 404.1 68.7" style="enable-background:new 0 0 404.1 68.7;" xml:space="preserve">
<style type="text/css">
	.st0{fill:#B32A25;}
	.st1{fill:#313131;}
</style>
<g>
	<path class="st0" d="M91.3,53.9h9.1v1.8H78.7v-1.8h9v-4.1h-6.3V48h6.3v-3.7h-5v-0.6c-1.4,0.8-3,1.5-4.5,2l-0.6-1.3
		c4.6-2.4,7.5-5.9,9-9.1h-5.2v-1.8h9.8c1.7,3.6,5.3,6.6,10.6,8.5l-1.9,3.4c-1.1-0.5-2.2-1.1-3.2-2v0.8h-5.3V48h6.3v1.8h-6.3V53.9z
		 M95.4,42.6c-2.3-1.9-4.3-4.3-5.3-7c-1.1,2.7-3.2,5.1-5.9,7H95.4z"/>
	<path class="st0" d="M127.4,33.4v23.2h-3.1v-1.2h-14.8v1.2h-3.1V33.4H127.4z M124.2,35h-3.4c0.8,0.6,1.9,1.8,2.5,2.7l-1.1,0.7h1.6
		V40h-4.4c0.1,2,0.2,3.7,0.4,5.1c0.5-1.2,0.9-2.6,1.3-4.2l2.3,0.8c-0.6,2.4-1.5,4.6-2.9,6.5c0.3,0.9,0.7,1.5,1.2,1.7
		c0.4,0.2,0.5-0.6,0.6-3.2h1.2c0.9,5.3-0.1,6.7-1.8,6.3c-1.3-0.3-2.2-1.2-2.9-2.7c-1.3,1.3-2.9,2.4-4.8,3.1l-0.6-1.1
		c2-1.2,3.5-2.5,4.6-4c-0.7-2.3-1-5.3-1.1-8.3h-7v-1.6h7c0-1-0.1-1.9-0.1-2.9h2.5c0,1,0,1.9,0,2.9h1.8c-0.4-1-1-2.1-1.4-2.9l0.9-0.6
		h-11.2v18.8h14.8V35z M110.3,51.8l-0.8-2.5c2.6-0.4,5.4-1.2,7.4-1.9l0.4,1.1C115.4,49.8,112.6,51.2,110.3,51.8z M110.4,41.4h5.9
		v5.8h-5.9V41.4z M112.6,45.7h1.6v-2.9h-1.6V45.7z"/>
	<path class="st0" d="M133.8,33.5h20.6v23.1h-3.1v-1.1h-14.4v1.2h-3.1V33.5z M151.3,53.8V35.1h-14.4v18.8H151.3z M137.5,41.4h5.1
		v-1.2h-3.7v-4.2h10.2v4.2h-3.5v1.2h5.1v1.5h-13.2V41.4z M138.2,43.9H150v8.8h-11.9V43.9z M147.5,51.2v-5.9h-6.8v5.9H147.5z
		 M141.6,46.2h4.9v4h-4.9V46.2z M146.4,38.9v-1.5h-4.8v1.5H146.4z M144.7,49v-1.7h-1.3V49H144.7z"/>
	<path class="st0" d="M173.2,41.4v1.1h7.5V44h-7.5v1.2h9.3v1.6h-22v-1.6h9.3V44h-7.7v-1.5h7.7v-1.1h-7v-1.5h7v-1.3h-9.5V37h9.5v-1.2
		h-6.7v-1.5h6.7v-2h3.4v2h6.9V37h2.8v1.6h-2.8v2.8H173.2z M163.2,48h16.5v8.5h-3.3v-1.1h-9.9v1.2h-3.3V48z M166.5,50.9h9.9v-1.5
		h-9.9V50.9z M166.5,53.9h9.9v-1.5h-9.9V53.9z M173.2,37h3.7v-1.2h-3.7V37z M173.2,39.9h3.7v-1.3h-3.7V39.9z"/>
	<path class="st0" d="M201.4,45.9v2.4h7.6v8.1h-2.9v-1.8h-4.7v2h-3v-16h-1.1v-2.5l-1.5,1.1c-0.6-1.2-1.4-2.4-2.2-3.7
		c-0.3,0.4-0.5,0.8-0.8,1.2c0.8,0.7,1.6,1.6,2.2,2.4l-1.8,1.1h3.9v8.1H192v4.1c0.8-0.2,1.5-0.4,2.2-0.6c-0.3-0.7-0.7-1.5-1-2.1
		l1.1-0.7c1.5,1.5,3.1,3.8,3.9,5.4l-2.6,1.3c-0.2-0.8-0.5-1.7-0.8-2.5c-2,1.4-4.5,2.3-6.5,2.9l-0.9-3c0.5-0.1,1.1-0.1,1.7-0.2V40.8
		c-0.4,0.4-0.9,0.7-1.4,1l-0.8-1c2.2-2.4,3.7-5.3,4.7-8.5l3.1,0.9c-0.1,0.3-0.3,0.6-0.4,1c1.1,0.8,2.2,1.7,3,2.6V36h5.9
		c-0.9-0.9-1.8-1.7-2.9-2.5l0.6-1.1c1.7,0.5,3.4,1.3,5,2.3l-1,1.4h4.9v4.6h-1.4v5.3H201.4z M191.9,38c-0.7,0.8-1.4,1.6-2.2,2.3h3.2
		C192.7,39.5,192.3,38.7,191.9,38z M194.3,41.8H192v1.7h2.4V41.8z M194.3,45H192v1.8h2.4V45z M207,40.1v-2.5h-6.8v2.5H207z
		 M205.6,41.6h-4.1v2.8h4.1V41.6z M201.4,49.8v3.2h4.7v-3.2H201.4z"/>
	<path class="st1" d="M238,52.9l-2.2,3.7c-3.5-1.7-7.5-6.4-8.9-13.4c-1.6,7.3-6,11.8-12.1,13.7l-0.6-1.3c5-2.7,8.3-6.6,9.4-14.4
		h-8.5v-1.8h8.7c0.1-0.5,0.1-0.9,0.1-1.4c0.1-1.6,0.1-3.6,0.1-5.4h3.6c0,2.2-0.1,4.2-0.2,6.1c0,0.2,0,0.4-0.1,0.6h9.6v1.8h-9
		C230,47.6,233.6,50.9,238,52.9z"/>
	<path class="st1" d="M265.3,53.7l-2.3,3c-1.4-1.2-2.7-2.7-3.7-4.5c-1.3,1.8-2.9,3.2-5,4.4l-0.7-1c2.1-1.7,3.5-3.6,4.5-5.8
		c-0.8-2.1-1.4-4.5-1.6-7.1c-0.4,0.8-0.9,1.5-1.5,2.1l-0.6-0.4v2.4h-5.3l0.4,0.1c-0.2,0.4-0.4,0.8-0.6,1.2h6.9v1.5h-2.1
		c-0.3,1.2-0.8,2.2-1.5,3.1c0.9,0.3,1.7,0.7,2.4,1l-1.6,2.5c-1-0.7-1.9-1.2-2.7-1.7c-2.1,1.4-4.9,2.1-7.8,2.3l-0.2-1.2
		c2.3-0.3,4.4-1,5.9-2.2c-0.5-0.3-1.1-0.5-1.7-0.8c-0.3,0.6-0.7,1.1-0.9,1.5l-2.4-1.1c0.5-0.7,1.2-2,2-3.4h-3V48h3.8
		c0.2-0.5,0.4-0.9,0.6-1.3h-3.4v-4.4h4.3v-1h-3.9v-2.7h-1.6v-1.5h1.6v-2.7h3.9v-1.8h2.9v1.8h4v2.7h1.5v1.5h-1.5v2.7h-4v1h4.2v1
		c1.2-3,1.8-7.1,2.2-10.7l3.4,0.4c-0.3,1.6-0.7,3.3-1.3,5h5.8v1.6H263c-0.2,3.8-0.8,7.2-2.1,10C262.2,51.2,263.7,52.5,265.3,53.7z
		 M245.8,45.2h1.6v-1.5h-1.6V45.2z M246,37.1h1.4v-1.2H246V37.1z M247.4,39.8v-1.2H246v1.2H247.4z M248.1,49.5
		c-0.3,0.6-0.6,1.1-1,1.7c0.8,0.2,1.6,0.4,2.4,0.6c0.5-0.7,0.9-1.4,1.1-2.3H248.1z M250.2,37.1h1.4v-1.2h-1.4V37.1z M250.2,39.8h1.4
		v-1.2h-1.4V39.8z M251.9,43.7h-1.6v1.5h1.6V43.7z M259.3,46.5c0.5-2,0.7-4.3,0.8-7h-1.9c-0.1,0.3-0.3,0.6-0.4,0.9
		C258,42.8,258.6,44.8,259.3,46.5z"/>
	<path class="st1" d="M274.7,46v8.2c0,2.3-2.6,3.2-5.8,1.4l0.3-1.3c2.1,0.3,2.5,0.1,2.5-0.9v-5.5c-0.6,0.3-1.2,0.6-1.8,0.9l-1.1-3.2
		c1-0.2,1.9-0.4,2.9-0.7V40h-2.6v-1.6h2.6v-5.6h3v5.6h1.8V40h-1.8v3.8l1.6-0.6l0.6,1.1C276.2,44.8,275.5,45.4,274.7,46z M292.4,52.9
		l-2,2.3c-1.4-1.1-2.4-3.7-2.9-6c-0.2,0.1-0.4,0.1-0.6,0.2c0.4,1,0.5,2,0.5,2.8c0.1,4.6-2.9,5.6-6.2,3l0.4-1.1
		c2.5,0.6,3.3,0.5,3.4-1.7c-2.1,1.1-4.6,2-6.6,2.4l-0.4-1.1c2.3-0.8,4.8-2,6.8-3.7c0-0.2-0.1-0.4-0.1-0.6c-1.6,1-3.4,1.8-5.4,2.4
		l-0.3-0.9c-0.7,2.3-1.7,3.9-3.1,5.3l-1-0.8c1.6-2.8,2-6.6,2-12.4v-6.7l2.9,0.6h2.4v-4.2h3v1.6h5.2v1.5h-5.2v1.1h4l0.7-0.5l2.4,1.4
		c-0.9,1.2-1.9,2.2-2.7,2.8l-0.9-0.6c0.3-0.5,0.4-1.1,0.6-1.6h-4.6v1.1c1.2-0.1,2.4-0.3,3.8-0.4l0.2,1.3l-4,0.5
		c0.1,0.6,0.4,0.9,1.8,0.9c1.8,0,2.3-0.2,3-0.7l1.2,1.6c-0.8,0.8-1.5,1.1-4.3,1.1c-3.7,0-4.4-0.3-4.4-2.4V41c-0.7,0.1-1.4,0.2-2,0.2
		v1.8v1h11.4v1.4h-4.9c-0.4,0.3-0.8,0.6-1.2,0.9c0.5,0.5,1,1.1,1.3,1.8c1-0.7,1.8-1.5,2.7-2.5l2,1.8c-0.8,0.5-1.7,1-2.6,1.3
		C289.6,50.8,291.1,52.1,292.4,52.9z M284,47.5l-0.2-0.4c-1.3,0.8-2.8,1.4-4,1.8l-0.3-1c-0.1,1-0.3,1.9-0.5,2.7
		C281.1,49.7,282.5,48.9,284,47.5z M279.8,45.5c0,0.8-0.1,1.6-0.2,2.3c1.4-0.6,2.6-1.4,3.5-2.3H279.8z M281.9,38.3h-2v1.5
		c0.7-0.1,1.4-0.1,2-0.2V38.3z"/>
	<path class="st1" d="M297.8,33.4h8.1v20.2c0,3.3-2.9,3.8-6.2,1.7l0.3-1.3c2.5,0.5,2.9,0.2,2.9-1.1v-5.8h-2.2
		c-0.3,4.1-1.1,7.1-3.5,9.7l-1.1-0.9c1.6-3.1,1.6-6.4,1.6-13.9V33.4z M303,45.6v-4.7h-2.1V41c0,1.7,0,3.2-0.1,4.7H303z M300.9,35
		v4.4h2.1V35H300.9z M320.1,53.5l-1.9,3.1c-1.4-0.9-2.5-1.9-3.5-3.1c-1.1,1.2-2.3,2.2-3.8,3l-0.5-0.9v0.9h-3.1V33.5h11
		c0,2.7-0.1,4-0.2,5.3c-0.3,3.1-3.4,3.6-6.6,1.3l0.4-1.2c2.6,0.6,3,0.4,3.1-0.6c0.1-0.9,0.1-1.6,0.1-3.2h-4.7v7.8h5.1l0.7-0.5
		l2.8,0.9c-0.3,2.9-1.2,5.6-2.6,7.9C317.4,52.1,318.6,52.8,320.1,53.5z M313.3,51.6c-1.2-2-2-4.4-2.4-7.2h-0.6v10.7
		C311.6,54.1,312.5,52.9,313.3,51.6z M312.3,44.4c0.5,2,1.2,3.5,2.2,4.8c0.6-1.6,1-3.2,1.2-4.8H312.3z"/>
	<path class="st1" d="M340.3,46.7h5.7c-0.1,3.2-0.4,5.8-0.7,7.4c-0.5,2.4-3.2,3.9-6.9,0.9l0.5-1.2c2.7,0.7,3.3,0.6,3.5-0.8
		c0.2-1.2,0.4-2.9,0.5-4.7H340c-1.1,5-4.1,7.6-8.1,8.6l-0.5-1.1c3.4-1.8,4.9-3.9,5.6-7.5h-4v-1.5h4.2c0.1-0.6,0.1-1.3,0.2-2
		c-1.2,0.5-2.4,0.9-3.7,1.2l-0.3-1c-0.4,0.5-0.9,0.9-1.3,1.2l-0.9-0.6v8.1c0,2.5-2.5,4-6.5,1.7l0.3-1.2c2.6,0.5,3.2,0.3,3.2-1v-5.5
		c-0.9,1.8-2.2,3.6-4.1,5.2l-0.8-1c2.2-2.7,3.5-5.5,4.5-9.5h-4.1v-1.5h5.3c-1-1.5-2.1-2.9-3.1-4l0.8-0.9c0.9,0.5,1.8,1.1,2.7,1.7
		c0.7-0.9,1.3-1.7,1.8-2.7h-6.9v-1.5h6.8l0.9-0.5l2.9,1.8c-1.1,1.4-2.8,2.9-4.4,3.9c0.4,0.4,0.8,0.8,1.2,1.2l-1.2,1h1.7l0.8-0.5
		l2.6,1.5c-0.5,0.9-1.2,1.9-1.9,2.7c2.2-0.9,3.8-1.9,5.1-3.2c-0.9-1-1.6-2-2.1-3.1c-0.6,0.8-1.3,1.5-2.1,2.1l-0.9-0.8
		c1.7-2.6,2.4-4.7,2.9-7.5l2.9,0.8c-0.2,0.7-0.5,1.4-0.9,2.2h7.8v1.6h-1.9c-0.5,1.7-1.4,3.2-2.4,4.5c1.4,0.7,3,1.2,4.9,1.7l-1.2,3
		c-2-0.5-3.9-1.6-5.5-2.9c-0.8,0.6-1.7,1.2-2.6,1.6h2.7C340.5,45.3,340.4,46,340.3,46.7z M332.3,42.5h-1v2.8
		C331.7,44.4,332.1,43.3,332.3,42.5z M340.1,39.8c0.6-1,1.1-2,1.4-3.1h-3.7l-0.2,0.4C338.3,38.1,339.2,39,340.1,39.8z"/>
	<path class="st1" d="M360.7,47.3h-9.6v-1.8h9.6v-9.9h-8.3v-1.7h20.3v1.7h-8.4v9.9h9.7v1.8h-9.7v9.5h-3.5V47.3z M353.7,37l1.2-0.7
		c1.9,2,3.7,4.6,4.8,6.9l-3.4,1.5C355.6,41.9,354.7,39.4,353.7,37z M365.3,44c1.1-2.3,1.9-4.6,2.7-7.9l3.7,1.4
		c-1.7,3.1-3.1,5.2-5.2,7.2L365.3,44z"/>
	<path class="st1" d="M401.3,54.2v1.6h-22.8v-1.6h9.6v-1.2h-6.7v-1.5h6.7v-1.3c-2.4,0.2-4.7,0.4-6.1,0.4l-0.5-2.4
		c1,0.1,2.2,0.1,3.4,0.1c0.5-0.6,0.8-1.2,1.2-1.9h-3.3v-1.4h13.9v1.4h-2.7c1.6,0.7,2.9,1.6,4.3,2.8l-1.9,1.8
		c-0.4-0.6-0.9-1.2-1.4-1.8c-1.1,0.3-2.4,0.5-3.7,0.7v1.7h7v1.5h-7v1.2H401.3z M382.1,47.2H379v-4.4h21.6v4.4h-3.1v-2.9h-15.4V47.2z
		 M388.2,35.5h-9V34h9v-1.6h3.3V34h8.9v1.6h-8.9v0.9h6.8V38h-17v-1.5h6.9V35.5z M382,42v-3.3h15.7V42H382z M385.2,40.8h9.3V40h-9.3
		V40.8z M389.4,46.5c-0.7,0.7-1.6,1.4-2.5,1.9c2.5,0,5.2-0.1,7.3-0.2c-0.3-0.3-0.6-0.7-0.9-1l0.6-0.8H389.4z"/>
</g>
<g>
	<path class="st0" d="M81.8,16L81.8,16l-0.1,6.9h-1.3v-8.8h1.9C83.7,16.5,85,19,86,21h0.1v-6.9h1.3v8.8h-1.8
		C83.8,19.5,82.6,17.4,81.8,16z"/>
	<path class="st0" d="M92.7,22.1c-0.2,0.5-0.8,0.9-1.7,0.9c-1.6,0-2.2-0.9-2.2-2c0-1.1,0.9-2,2.7-2.1c0.5,0,0.8,0,1.1,0v-0.5
		c0-0.8-0.3-1.2-1-1.2c-0.8,0-1.7,0.3-2.3,0.9v-1.1c0.6-0.4,1.5-0.7,2.5-0.7c1.6,0,2.4,0.8,2.4,2.2v2.9c0,0.4,0.1,1,0.2,1.4h-1.5
		C92.7,22.6,92.7,22.4,92.7,22.1z M91.6,19.8c-0.7,0.1-1.3,0.4-1.3,1.1c0,0.7,0.3,1.1,0.9,1.1c0.4,0,0.7,0,1-0.3
		c0.3-0.3,0.4-0.7,0.4-1.2v-0.7C92.3,19.8,92,19.8,91.6,19.8z"/>
	<path class="st0" d="M97.9,23.1c-0.7,0-1.2-0.2-1.4-0.5c-0.3-0.3-0.4-0.8-0.4-1.5v-3.5h-0.9v-0.9h0.9V15h1.6v1.7h1.3v0.9h-1.3v3.4
		c0,0.8,0.1,1.1,0.8,1.1c0.2,0,0.4,0,0.6-0.2v1C98.7,23,98.4,23.1,97.9,23.1z"/>
	<path class="st0" d="M100,14.8c0-0.5,0.4-0.9,0.9-0.9c0.5,0,0.9,0.4,0.9,0.9c0,0.5-0.4,0.9-0.9,0.9C100.5,15.7,100,15.3,100,14.8z
		 M100.2,16.7h1.6v6.2h-1.6V16.7z"/>
	<path class="st0" d="M106.1,23.1c-2.1,0-3-1.6-3-3.3c0-1.6,1-3.3,3.1-3.3c2.1,0,3,1.7,3,3.3C109.2,21.6,108.3,23.1,106.1,23.1z
		 M106.1,17.4c-1,0-1.4,1.4-1.4,2.4c0,1.2,0.5,2.4,1.5,2.4c1,0,1.4-1.2,1.4-2.4C107.5,18.7,107.1,17.4,106.1,17.4z"/>
	<path class="st0" d="M114.4,18.8c0-0.7-0.3-1.2-1-1.2c-1,0-1.3,0.8-1.3,2v3.3h-1.6v-6.3h1.5v1c0.3-0.6,1-1.2,2-1.2
		c1.4,0,2.1,0.9,2.1,2.2v4.2h-1.6V18.8z"/>
	<path class="st0" d="M121.2,22.1c-0.2,0.5-0.8,0.9-1.7,0.9c-1.6,0-2.2-0.9-2.2-2c0-1.1,0.9-2,2.7-2.1c0.5,0,0.8,0,1.1,0v-0.5
		c0-0.8-0.3-1.2-1-1.2c-0.8,0-1.7,0.3-2.3,0.9v-1.1c0.6-0.4,1.5-0.7,2.5-0.7c1.6,0,2.4,0.8,2.4,2.2v2.9c0,0.4,0.1,1,0.2,1.4h-1.5
		C121.2,22.6,121.2,22.4,121.2,22.1z M120.1,19.8c-0.7,0.1-1.3,0.4-1.3,1.1c0,0.7,0.3,1.1,0.9,1.1c0.4,0,0.7,0,1-0.3
		c0.3-0.3,0.4-0.7,0.4-1.2v-0.7C120.8,19.8,120.4,19.8,120.1,19.8z"/>
	<path class="st0" d="M124.6,22.7c-0.3-0.3-0.5-0.7-0.5-1.5v-7.5h1.6v7.4c0,0.8,0.1,0.9,0.6,1c0.2,0,0.4,0,0.6-0.1v1
		C126.1,23.2,125.1,23.2,124.6,22.7z"/>
	<path class="st0" d="M134.7,15c-1.7,0-2.3,1.8-2.3,3.5c0,1.8,0.6,3.5,2.5,3.5c0.9,0,1.5-0.3,2.2-0.9v1.4c-0.5,0.4-1.3,0.6-2.4,0.6
		c-2.7,0-4-2-4-4.6c0-2.8,1.5-4.6,3.9-4.6c1,0,1.9,0.3,2.5,0.6V16C136.5,15.4,135.6,15,134.7,15z"/>
	<path class="st0" d="M138.3,19.7c0-1.8,1.1-3.3,3.1-3.3c2,0,2.8,1.5,2.9,2.9c0,0.2,0,0.4,0,0.7h-4.2c0,1.4,0.6,2.1,1.8,2.2
		c0.8,0,1.4-0.2,2-0.7v1.1c-0.5,0.3-1.2,0.5-2.1,0.5C139.4,23.1,138.2,21.9,138.3,19.7z M142.6,19.2c0-1-0.5-1.9-1.3-1.9
		c-0.9,0-1.3,0.9-1.3,1.9H142.6z"/>
	<path class="st0" d="M149.4,18.8c0-0.7-0.3-1.2-1-1.2c-1,0-1.3,0.8-1.3,2v3.3h-1.6v-6.3h1.5v1c0.3-0.6,1-1.2,2-1.2
		c1.4,0,2.1,0.9,2.1,2.2v4.2h-1.6V18.8z"/>
	<path class="st0" d="M154.8,23.1c-0.7,0-1.2-0.2-1.4-0.5c-0.3-0.3-0.4-0.8-0.4-1.5v-3.5H152v-0.9h0.9V15h1.6v1.7h1.3v0.9h-1.3v3.4
		c0,0.8,0.1,1.1,0.8,1.1c0.2,0,0.4,0,0.6-0.2v1C155.6,23,155.2,23.1,154.8,23.1z"/>
	<path class="st0" d="M156.9,16.7h1.5c0,0.3,0,0.8,0,1.1c0.2-0.7,0.9-1.2,1.4-1.3c0.2,0,0.5-0.1,0.8,0v1.4c-0.3-0.1-0.5-0.1-0.8,0
		c-0.9,0.2-1.3,1.1-1.3,1.8v3.2h-1.6V16.7z"/>
	<path class="st0" d="M165.1,22.1c-0.2,0.5-0.8,0.9-1.7,0.9c-1.6,0-2.2-0.9-2.2-2c0-1.1,0.9-2,2.7-2.1c0.5,0,0.8,0,1.1,0v-0.5
		c0-0.8-0.3-1.2-1-1.2c-0.8,0-1.7,0.3-2.3,0.9v-1.1c0.6-0.4,1.5-0.7,2.5-0.7c1.6,0,2.4,0.8,2.4,2.2v2.9c0,0.4,0.1,1,0.2,1.4h-1.5
		C165.2,22.6,165.1,22.4,165.1,22.1z M164,19.8c-0.7,0.1-1.3,0.4-1.3,1.1c0,0.7,0.3,1.1,0.9,1.1c0.4,0,0.7,0,1-0.3
		c0.3-0.3,0.4-0.7,0.4-1.2v-0.7C164.7,19.8,164.4,19.8,164,19.8z"/>
	<path class="st0" d="M168.6,22.7c-0.3-0.3-0.5-0.7-0.5-1.5v-7.5h1.6v7.4c0,0.8,0.1,0.9,0.6,1c0.2,0,0.4,0,0.6-0.1v1
		C170.1,23.2,169,23.2,168.6,22.7z"/>
	<path class="st0" d="M175.3,22.7c-0.3-0.3-0.5-0.7-0.5-1.5v-7.5h1.6v7.4c0,0.8,0.1,0.9,0.6,1c0.2,0,0.4,0,0.6-0.1v1
		C176.8,23.2,175.8,23.2,175.3,22.7z"/>
	<path class="st0" d="M178.4,14.8c0-0.5,0.4-0.9,0.9-0.9c0.5,0,0.9,0.4,0.9,0.9c0,0.5-0.4,0.9-0.9,0.9
		C178.8,15.7,178.4,15.3,178.4,14.8z M178.5,16.7h1.6v6.2h-1.6V16.7z"/>
	<path class="st0" d="M183.2,22.1v0.8h-1.5v-9.2h1.6v3.6c0.4-0.5,1-0.8,1.8-0.8c1.5,0,2.6,1.2,2.6,3.2c0,2.1-1,3.4-2.7,3.4
		C184.1,23.1,183.5,22.6,183.2,22.1z M186.1,19.8c0-1.3-0.5-2.3-1.5-2.3c-0.9,0-1.4,0.7-1.5,2V20c0.1,1.3,0.7,2.1,1.5,2.2
		C185.7,22.1,186.1,21.2,186.1,19.8z"/>
	<path class="st0" d="M189.1,16.7h1.5c0,0.3,0,0.8,0,1.1c0.2-0.7,0.9-1.2,1.4-1.3c0.2,0,0.5-0.1,0.8,0v1.4c-0.3-0.1-0.5-0.1-0.8,0
		c-0.9,0.2-1.3,1.1-1.3,1.8v3.2h-1.6V16.7z"/>
	<path class="st0" d="M197.3,22.1c-0.2,0.5-0.8,0.9-1.7,0.9c-1.6,0-2.2-0.9-2.2-2c0-1.1,0.9-2,2.7-2.1c0.5,0,0.8,0,1.1,0v-0.5
		c0-0.8-0.3-1.2-1-1.2c-0.8,0-1.7,0.3-2.3,0.9v-1.1c0.6-0.4,1.5-0.7,2.5-0.7c1.6,0,2.4,0.8,2.4,2.2v2.9c0,0.4,0.1,1,0.2,1.4h-1.5
		C197.3,22.6,197.3,22.4,197.3,22.1z M196.1,19.8c-0.7,0.1-1.3,0.4-1.3,1.1c0,0.7,0.3,1.1,0.9,1.1c0.4,0,0.7,0,1-0.3
		c0.3-0.3,0.4-0.7,0.4-1.2v-0.7C196.9,19.8,196.5,19.8,196.1,19.8z"/>
	<path class="st0" d="M200.2,16.7h1.5c0,0.3,0,0.8,0,1.1c0.2-0.7,0.9-1.2,1.4-1.3c0.2,0,0.5-0.1,0.8,0v1.4c-0.3-0.1-0.5-0.1-0.8,0
		c-0.9,0.2-1.3,1.1-1.3,1.8v3.2h-1.6V16.7z"/>
	<path class="st0" d="M204.1,24.2c0.8,0.3,1.4,0.4,1.8-0.1c0.2-0.3,0.5-0.8,0.7-1.4l-2.6-6h1.8l1,2.9c0.2,0.5,0.4,1,0.5,1.5h0.1
		c0.1-0.5,0.3-1,0.4-1.4l0.9-3h1.5l-2.1,5.8c-0.4,0.9-0.7,1.7-1.1,2.2c-0.6,0.9-1.6,1.1-2.7,0.7V24.2z"/>
</g>
<g>
	<g>
		<path class="st0" d="M0,31.5c0.1-0.1,0.1-0.2,0.1-0.3c0.5-2.2,0.9-4.5,1.4-6.7c0.1-0.4,0.2-0.7,0.2-1.1c0.1-0.7,0.4-1.3,0.8-1.9
			C3.4,20,4.2,18.5,5,17c0.9-1.5,1.9-2.9,3.3-3.9c0.1-0.1,0.2-0.2,0.2-0.3c0.2-0.7,0.6-1.2,1.1-1.7c0.3-0.4,0.6-0.8,0.9-1.1
			c0.1-0.1,0.1-0.2,0.2-0.2c0.4-0.3,0.8-0.5,1.1-0.9c2.5-2.6,5.5-4.5,8.9-5.8c2.9-1.2,5.9-1.9,8.9-2.5c0.7-0.1,1.4-0.2,2.1-0.4
			c0.7-0.2,1.5-0.1,2.2,0c2,0.2,4.1,0.3,6.1,0.5c1.1,0.1,2.1,0.3,3.1,0.8c0.4,0.2,0.8,0.3,1.3,0.3c0.7,0,1.3,0.2,1.9,0.5
			c1.4,0.9,2.9,1.6,4.4,2.3c0.5,0.2,0.9,0.6,1.4,0.9c1,0.7,2,1.5,2.9,2.3c0.5,0.4,1,0.9,1.5,1.4c0.4,0.4,0.8,0.7,1.2,1
			c0.6,0.4,1.1,0.9,1.5,1.5c0.8,1.1,1.8,2,2.5,3.2c1.6,2.4,3.2,4.8,4.2,7.5c0.7,1.9,1.2,3.8,1.5,5.8c0.3,2.1,0.4,4.1,0.5,6.2
			c0.1,1.1,0.2,2.3,0.1,3.4c-0.2,1.7-0.5,3.4-1,5.1c-0.9,2.9-2,5.6-3.3,8.4c-0.3,0.7-0.9,1.3-1.3,1.9c-1.4,1.8-2.9,3.6-4.4,5.3
			c-1.5,1.6-3.1,2.9-4.9,4.1c-2.8,1.8-5.7,3.3-8.8,4.4c-3.1,1.1-6.4,1.7-9.7,2c-1,0.1-2-0.1-2.9-0.3c-1.5-0.3-3.1-0.5-4.7-0.8
			c-2.7-0.4-5.2-1.4-7.7-2.6c-3.7-1.8-6.9-4.4-9.6-7.5c-0.7-0.8-1.6-1.6-2.4-2.3c-0.6-0.6-1-1.3-1.4-2c-0.4-0.7-0.7-1.3-1.2-1.9
			c-0.5-0.7-0.9-1.4-1.3-2.2c-0.1-0.2-0.1-0.5-0.1-0.8c0.1-0.7-0.2-1.3-0.5-1.8c-0.5-1-0.9-1.9-1.4-2.9c-0.4-0.9-0.5-1.9-0.4-2.9
			c0-0.1,0-0.4-0.1-0.4c-0.5-0.4-0.7-0.9-0.7-1.5c0-0.9,0-1.7,0-2.6c0-0.5-0.1-1-0.2-1.5c0-0.2-0.2-0.3-0.3-0.5
			C0,33.4,0,32.4,0,31.5z M55.1,9.4c-0.1-0.5-0.1-0.5-0.6-1c-0.1-0.1-0.2-0.2-0.3-0.2c-0.4,0.1-0.7-0.1-0.9-0.4
			c-1.4-1.8-3.2-3.1-5.4-3.7c-0.5-0.1-1.1-0.3-1.5-0.6c-0.5-0.4-1.1-0.6-1.7-0.8c-1.5-0.3-3-0.6-4.6-0.9c-2.4-0.4-4.9-0.6-7.4-0.5
			c-1.9,0.1-3.8,0.4-5.6,0.9c-2.6,0.7-5.2,1.4-7.7,2.5c-1.8,0.8-3.5,1.8-4.9,3.2c-0.1,0.1-0.2,0.2-0.3,0.4c0,0,0,0.1,0.1,0.1
			c0.2,0,0.4,0,0.6-0.1c0.9-0.5,1.8-1.1,2.7-1.7c0.6-0.3,1.2-0.6,1.8-1c0,0.1-0.1,0.1-0.1,0.2c-0.8,0.5-1.7,1.1-2.5,1.6
			c-0.9,0.6-1.9,1.1-2.5,2c-0.1,0.1-0.2,0.1-0.3,0.2c-0.2,0.2-0.6,0.4-0.7,0.6c-0.4,0.9-0.9,1.6-1.6,2.2c-1,0.8-2.1,1.6-3.1,2.5
			c-0.2,0.2-0.4,0.4-0.6,0.6c-0.5,0.9-1,1.8-1.5,2.7c-0.3,0.5-0.7,1-1,1.6c0,0,0,0-0.1,0c0.2-0.5,0.4-0.9,0.5-1.4
			c0,0-0.1-0.1-0.1-0.1c-0.1,0.1-0.3,0.2-0.4,0.3c-0.4,0.5-0.8,0.9-1,1.5c-0.5,1.2-1,2.4-1.4,3.7c-0.5,1.6-1.1,3.3-1.4,4.9
			C1,30.9,1,33.2,1.1,35.4c0,2.3,0.6,4.6,1.2,6.8c0.6,2.4,1.6,4.7,2.6,6.9C5.4,50,5.8,51,6.4,51.8c1,1.4,2.1,2.7,3.3,3.9
			c0.9,1.1,1.9,2.1,2.9,3.2c0.3,0.3,0.7,0.5,1.1,0.8c0,0,0.1-0.1,0.1-0.1c-0.1-0.2-0.2-0.4-0.3-0.5c-1-1.1-1.9-2.1-2.9-3.1
			c-1.1-1.2-2.3-2.4-3-4c0-0.1-0.1-0.2-0.3-0.3c-0.8-0.5-1-1.4-1.3-2.3c0.1,0.1,0.1,0.1,0.2,0.1c0.6,0.7,1.2,1.4,1.8,2.1
			c0.1,0.1,0.1,0.1,0.1,0.2c0.2,0.5,0.5,1,0.7,1.5c0.1,0.1,0.2,0.2,0.3,0.3c1.3,0.6,2.1,1.6,2.6,2.9c0.1,0.2,0.2,0.4,0.4,0.5
			c0.8,0.6,1.5,1.3,1.9,2.1c0.2,0.5,0.6,0.7,1,0.9c1.6,0.8,3.2,1.6,4.8,2.3c0.7,0.3,1.4,0.4,2,0.8c1.2,0.7,2.4,1.2,3.7,1.5
			c1.6,0.4,3.1,0.8,4.7,1.2c0.1,0,0.2,0,0.2,0c0.8,0,1.6,0.1,2.4,0.1c0.9,0.1,1.8,0.3,2.7,0.1c0.4-0.1,0.7-0.2,1.1-0.2
			c0.5,0,1.1,0,1.6,0c1.6-0.1,3.1-0.3,4.5-1.2c0.1-0.1,0.2-0.1,0.4-0.1c1,0.2,1.7-0.3,2.5-0.7c0.9-0.5,1.8-1.1,2.8-1.5
			c0.7-0.3,1.4-0.6,2-1.1c0.3-0.3,0.6-0.6,1-0.8c0.6-0.4,1.2-0.8,1.8-1.1c0.4-0.2,0.6-0.3,0.9-0.6c0.6-0.7,1.3-1.2,2-1.8
			c0.6-0.6,1.4-1,1.6-1.9c0.2-0.5,0.4-0.9,1-0.9c0.3,0,0.5-0.2,0.5-0.6c0-0.4,0.3-0.8,0.6-1.1c0.5-0.4,1-0.7,1.6-1.1
			c0,0.1,0,0.2,0.1,0.3c0,0.1,0.1,0.2,0.1,0.3c0.1-0.1,0.1-0.1,0.2-0.2c2.1-2.7,3.4-5.7,4.2-9c0.5-1.9,0.9-3.9,1.2-5.8
			c0.1-0.8,0.2-1.7,0.2-2.5c-0.1-1.4-0.2-2.8-0.3-4.1c0-0.2,0-0.4-0.1-0.5c-0.1-0.1-0.2-0.2-0.4-0.3c-0.1,0.1-0.2,0.3-0.1,0.4
			c0,1.2,0.1,2.4,0.1,3.5c0.1,2.6-0.2,5.2-0.7,7.7c-0.7,3.2-1.9,6.2-3.7,9c-0.1,0.1-0.1,0.2-0.2,0.3c0-0.1,0-0.2,0-0.2
			c0.6-1.3,1.3-2.6,1.9-3.9c1.3-2.9,2.1-6,1.9-9.2c0-0.2,0-0.5,0-0.7c0-0.6,0.1-1.2,0.1-1.8c-0.1-1.6-0.2-3.2-0.3-4.8
			c-0.1-2.4-0.7-4.8-1.6-7.1c-0.8-2.1-1.8-4-3.1-5.8c-0.7-1-1.2-2.2-2.4-2.7c-0.3-0.2-0.5-0.7-0.8-1c-0.2-0.4-0.5-0.6-0.9-0.7
			c-0.3-0.1-0.5-0.3-0.7-0.5c-0.5-0.6-1-1.2-1.4-1.8c-0.5-0.6-1.1-1.1-1.9-1.4c-1.3-0.4-1.8-1.5-2.5-2.5c0.1,0,0.1,0,0.2,0.1
			c2.2,1.6,4.3,3.3,6.3,5.1c0.2,0.2,0.3,0.3,0.5,0.1c0.3,0.5,0.6,0.9,0.9,1.3c2.9,3.2,5.2,6.8,6.8,10.9c0.3,0.9,0.7,1.9,0.8,2.9
			c0.1,0.6,0.3,1.2,0.6,1.7c0.1,0.2,0.3,0.3,0.5,0.6c0.2-0.6,0.2-1,0-1.5c-0.2-0.8-0.6-1.5-0.6-2.4c0-0.1,0-0.1-0.1-0.2
			c-1.4-3.6-3.1-7-5.4-10.1c-1.1-1.4-2.3-2.8-3.6-4c0,0-0.1-0.1-0.2-0.1c-0.1,0.1-0.1,0.2-0.1,0.3c0,0-0.1,0-0.1,0
			c-0.1-0.2-0.2-0.4-0.3-0.6c-0.1-0.4-0.1-0.7-0.6-0.7c-0.1,0-0.1-0.1-0.2-0.1C55.5,9.6,55.3,9.5,55.1,9.4z M21.4,63.7
			c-0.1-0.1-0.2-0.1-0.3-0.1c-0.6-0.2-1.2-0.4-1.8-0.7c-1.3-0.8-2.6-1.6-3.8-2.4c-0.2-0.1-0.4-0.3-0.6-0.4c-0.1,0-0.2,0-0.4,0
			c0,0.1,0,0.2,0,0.3c0,0.1,0.1,0.1,0.2,0.2c1,0.7,1.9,1.3,2.9,2c0,0,0,0,0.1,0c0.8,0.1,1.4,0.5,2,1c0.3,0.2,0.7,0.4,1.1,0.5
			C21,64.1,21.2,64,21.4,63.7z M5.5,18C5.6,18,5.6,18,5.5,18c0.2,0,0.3,0,0.3-0.1c0.7-0.5,1.2-1.3,1.7-2.1c0.6-1,1.1-2.1,2.2-2.8
			c0.1,0,0.1-0.2,0.1-0.2c-0.1,0-0.2,0-0.3,0c-0.5,0.4-1,0.7-1.4,1.2c-1,1.1-1.8,2.4-2.5,3.7C5.6,17.8,5.6,17.9,5.5,18z M52.8,61
			c0,0-0.1-0.1-0.1-0.1c-0.1,0.1-0.2,0.1-0.3,0.2c-0.7,0.5-1.5,1-2.2,1.4c-0.7,0.4-1.6,0.5-2.3,1.1c-0.1,0.1-0.2,0.1-0.2,0.1
			c-0.3,0.1-0.6,0.2-0.9,0.3c-0.1,0.1-0.2,0.2-0.3,0.2c0.5-0.1,1-0.2,1.6-0.3c0.1,0,0.2-0.1,0.4-0.1c0.3-0.2,0.7-0.3,1-0.5
			c0.5-0.2,1.1-0.4,1.5-0.7c0.5-0.5,1-1,1.7-1.3C52.6,61.3,52.7,61.1,52.8,61z M27.1,66c0-0.1,0-0.1,0.1-0.2
			c-0.2-0.1-0.4-0.2-0.6-0.3c-0.5-0.1-1-0.2-1.4-0.4c-0.6-0.2-1.2-0.5-1.8-0.7c-0.3-0.1-0.7-0.1-1-0.2c-0.1,0-0.2,0.1-0.2,0.2
			c0.1,0.1,0.1,0.2,0.2,0.2c1.1,0.4,2.1,0.7,3.2,1.1C26,66,26.5,66.1,27.1,66z M35.7,66.9c-1.7-0.1-3.3-0.5-5.1-0.3
			C31.3,67.3,35,67.4,35.7,66.9z M56.6,58c0,0-0.1-0.1-0.1-0.1c-1.2,0.7-2.1,1.8-3.2,2.6c0.4,0.1,0.7,0.1,1-0.2
			c0.6-0.7,1.3-1.3,1.9-2C56.4,58.3,56.5,58.2,56.6,58z M12.5,10.3c-0.8-0.1-2.1,1-2.5,1.9C11.1,11.8,11.7,11,12.5,10.3z M57.2,57.2
			c0,0,0.1,0.1,0.1,0.1c0.3-0.2,0.7-0.3,1-0.5c0.2-0.1,0.3-0.4,0.4-0.6c0-0.1,0-0.2,0-0.3c0,0-0.2,0-0.3,0
			C57.7,56.1,57.4,56.6,57.2,57.2z M60.3,53.1c-0.5,0.7-0.9,1.4-1.4,2C59.9,55,60.6,53.9,60.3,53.1z M27.6,65.7c0,0.1,0,0.1-0.1,0.2
			c0.5,0.4,1,0.7,1.7,0.7c0.1,0,0.2,0,0.3,0c0.1,0,0.1-0.1,0.2-0.2c-0.1-0.1-0.1-0.1-0.2-0.2c-0.3-0.1-0.7-0.2-1-0.3
			C28.2,65.8,27.9,65.7,27.6,65.7z M12.3,9.9c0.8,0,1.9-0.7,2.1-1.2C13.8,8.6,12.5,9.3,12.3,9.9z M44.2,65.3
			c-0.6,0.1-1.3,0.1-1.8,0.6C43,65.8,43.7,65.8,44.2,65.3z M39.6,66.3c0,0.1,0,0.1,0,0.2c0.5,0.2,1.1,0,1.3-0.3
			C40.5,66.2,40,66.3,39.6,66.3z M37.6,66.8c0.2,0.2,0.8,0.2,1,0c0,0,0-0.2,0-0.3C38.3,66.4,37.7,66.6,37.6,66.8z M60.9,52.6
			c0,0,0.1,0.1,0.1,0.1c0.1-0.1,0.3-0.2,0.4-0.4c0-0.1,0-0.3,0-0.4C61.2,52,61.1,52,61,52.1C61,52.3,60.9,52.4,60.9,52.6z"/>
		<path class="st0" d="M34.1,15.3c1.6,0,3.2,0.1,4.7,0.7c0.7,0.2,1.2,0.6,1.2,1.5c0,0.2,0,0.4,0.2,0.5c0.3,0.3,0.2,0.6,0.1,0.9
			c-0.1,0.9-0.2,1.8-0.1,2.7c0,0.8,0,1.6-0.2,2.4c-0.1,0.4-0.1,0.9,0,1.3c0.1,0.4,0.1,0.8-0.1,1.2c-0.3,0.6-0.3,1.2-0.3,1.8
			c0.1,0.8,0,1.4-0.5,2.1c-0.1,0.2-0.3,0.4-0.3,0.7c-0.3,1-1,1.5-1.9,1.8c-1.8,0.5-3.6,0.6-5.4,0.4c-0.5-0.1-0.9-0.2-1.4-0.3
			c-1.1-0.2-1.6-0.9-1.8-2c-0.2-1-0.4-2-0.6-2.9c-0.1-0.4,0-0.8,0.1-1.1c0.2-0.6,0.2-1.2,0.2-1.9c-0.1-0.6-0.2-1.2-0.2-1.8
			c0-0.9,0.2-1.8,0.2-2.7c0.1-0.9,0.2-1.8,0.2-2.6c0-0.7,0.1-1.5,0.8-2c0.2-0.2,0.5-0.3,0.8-0.3C31.3,15.4,32.7,15.4,34.1,15.3z
			 M38.9,23.9c0-0.3,0-0.6,0-0.9c0-0.3-0.2-0.4-0.4-0.4c-0.6,0-1.2-0.1-1.8,0c-0.6,0-1.2,0.2-1.7,0.4c-0.4,0.1-0.4,0.4-0.1,0.6
			c0.6,0.4,1.7,0.6,2.3,0.1c0.1-0.1,0.4,0,0.6,0.1c0.1,0,0.1,0.3,0.1,0.4c-0.1,0.6-0.2,1.3-0.3,1.9c-0.1,0.9-0.2,1.9-0.3,2.8
			c-0.2,0.9-0.7,1.5-1.7,1.6c-1.3,0.1-2.7,0-4-0.2c-0.5-0.1-0.7-0.4-0.9-0.8c-0.3-0.7-0.4-1.5-0.4-2.3c0-1.2,0.1-2.3,0.2-3.4
			c0-0.6,0.1-0.6,0.6-0.6c0.1,0,0.2,0,0.3,0c0.2,0,0.3,0.1,0.3,0.3c0,0.3,0.1,0.4,0.3,0.3c0.3,0,0.5-0.1,0.7-0.2
			c0.1-0.1,0.4-0.2,0.4-0.3c0-0.2-0.1-0.6-0.3-0.6c-0.9-0.3-1.9-0.5-2.9-0.2c-0.7,0.2-0.9,0.5-0.9,1.2c0,0.2,0,0.5,0,0.7
			c0.1,1,0.1,2-0.1,3.1c-0.1,0.5,0,1,0.1,1.4c0.1,0.6,0.3,1.2,0.4,1.8c0,0.3,0.2,0.5,0.5,0.6c1.4,0.6,2.9,0.8,4.4,0.5
			c0.2,0,0.4,0,0.6,0c1.1,0.2,2-0.1,2.6-1c0.1-0.1,0.2-0.1,0.2-0.2c0.2-0.2,0.4-0.4,0.5-0.6c0.2-0.3,0.3-0.6,0.4-1
			c0-0.1,0-0.3,0-0.5c0-0.4-0.1-0.9-0.1-1.3C38.7,26.1,38.8,25,38.9,23.9z M32.6,17.6C32.6,17.5,32.6,17.5,32.6,17.6
			c1.5,0.1,3,0.2,4.5,0.3c0.2,0,0.4,0.1,0.4,0.3c0,0.1,0,0.3,0.1,0.4c0.3,1.3,0,1.7-1.3,1.9c-0.1,0-0.2,0-0.2,0
			c-0.3,0.1-0.6,0.2-0.9,0.3c-0.1,0.1-0.2,0.3-0.3,0.4c0.1,0.1,0.3,0.3,0.4,0.2c0.7,0,1.3,0,2-0.1c0.2,0,0.4-0.2,0.6-0.3
			c0.3-0.1,0.5-0.4,0.8-0.4c0.3-0.1,0.5-0.2,0.5-0.5c0-0.1,0-0.2,0.1-0.3c0.1-0.8,0.2-1.7-0.1-2.5c-0.1-0.4-0.3-0.6-0.7-0.6
			c-0.5,0-1,0-1.4-0.2c-0.4-0.2-0.8-0.2-1.3-0.2c-1.6,0.2-3.2,0.4-4.8,0c-0.1,0-0.2,0-0.3,0.1c-0.3,0.3-0.7,0.6-1,1
			c-0.1,0.1-0.2,0.3-0.2,0.4c-0.1,0.8-0.2,1.5-0.2,2.3c0,0.1,0.1,0.3,0.2,0.4c1.1,0.5,2.2,0.8,3.4,0.6c0.1,0,0.2-0.1,0.2-0.1
			c0-0.1-0.1-0.3-0.1-0.3c-0.3-0.1-0.5-0.2-0.8-0.3c-0.8-0.2-1.2-0.6-1.2-1.5c0-0.4,0.1-0.8,0.2-1.1c0-0.1,0.2-0.2,0.3-0.3
			C31.7,17.6,32.1,17.6,32.6,17.6z M32,26.3c-0.3,0.2-0.4,0.5-0.4,0.8c0,0.4,0,0.8,0,1.3c0,0.3,0.1,0.4,0.4,0.4
			c0.8,0.2,1.6,0.4,2.4,0.5c0.1,0,0.3,0,0.4-0.1c0.3-0.1,0.6-0.4,0.9-0.4c0.5,0,0.7-0.3,0.8-0.6c0.1-0.3,0.1-0.6,0.1-0.9
			c0-0.5,0-1,0-1.6c0-0.5-0.1-0.8-0.6-1c-0.2-0.1-0.5-0.2-0.7-0.2c-1,0-2.1,0-3.1,0c-0.2,0-0.4,0.1-0.4,0.3c0,0.1,0.2,0.3,0.4,0.3
			c0.7,0.1,1.4,0.1,2.1,0.1c0.5,0,0.9,0.1,1.4,0.2c0.3,0.1,0.4,0.2,0.3,0.5c-0.1,0.5-0.1,1-0.1,1.5c0,0.3-0.1,0.5-0.4,0.5
			c-0.6,0.1-1.3,0.2-1.9,0.2c-1,0-1.2-0.2-1.2-1.2c0-0.1,0-0.2,0-0.3C32.2,26.6,32.1,26.5,32,26.3z M34.7,19.8
			c0.5,0,0.9-0.1,1.3-0.1c0.2,0,0.4,0,0.3-0.3c-0.1-0.2-0.1-0.5-0.5-0.5c-0.4,0-0.9,0-1.3,0c-0.4,0-0.7-0.1-1.1-0.1
			c-0.3,0-0.6,0-0.8,0.3c-0.1,0.2-0.1,0.4,0.2,0.5C33.4,19.6,34.1,19.7,34.7,19.8z M34,27.3c0.6,0,0.8-0.1,0.8-0.5
			c0-0.4-0.2-0.6-0.6-0.6c-0.4,0-0.7,0.4-0.7,0.8C33.5,27.4,33.8,27.3,34,27.3z"/>
		<path class="st0" d="M26.8,37.8c0.2-0.4,0.5-0.5,0.9-0.5c0.9,0,1.9,0,2.8,0c0.4,0,0.8,0,1.2,0.1c0.3,0,0.5-0.1,0.5-0.3
			c0-0.1-0.2-0.4-0.3-0.4c-0.3-0.1-0.7-0.2-1.1-0.2c-0.7-0.1-1.4,0-2.1-0.1c-0.4,0-0.7-0.3-1-0.4c0-0.1,0-0.1,0-0.2
			c0.2,0,0.3-0.1,0.5-0.1c0.8,0,1.5,0,2.3,0c0.3,0,0.5,0,0.8,0c0.5,0,0.8-0.3,1-0.7c0.3-0.6,0.4-0.6,1-0.3c0.4,0.2,0.7,0.4,0.9,0.8
			c0,0.1,0.2,0.2,0.4,0.2c0.7,0,1.3,0,2,0.1c0.3,0,0.5,0.2,0.8,0.3c0.1,0.1,0.2,0.2,0.3,0.3c0.1,0.4,0.2,0.9,0.3,1.3
			c0,0.2,0.1,0.3,0.2,0.5c0.4,0.5,0.8,1,1.2,1.6c0.1,0.1,0.1,0.2,0.1,0.3c-0.3,2.3-0.2,4.6-0.2,6.8c0,1.8-0.1,3.6-0.6,5.4
			c-0.1,0.2-0.1,0.4-0.2,0.5c-0.4-0.2-0.5-0.5-0.5-0.9c0.1-0.6,0.2-1.3,0.3-1.9c0.2-1.5,0.1-3-0.1-4.6c0,0,0,0,0,0
			c-0.2-1-0.5-1.2-1.5-0.8c-0.5,0.2-1.1,0.5-1.6,0.7c-0.2,0.1-0.3,0.2-0.1,0.4c0.2,0.2,0.5,0.3,0.7,0.3c0.5,0,1,0,1.5,0
			c0.2,0,0.6,0,0.6,0.3c0,0.3-0.2,0.5-0.5,0.5c-0.8,0.1-1.6,0.1-2.4,0.1c-1.2,0-2.5-0.2-3.7-0.3c0,0-0.1,0-0.1,0
			c-1,0-1.7,0.2-2.1,1.2c-0.3,0.8-1,1.6-1.5,2.3c-0.1,0.2-0.2,0.4-0.3,0.6c-0.2,0.4-0.5,0.7-0.7,1c-0.1,0.1-0.2,0.2-0.3,0.3
			c0,0-0.1,0-0.1-0.1c0-0.2,0.1-0.4,0.1-0.6c0.6-1.6,1.2-3.1,1.7-4.7c0.1-0.3,0.2-0.6,0.3-0.9c0.1-0.3,0.3-0.5,0.6-0.5
			c0.4,0,0.8,0.1,1.1,0.1c0.1,0,0.3-0.1,0.4-0.2c0-0.1,0-0.3-0.1-0.4c-0.3-0.3-0.7-0.6-1.1-0.8c-0.5-0.3-0.9-0.6-1.2-1.1
			c-0.1-0.1-0.2-0.2-0.3-0.2c-0.1,0-0.3,0-0.5,0c1.1-1.1,2.6-1.5,4-2.2C30.5,40,30,40,29.5,40c-0.5,0-0.9,0-1.4-0.1
			c-0.3,0-0.5-0.2-0.8-0.3c-0.1,0-0.1-0.2-0.1-0.3c0-0.1,0.2-0.1,0.2-0.1c0.5,0,1,0,1.6,0c0.6,0,1.3,0.1,1.9,0.1
			c0.3,0,0.6-0.2,0.9-0.3c0.3-0.1,0.3-0.4,0-0.5c-0.3-0.2-0.6-0.3-0.9-0.3c-0.5,0-1,0.2-1.5,0.2c-0.5,0-1-0.3-1.5-0.4
			C27.6,37.8,27.3,37.9,26.8,37.8z M34.1,41.3c-0.4,0-0.8,0.2-0.8,0.5c0,0.1,0.2,0.3,0.3,0.4c0.4,0.4,0.8,0.8,1.2,1.2
			c0.1,0.1,0.2,0.2,0.3,0.2c0.4-0.1,0.8-0.1,1.1-0.3c0.3-0.1,0.3-0.3,0.1-0.6c-0.5-0.4-1.1-0.8-1.6-1.2
			C34.4,41.4,34.2,41.4,34.1,41.3z M30.2,43.2c0,0,0-0.1,0-0.1c0.3-0.4,0.6-0.9,1.2-0.9c0.1,0,0.2-0.1,0.3-0.1
			c-0.1-0.1-0.1-0.3-0.2-0.3c-0.3,0-0.6,0-0.9,0c-0.4,0.1-0.9,0.3-1.3,0.4c-0.1,0-0.3,0.1-0.3,0.2c0,0.2,0,0.5,0.1,0.6
			c0.6,0.4,1.2,0.8,1.8,1.1c0.3,0.2,0.6,0.1,0.8-0.2c0.2-0.3,0.2-0.5-0.2-0.5c-0.3-0.1-0.6,0-0.9-0.1C30.5,43.2,30.4,43.2,30.2,43.2
			z M37.9,40.7C37.9,40.7,37.9,40.7,37.9,40.7c0-0.1,0.1-0.2,0-0.4c0-0.1-0.1-0.3-0.1-0.3c-0.1,0-0.3,0-0.3,0.1
			c-0.2,0.4-0.6,0.4-1,0.3c-0.3,0-0.5,0-0.8,0c-0.2,0-0.3,0.2-0.1,0.4c0.5,0.4,1,0.8,1.5,1.1c0.2,0.1,0.5,0.1,0.8,0.1
			c0.2,0,0.3-0.2,0.3-0.4C38,41.5,37.9,41.1,37.9,40.7z M34.6,39.4C34.6,39.4,34.6,39.4,34.6,39.4c0.4,0,0.8,0,1.2-0.1
			c0.3,0,0.3-0.2,0.2-0.5c-0.1-0.3-0.4-0.4-0.7-0.4c-0.5,0-0.9,0.1-1.4,0.1c-0.3,0-0.4,0.1-0.3,0.4c0.1,0.3,0.2,0.5,0.6,0.5
			C34.2,39.4,34.4,39.4,34.6,39.4z M34.3,37.3C34.3,37.3,34.3,37.3,34.3,37.3c0.2,0,0.4,0.1,0.6,0.1c0.3,0,0.7,0,1-0.1
			c0.3,0,0.3-0.2,0.1-0.5c-0.4-0.4-1.6-0.6-2-0.2c-0.2,0.1-0.2,0.4-0.3,0.6C33.9,37.2,34.1,37.2,34.3,37.3
			C34.2,37.3,34.3,37.3,34.3,37.3z M33.9,44c-0.1-0.2-0.2-0.5-0.3-0.7c-0.2-0.3-0.4-0.2-0.5,0.1C33,43.6,33,43.9,33,44.1
			c0,0.3,0.1,0.5,0.4,0.4C33.7,44.5,33.9,44.4,33.9,44z"/>
		<path class="st0" d="M52.6,29.6c0.1,0.5,0.3,1.3,0.4,2.1c0.1,0.5,0.1,1.1,0.2,1.6c0,0.2-0.1,0.3-0.3,0.4c-1.9,0.3-3.8,0.4-5.6-0.3
			c-0.1-0.1-0.3-0.1-0.5,0c-1.6,0.3-3.2,0.1-4.8-0.3c-0.1,0-0.2-0.1-0.2-0.2c-0.1-0.5-0.2-1-0.1-1.3c0.2-0.5,0.1-1,0.1-1.5
			c0-1.9,0-3.7,0.1-5.6c0-1.4,0.2-2.7,0.3-4.1c0.1-0.8,0.2-1.7,0.4-2.5c0-0.3,0.2-0.4,0.5-0.3c0.9,0.3,1.8,0.7,2.6,1.2
			c0.9,0.6,1.9,1.3,2.8,1.9c0.1,0,0.1,0.1,0.2,0.2c0.7,1,1.4,2,2,3c0.2,0.3,0.3,0.6,0.4,0.9c0.1,0.1,0.1,0.3,0.2,0.3
			c0.2,0.1,0.3,0.3,0.4,0.5c0.2,0.5,0.4,1.1,0.6,1.6C52.5,27.9,52.7,28.6,52.6,29.6z M47.2,25.3c-0.1-0.1-0.2-0.4-0.4-0.4
			c-0.3-0.2-0.6-0.3-0.9-0.3c-0.9,0-1.8,0-2.6,0c-0.2,0-0.4,0.1-0.4,0.4c0,0.5-0.1,1-0.1,1.5c-0.1,1.1-0.2,2.1,0.1,3.2
			c0,0.1,0.2,0.3,0.3,0.3c1.5,0.3,3,0.5,4.6,0c0.8-0.2,1-0.6,0.9-1.4c-0.1-0.5-0.2-1-0.7-1.3c0,0.3,0,0.5,0,0.7c0,0.6-0.3,1-0.9,1.2
			c-1.1,0.3-2.2,0.2-3.2-0.4c-0.1-0.1-0.2-0.3-0.2-0.5c0-0.5,0-1,0-1.5c0-0.5,0-0.9,0.1-1.4c0-0.1,0.1-0.3,0.1-0.2
			c0.4,0.1,0.8,0.2,1.2,0.3c0,0,0,0.1,0.1,0.1c0.2,0.5,0.5,0.6,1,0.4C46.4,25.7,46.7,25.5,47.2,25.3z M42.9,21.4
			c0.1,0.6,0.2,1.1,0.4,1.6c0,0.1,0.2,0.3,0.3,0.3c0.8,0.2,1.6-0.3,1.8-1.1c0.2-0.8,0-1.6-0.3-2.3c-0.2-0.4-0.5-0.7-1-0.7
			c-0.4,0-0.7,0.3-0.8,0.6C43.2,20.4,43.1,20.9,42.9,21.4z M48.7,31.8c0-0.4-0.2-0.7-0.5-0.7C47,31.1,45.9,31,44.7,31
			c-0.6,0-1.2,0-1.6,0.4c-0.1,0.1-0.2,0.3-0.2,0.3c0.1,0.1,0.2,0.2,0.4,0.2c0.4,0,0.8-0.1,1.2-0.1c0.2,0,0.3,0,0.5,0
			c0.4,0.1,0.7,0.2,1.1,0.2c0.7,0,1.4-0.1,2,0.1C48.2,32.3,48.7,32,48.7,31.8z M50.2,32.5c0.5-0.4,1-0.3,1.5-0.2
			c0.1,0,0.3-0.1,0.3-0.1c-0.1-0.5-0.1-1-0.3-1.3c-0.3-0.3-0.8-0.5-1.2-0.6c-0.3-0.1-0.6,0.1-0.7,0.4C49.7,31.2,49.9,31.8,50.2,32.5
			z M50.4,26.4c-0.1-0.3-0.1-0.6-0.3-0.9c-0.1-0.3-0.3-0.6-0.7-0.5c-0.3,0.1-0.6,0.3-0.7,0.7c-0.1,0.6,0.1,1.1,0.6,1.5
			c0.3,0.3,0.7,0.2,1-0.2C50.3,26.9,50.3,26.6,50.4,26.4z M47.8,22.9C47.8,22.9,47.8,22.9,47.8,22.9c-0.2,0.1-0.4,0.1-0.7,0.1
			c-0.1,0-0.4,0.1-0.4,0.2c0,0.2,0,0.4,0.1,0.5c0.1,0.1,0.3,0.3,0.4,0.3c0.5,0,1.1,0,1.6-0.1c0.1,0,0.2-0.3,0.2-0.3
			c-0.1-0.2-0.2-0.4-0.4-0.4C48.5,23,48.1,22.9,47.8,22.9z M45.5,27.9c0.3-0.1,0.6-0.1,0.9-0.2c0.1-0.1,0.2-0.3,0.2-0.5
			c0-0.1-0.1-0.4-0.2-0.4c-0.3-0.1-0.7-0.1-1,0c-0.4,0-0.6,0.3-0.5,0.7C44.8,27.7,45,27.9,45.5,27.9z M51,28c-0.2,0-0.3,0-0.5,0.1
			c-0.3,0.1-0.5,0.6-0.2,0.8c0.2,0.2,0.5,0.4,0.8,0.5c0.3,0.1,0.5,0,0.4-0.3c-0.1-0.3-0.1-0.5-0.2-0.8C51.2,28.2,51.1,28.1,51,28z
			 M46.3,21.7c0.2,0.2,0.3,0.4,0.4,0.4c0.3,0,0.6-0.1,0.9-0.1c0,0,0.1-0.1,0.1-0.2c0-0.3-0.5-0.7-0.9-0.6
			C46.6,21.2,46.5,21.5,46.3,21.7z"/>
		<path class="st0" d="M20.2,27.4c-0.8,0.4-0.9,0.9-0.6,1.6c0.3,0.5,0.6,1.1,0.9,1.6c0.3,0.6,0.4,1.2,0,1.8c0,0.1-0.1,0.2-0.1,0.3
			c0.3,0.9,0.1,1.8-0.1,2.7c-0.1,0.7-0.2,1.4-0.3,2.1c0,0.2-0.1,0.3-0.2,0.4c-0.2,0.2-0.4,0.4-0.6,0.6c-0.1,0.1-0.2,0.4-0.2,0.5
			c0.3,0.9,0.6,1.9,0.9,2.8c0.1,0.5,0.3,0.9,0.4,1.4c0,0-0.1,0-0.1,0c-0.1-0.1-0.1-0.2-0.2-0.3c-0.5-0.7-0.9-1.4-1.4-2.1
			c-0.1-0.2-0.3-0.5-0.7-0.3c-0.3,0.2-0.6,0.7-0.4,1c0.4,1,0.9,2,1.3,3c0.3,0.7,0.7,1.5,1.1,2.2c0.1,0.1,0.1,0.2,0,0.4
			c-0.2-0.3-0.4-0.5-0.6-0.8c-1.3-1.8-2.5-3.5-3.4-5.5c-0.1-0.2-0.2-0.4-0.3-0.6c-0.1-0.4,0-0.6,0.4-0.6c0.2,0,0.3-0.1,0.5-0.1
			c0.7-0.1,0.9-0.6,0.5-1.2c-0.1-0.1-0.3-0.3-0.4-0.4c-0.3-0.2-0.4-0.4-0.4-0.8c0.1-1.4,0.2-2.9,0.4-4.3c0.1-0.8,0.2-1.5,0.3-2.2
			c0-0.2,0.2-0.5,0.4-0.7c0.5-0.5,1-1,1.1-1.7c0-0.4,0-0.7-0.1-1.1c-0.1-0.3-0.1-0.5,0.2-0.7c0.1-0.1,0.2-0.2,0.3-0.3
			c0.2,0.2,0.5,0.3,0.7,0.5c0.3,0.2,0.5,0.1,0.5-0.2c0.1-0.4,0.2-0.9,0.1-1.4c-0.1-0.5-0.1-0.9,0-1.3c0.1-0.5,0.1-1,0.1-1.5
			c0-0.7,0.3-1.2,1-1.4c0.4-0.2,0.9-0.4,1.3-0.6c0.5-0.3,0.9-0.6,0.9-1.2c0-0.1,0.2-0.3,0.3-0.4c0.1,0,0.3,0.1,0.4,0.2
			c0.1,0.1,0.1,0.3,0.1,0.4c0,0.9,0.6,1.5,1.2,2c0.2,0.2,0.4,0.3,0.6,0.4c0.4,0.2,0.4,0.5,0.4,0.9c-0.1,1.7-0.3,3.4-0.4,5.1
			c0,0.6-0.1,1.2,0.2,1.8c0.1,0.3,0.1,0.8,0,1.2c-0.4,0.8-0.2,1.6,0,2.3c0.1,0.4,0.1,0.8,0.1,1.1c0,0.2,0,0.4-0.1,0.5
			c-0.6,0.8-0.5,1.7-0.5,2.6c0,1.6,0,3.2,0.1,4.8c0,0.8-0.1,1.6-0.4,2.4c-0.2,0.4-0.1,0.9-0.1,1.3c0,0.6,0.2,1.1,0.2,1.7
			c0.1,0.8-0.1,1.6-0.5,2.3c0,0.1-0.1,0.1-0.1,0.2c0,0-0.1,0-0.2,0.1c0-0.4-0.1-0.8-0.1-1.1c-0.1-1.3-0.1-2.6-0.1-3.9
			c0-0.5,0.2-1-0.1-1.5c0-0.1,0-0.2,0-0.3c0.4-0.8,0.4-1.6,0.3-2.4c-0.2-1.9,0.1-3.7,0.3-5.5c0.1-1.6,0.1-3.2,0.1-4.8c0-1,0-2,0.1-3
			c0.1-1.1,0.1-2.2,0.2-3.3c0-0.3,0.1-0.6,0.2-0.9c0.1-0.9-0.3-1.6-1-2c-0.7-0.4-1.4-0.5-2.2,0c-0.3,0.2-0.4,0.4-0.4,0.7
			c-0.2,1.5-0.5,2.9-0.7,4.4c-0.1,0.8-0.2,1.7-0.3,2.6c0,0.2-0.2,0.4-0.2,0.5c-0.1-0.2-0.2-0.3-0.3-0.5
			C20.3,28.3,20.2,27.9,20.2,27.4z M19.4,35.3c0-0.7-0.1-0.9-0.5-1c-0.4-0.1-0.8,0-0.9,0.3c-0.2,0.5-0.3,1-0.3,1.4
			c0.1,0.9,0.3,1,1.1,0.7c0.1,0,0.3-0.2,0.4-0.3C19.3,36,19.4,35.5,19.4,35.3z M18.1,32.2c0,1-0.1,0.9,0.8,0.9
			c0.5,0,0.7-0.2,0.7-0.7c0-0.5-0.1-1-0.1-1.5c0-0.4-0.1-0.5-0.5-0.5c-0.4,0-0.6,0.2-0.7,0.6C18.2,31.4,18.1,31.8,18.1,32.2z"/>
		<path class="st0" d="M48.9,39.8c0.1,0,0.1,0,0.1,0c1,0.2,1.1,0.4,0.7,1.3c-0.2,0.4-0.4,0.9-0.7,1.3c-0.2,0.3-0.2,0.5-0.1,0.8
			c0.3,0.7,0.6,1.4,0.5,2.2c0,0.2-0.1,0.5-0.2,0.7c0,0-0.1,0-0.1,0c-0.1-0.3-0.2-0.7-0.3-1c-0.2-0.5-0.4-0.8-0.9-0.9
			c-0.3-0.1-0.4,0-0.4,0.3c-0.1,0.8-0.1,1.6-0.2,2.4c0,0.5-0.2,0.9-0.2,1.4c0,0.1-0.1,0.2-0.2,0.2c-0.5,0-0.6,0.4-0.9,0.6
			c-0.6,0.4-1.3,0.8-1.9,1.2c-0.5,0.3-1.1,0.6-1.7,0.9c0.2-0.3,0.3-0.6,0.6-0.9c0.7-0.7,1.4-1.5,2.1-2.1c0.5-0.4,0.7-1,0.9-1.5
			c0.1-0.2,0-0.4-0.1-0.6c0-0.1-0.3,0-0.4,0c-0.7,0.4-1.3,0.7-2,1.1c-0.3,0.2-0.7,0.3-1.1,0.5c-0.1-0.4,0.1-0.5,0.3-0.7
			c0.3-0.2,0.6-0.4,0.9-0.6c0.2-0.2,0.5-0.4,0.7-0.6c0.3-0.3,0.6-0.5,0.9-0.8c0.2-0.2,0.5-0.3,0.7-0.5c0.1-0.1,0.2-0.4,0.2-0.5
			c0-0.3-0.2-0.4-0.5-0.3c-0.7,0.3-1.5,0.6-2.2,0.9c-0.1,0-0.1,0.1-0.2,0.1c-0.2,0-0.3,0-0.5,0c0.1-0.2,0.1-0.4,0.3-0.5
			c0.5-0.4,1-0.9,1.5-1.3c0.2-0.2,0.5-0.3,0.8-0.4c0.4-0.1,0.5-0.4,0.5-0.8c0-0.2,0-0.4-0.1-0.5c-0.3-0.6-0.4-0.7-1-0.5
			c-0.4,0.1-0.7,0.2-1.1,0.3c-0.2,0-0.4,0-0.6,0c0,0,0-0.1-0.1-0.1c0.2-0.2,0.4-0.4,0.6-0.6c0.4-0.2,0.9-0.4,1.4-0.5
			c0.4-0.1,0.6-0.8,0.3-1.1c0-0.1-0.1-0.1-0.2-0.1c-0.7,0-1.3,0-2,0c-0.3,0-0.6,0.2-0.6,0.6c-0.1,1-0.3,2.1-0.3,3.1
			c0,2.7-0.3,5.3-0.6,7.9c0,0.5-0.2,0.9-0.3,1.4c-0.4-0.2-0.5-0.5-0.5-0.9c0-0.5,0.1-1,0.1-1.5c0-0.5,0-1-0.1-1.6c0-0.1,0-0.3,0-0.4
			c0.4-1.3,0.3-2.7,0.2-4c-0.1-1-0.1-2,0-3.1c0-0.3,0.1-0.6,0.2-0.9c0.2-0.6,0.3-1.2,0.2-1.8c0-0.3,0-0.6,0-0.8
			c0.1-0.6,0.1-0.8,0.8-0.9c0.6-0.1,1.2-0.1,1.9-0.1c0.6,0,1.2,0,1.8-0.1c0.4,0,0.8-0.2,1-0.7c0.2-0.4,0.8-0.4,1,0
			c0.5,1.1,1.4,1.2,2.4,1.3c0.8,0.1,1.6,0.1,2.4,0.2c0.3,0,0.5,0.2,0.4,0.5c-0.1,0.6-0.1,1.1-0.2,1.7c-0.1,0.6-0.1,1.1-0.2,1.7
			c0,0.1,0,0.3-0.1,0.3c-0.7,0.4-1,1.1-1.4,1.6c-0.2,0.3-0.4,0.5-0.6,0.8c-0.1,0.1-0.2,0.2-0.4,0.3c0,0-0.1,0-0.1,0
			c0-0.3,0-0.6,0.1-0.8c0.2-0.5,0.4-1,0.7-1.5c0.3-0.6,0.5-1.3,0.2-2c-0.1-0.2-0.2-0.3-0.5-0.3c-1.1,0-2.1,0.2-3.1,0.8
			c-0.4,0.3-0.7,0.6-0.7,1.1c0.1,0.6,0.5,0.9,0.9,1.2c0.1,0.1,0.3,0,0.4-0.1c0.5-0.3,0.7-0.7,0.8-1.2C48.8,40.4,48.9,40.1,48.9,39.8
			z M44.1,36.7C44.1,36.7,44.1,36.8,44.1,36.7c-0.4,0.1-0.8,0.1-1.3,0.1c-0.3,0-0.3,0.2-0.2,0.4c0.1,0.2,0.3,0.4,0.5,0.4
			c0.3,0.1,0.7,0.2,1.1,0.2c0.5,0,1,0,1.5,0c0.9,0.1,1.8,0.2,2.7,0.2c0.5,0,1.1-0.2,1.6,0.1c0.3,0.1,0.5-0.1,0.5-0.4
			c0-0.4-0.2-0.6-0.6-0.6C47.9,37,46,36.8,44.1,36.7z"/>
		<path class="st0" d="M21.8,30.4c-0.1-1.8,0-3.7,0.3-5.5c0.1-0.5,0.2-0.9,0.3-1.3c0.1-0.5,0.5-0.7,1-0.6c1.2,0.1,1.4,0.2,1.4,1.5
			c0,2.3-0.1,4.5-0.2,6.8c0,0.7-0.3,1.2-0.9,1.6c-0.3,0.2-0.5,0.4-0.8,0.6c-0.5,0.5-0.5,1-0.1,1.5c0.2,0.2,0.4,0.4,0.7,0.6
			c0.6,0.5,0.6,1.1,0.6,1.8c-0.1,2-0.2,3.9-0.3,5.9c-0.1,1-0.1,2-0.2,3c0,0.6-0.1,1.3-0.1,1.9c0,0.4-0.1,0.7-0.2,1
			c-0.2,0.4-0.5,0.5-0.8,0.2c-0.5-0.3-0.9-0.7-1.3-1.1C21,48.1,21,47.9,21,47.9c0.3-1.2,0.2-2.4,0.1-3.7c-0.1-2,0.1-3.9,0.2-5.8
			c0.2-1.9,0.3-3.9,0.4-5.8C21.8,31.9,21.8,31.1,21.8,30.4z M22.4,37.4c-0.1,0.4-0.2,0.8-0.2,1.1c0,0.7,0.1,1.3,0,2
			c-0.2,1.7-0.2,3.4-0.1,5.1c0,0.2,0.1,0.4,0.1,0.5c0,0.1,0.2,0.1,0.3,0.2c0.1-0.1,0.2-0.2,0.2-0.3c0.1-0.4,0.2-0.9,0.2-1.3
			c0.1-2.1,0.1-4.3,0.2-6.4C23.1,37.7,23.1,37.7,22.4,37.4z M23.9,27C23.9,27,23.8,27,23.9,27c-0.1-0.7-0.1-1.4-0.1-2.2
			c0-0.3-0.1-0.4-0.4-0.4c-0.3,0-0.3,0.2-0.3,0.4c-0.2,2-0.3,4-0.5,5.9c0,0.4,0.2,0.4,0.4,0.5c0.3,0.1,0.4-0.1,0.4-0.4
			C23.7,29.6,23.8,28.3,23.9,27z"/>
		<path class="st0" d="M33,47.3c0.8,0.1,1.8,0.2,2.8,0.3c1,0.2,1.5,0.8,1.5,1.8c0,1-0.4,2-0.8,2.9c0,0.1-0.1,0.2-0.2,0.2
			c-1.9,0.5-3.7,0.7-5.6,0c-0.2-0.1-0.4-0.2-0.6-0.3c-0.4-0.3-0.7-0.6-0.6-1.2c0.1-0.6,0-1.2,0-1.8c-0.1-1.1,0.5-1.6,1.6-1.7
			C31.6,47.4,32.2,47.4,33,47.3z M33.2,51.7c0.8-0.1,1.3-0.1,1.9-0.1c0.5,0,0.7-0.2,0.7-0.6c0.1-0.5,0-0.6-0.5-0.6
			c-1.3-0.1-2.5-0.2-3.8-0.2c-0.4,0-0.5,0.4-0.5,0.6c-0.1,0.4,0.1,0.7,0.4,0.7C32,51.5,32.7,51.6,33.2,51.7z M34.1,49.4
			c0.6-0.1,1-0.2,1.4-0.2c0.1,0,0.2-0.1,0.3-0.2c-0.1-0.1-0.1-0.2-0.2-0.2c-0.8-0.4-1.6-0.5-2.5-0.6c-0.5,0-0.9,0.1-1.4,0.2
			c-0.1,0-0.2,0.1-0.3,0.2c0.1,0.1,0.2,0.2,0.3,0.2C32.6,49.1,33.4,49.3,34.1,49.4z"/>
		<path class="st0" d="M27.1,58.7c0,0.4-0.4,0.9-1,1.1c-0.5,0.2-0.5,0.2-0.4,0.7c0.1,0.3,0.1,0.7,0.2,1c0,0.4-0.2,0.7-0.6,0.7
			c-0.3,0-0.4-0.1-0.4-0.3c-0.2-0.8-0.5-1.6-1.3-2c-0.3-0.2-0.7-0.4-1.1-0.5c-0.3-0.1-0.6,0-0.8,0.3c-0.2,0.3-0.6,0.5-0.9,0.7
			c-0.3,0.2-0.6,0-0.8-0.2c-0.1-0.1-0.1-0.3-0.1-0.4c0.7-1.2,1.3-2.4,2-3.7c0.2-0.3,0.4-0.4,0.7-0.3c1,0.2,1.9,0.4,2.9,0.6
			C26.5,56.7,27.1,57.6,27.1,58.7z M23.6,56.8c-0.2,0-0.3,0-0.4,0c-0.4,0.1-0.6,0.4-0.8,0.8c-0.1,0.4,0.2,0.5,0.4,0.6
			c0.7,0.5,1.5,0.7,2.3,0.7c0.2,0,0.4,0,0.5-0.2c0.1-0.3,0.3-0.7,0-0.9C25.1,57.3,24.4,56.9,23.6,56.8z"/>
		<path class="st0" d="M32.7,64.1c-0.8,0-1.5-0.4-2-0.9c0,0-0.1-0.1-0.1-0.2c-0.8-0.7-0.9-1.5-0.7-2.5c0.2-1,0.7-1.7,1.6-2.2
			c1.2-0.8,2.4-0.3,3.5,0.3c1.2,0.6,1.6,1.8,1.2,3.1c-0.4,1.2-1.3,1.9-2.4,2.3C33.4,64,33.1,64,32.7,64.1z M35.2,61.2
			c0-1.3-0.7-2.2-1.9-2.3c-1,0-1.9,0.9-2,2c0,1.2,0.9,2.1,2.1,2.1C34.3,63,35.3,62.5,35.2,61.2z"/>
		<path class="st0" d="M52.6,54.4c0.1,0.2,0.2,0.4,0.3,0.5c0.5,0.9,0.4,1.6-0.8,1.9c-0.1,0-0.2,0.2-0.3,0.3
			c-0.2,0.5-0.6,0.8-1.1,0.9c-0.5,0-1-0.1-1.2-0.7c-0.1-0.1-0.2-0.2-0.4-0.2c-1,0-1.4-1.2-0.8-1.9c0.1-0.1,0.2-0.4,0.2-0.5
			c-0.1-1,0.7-1.7,1.7-1.5c0.2,0,0.4,0,0.6,0C51.7,52.6,52.7,53.3,52.6,54.4z"/>
		<path class="st0" d="M18.5,53.6c0.1,0.4,0.2,0.8,0.4,1.2c0.3,0.6,0.1,1.1-0.6,1.4c-0.3,0.1-0.6,0.3-0.8,0.6
			c-0.5,0.8-1.5,0.7-1.9-0.2c-0.1-0.1-0.2-0.2-0.3-0.3c-0.2-0.2-0.5-0.3-0.7-0.5c-0.5-0.5-0.5-0.7-0.1-1.3c0.2-0.3,0.4-0.7,0.5-1.1
			c0.2-0.9,0.6-1.1,1.4-0.7c0.2,0.1,0.4,0,0.5,0c0.1,0,0.2-0.1,0.3-0.1C18,52.2,18.6,52.6,18.5,53.6z"/>
		<path class="st0" d="M62.3,26.5c0,0.6-0.4,1.1-0.9,1.3c-0.1,0-0.3,0-0.4-0.1c-0.3-0.2-0.5-0.1-0.6,0.2c-0.4,0.5-0.8,0.8-1.4,0.9
			c-0.5,0.1-1,0-1.3-0.5c-0.3-0.6-0.5-1.2-0.8-1.9c-0.1-0.2-0.1-0.4-0.2-0.6c-0.2-0.4,0-0.6,0.4-0.7c1.2-0.5,2.4-1.1,3.6-1.7
			c0.1,0,0.3,0,0.4,0.1C61.8,24.3,62.3,25.3,62.3,26.5z M58.4,25.7c-0.3,0-0.4,0.1-0.5,0.4c-0.1,0.6,0.3,1.3,0.9,1.4
			c0.2,0,0.5,0,0.6-0.1c0.1-0.2,0.2-0.5,0.2-0.7C59.6,26.1,58.9,25.7,58.4,25.7z M61.6,25.9c0-0.6-0.5-1.2-1-1.2
			c-0.3,0-0.6,0.3-0.6,0.6c0,0.4,0.5,1.2,0.8,1.2C61.5,26.4,61.6,26.4,61.6,25.9z"/>
		<path class="st0" d="M44.2,57.4c-0.2,0.1-0.3,0.1-0.4,0.2c-0.6,0.2-1.2,0.3-1.8,0.5c-1,0.4-1.5,1.4-1.2,2.3
			c0.2,0.5,0.6,0.8,1.1,0.9c0.6,0.1,1.2-0.1,1.6-0.7c0.2-0.3,0.3-0.7,0.5-1c0.1-0.2,0.4-0.6,0.6-0.6c0.3,0.1,0.5,0.3,0.7,0.6
			c0.2,0.3,0.2,0.6,0,0.9c-0.6,1-1.5,1.5-2.6,1.7c-1.1,0.2-2.2,0-3.1-0.7c-0.4-0.3-0.5-0.6-0.5-1.1c0.3-2.8,2.9-3.6,4.8-3.1
			C44,57.3,44.1,57.4,44.2,57.4z"/>
		<path class="st0" d="M39.1,5.3c0.8,0,1.6,0.3,2.3,0.8c0.8,0.7,0.8,1.6,0,2.2c-0.3,0.3-0.4,0.5-0.3,0.9c0.1,0.4,0.2,0.8,0.2,1.2
			c0,0.5-0.3,0.8-0.8,0.6c-0.1,0-0.2-0.2-0.2-0.3c-0.1-0.4-0.1-0.8-0.1-1.2C40,8.9,39.6,8.6,39,8.8c-0.1,0-0.2,0.2-0.3,0.3
			c-0.1,0.3-0.2,0.6-0.3,1c-0.1,0.4-0.3,0.4-0.8,0.3c-0.3-0.1-0.4-0.2-0.3-0.6c0.2-1,0.5-2,0.7-3c0.1-0.3,0.1-0.6,0.2-0.9
			C38.4,5.3,38.4,5.3,39.1,5.3z M40.4,8.3c0.1-0.1,0.4-0.2,0.4-0.3c0.2-0.6-0.3-1.3-0.9-1.4c-0.6-0.1-1,0.4-0.8,1
			C39.3,8.2,39.9,8,40.4,8.3z"/>
		<path class="st0" d="M5.3,27.1c0.1-0.1,0.3-0.2,0.4-0.2c0.5-0.2,1-0.4,1.5-0.6c0.2-0.1,0.4-0.3,0.6-0.5c0.4-0.4,0.3-0.8-0.2-0.9
			c-0.3-0.1-0.7-0.2-1-0.3c-0.2-0.1-0.4-0.2-0.4-0.3c0-0.2,0.1-0.5,0.2-0.7c0-0.1,0.3,0,0.5,0c0.9,0.4,1.8,0.8,2.7,1.2
			c0.4,0.2,0.8,0.4,1.1,0.7c0.1,0.1,0.2,0.2,0.4,0.3c-0.3,0.1-0.5,0.2-0.8,0.3c-0.5,0.2-1.1,0.3-1.6,0.4c-0.3,0.1-0.7,0.2-0.6,0.6
			c0,0.2,0.4,0.4,0.7,0.5c0.3,0.1,0.6,0.2,0.9,0.3c0.3,0.1,0.5,0.3,0.3,0.6c-0.1,0.3-0.2,0.5-0.7,0.4c-1.4-0.3-2.7-0.9-4-1.5
			C5.4,27.2,5.4,27.2,5.3,27.1z"/>
		<path class="st0" d="M62.9,32.9c-0.1,0.2-0.1,0.6-0.3,0.9c-0.2,0.5-0.6,0.7-1.1,0.5c-0.7-0.4-1.3,0-1.9,0.3
			c-0.2,0.2-0.4,0.2-0.7,0c-0.5-0.4-0.5-0.6,0-1c0.2-0.2,0.5-0.3,0.7-0.5c0.2-0.1,0.2-0.3,0.2-0.6c0,0,0,0,0,0
			c-0.3-0.7-0.3-0.7-1-0.5c-0.5,0.1-1-0.4-0.9-0.9c0-0.1,0.2-0.2,0.3-0.2c0.7-0.1,1.5-0.3,2.2-0.4c0.4-0.1,0.9-0.2,1.3-0.3
			c0.3-0.1,0.4,0.1,0.5,0.2C62.7,30.9,63,31.9,62.9,32.9z M62.1,32.9c-0.1-0.3-0.1-0.6-0.2-0.8c-0.1-0.2-0.2-0.5-0.4-0.7
			c-0.2-0.2-0.6-0.1-0.7,0.2C60.7,32,61,33,61.3,33.2c0.1,0.1,0.4,0.2,0.5,0.1C62,33.3,62,33,62.1,32.9z"/>
		<path class="st0" d="M61.4,43.3c-0.1,0.6-0.2,1.2-0.4,1.7c-0.3,0.8-1.3,1.2-2,0.9c-0.2-0.1-0.4-0.2-0.5-0.4
			c-0.2-0.4-0.5-0.5-1-0.4c-0.2,0.1-0.5,0.1-0.7,0.1c-0.3,0-0.4-0.1-0.5-0.4c-0.2-0.7,0-1,0.7-1.1c0.3,0,0.6-0.1,0.9-0.1
			c0.3,0,0.6,0,0.6-0.3c0-0.3,0-0.6-0.1-0.9c-0.1-0.1-0.3-0.2-0.4-0.3c-0.2-0.1-0.5-0.1-0.4-0.4c0-0.3,0.2-0.6,0.5-0.7
			c0.3,0,0.6-0.1,0.8,0c0.8,0.3,1.6,0.7,2.4,1c0.1,0,0.1,0.2,0.2,0.3c0,0.2,0,0.5,0,0.7C61.3,43.3,61.3,43.3,61.4,43.3z M59.4,44.9
			c0.8,0,1.5-0.8,1.4-1.6c0-0.3-0.1-0.4-0.4-0.5c-0.6-0.1-1,0.1-1.3,0.6c-0.1,0.2-0.2,0.5-0.2,0.7C58.8,44.8,58.9,44.9,59.4,44.9z"
			/>
		<path class="st0" d="M15.4,32.4c0-0.6,0-1.2,0-1.7c0.1-0.8,0.2-1.6,0.3-2.4c0-0.1,0-0.2,0.1-0.3c0.7-0.6,1-1.4,1.3-2.2
			c0.2-0.3,0.3-0.7,0.5-1c0.3-0.4,0.5-0.7,0.4-1.2c0-0.1,0-0.2,0.1-0.3c0.6-0.3,0.7-0.8,0.8-1.3c0-0.2,0-0.4,0.3-0.4
			c0.3,0,0.3,0.2,0.3,0.4c0.2,1.1,0.1,2.1-0.2,3.2c0,0.1-0.1,0.2-0.2,0.3c-0.1-0.1-0.2-0.1-0.2-0.2c-0.2-0.4-0.2-0.4-0.5-0.1
			c-0.6,0.6-0.9,1.4-1.1,2.2c-0.3,0.8-0.5,1.5-1.1,2.2c-0.1,0.1-0.1,0.4-0.2,0.6c-0.2,0.7-0.3,1.3-0.5,2c0,0.1-0.1,0.1-0.1,0.2
			C15.5,32.4,15.5,32.4,15.4,32.4z"/>
		<path class="st0" d="M6.3,45c0.2-0.3,0.5-0.6,0.7-1c0.8-1,1.6-2,2.7-2.7c0.2-0.1,0.4-0.3,0.6-0.1c0.2,0.3,0.2,0.5,0,0.7
			c-0.1,0.1-0.2,0.2-0.4,0.3c-0.3,0.3-0.3,0.5,0,0.8c0.2,0.3,0.5,0.5,0.7,0.7c0.2,0.3,0.4,0.6,0.9,0.6c0.1,0,0.4,0.3,0.4,0.4
			c0,0.1-0.2,0.4-0.3,0.4c-0.6,0.4-1.3,0.4-2,0.3c-1.1-0.1-2.1-0.3-3.2-0.5C6.3,45.1,6.3,45.1,6.3,45z M9,44.6C9,44.6,9,44.6,9,44.6
			c0.2,0,0.4-0.1,0.4-0.2c0.1-0.2,0.2-0.5-0.1-0.7c-0.3-0.2-0.9,0-1.1,0.3c-0.1,0.4,0,0.5,0.4,0.5C8.7,44.5,8.9,44.6,9,44.6z"/>
		<path class="st0" d="M20,9.8c-0.4,0.1-0.8,0.2-1.2,0.3c-0.6,0.3-0.9,1.1-0.8,2c0.1,0.7,0.6,1.3,1.2,1.4c0.3,0,0.6,0,0.9-0.2
			c0.1-0.1,0.2-0.3,0.2-0.5c0-0.3-0.1-0.5-0.2-0.8c-0.1-0.3,0.1-0.4,0.3-0.4c0.6,0,1,0.5,1,1.1c0,1.3-1.1,2.2-2.4,2.1
			c-0.3,0-0.6-0.2-0.9-0.4c-0.9-0.8-1.5-1.7-1.5-2.9c0-1.1,0.8-1.9,1.9-2C19.2,9.5,19.6,9.5,20,9.8z"/>
		<path class="st0" d="M27.7,6.4C28,6.6,28.2,6.8,28.5,7c0.4,0.3,0.8,0.6,1.2,0.8C30,8,30.2,7.9,30.3,7.5c0.1-0.5,0.1-1,0.2-1.6
			c0-0.2,0.2-0.5,0.3-0.5c0.2,0,0.5,0.1,0.7,0.2c0.1,0,0.1,0.2,0.1,0.3c-0.1,1.3-0.1,2.5-0.2,3.8c0,0.1,0,0.2,0,0.3
			c0,0,0,0.1-0.1,0.2C31,10,30.8,9.8,30.6,9.6c-0.4-0.3-0.7-0.6-1.1-0.8c-0.1-0.1-0.4-0.2-0.5-0.1c-0.1,0.1-0.1,0.3-0.1,0.5
			c0,0.3,0,0.7,0.1,1c0,0.4-0.2,0.5-0.7,0.5c-0.4,0-0.5-0.1-0.5-0.5c0-1-0.1-2.1-0.1-3.1c0-0.2,0-0.4,0-0.6
			C27.6,6.5,27.7,6.4,27.7,6.4z"/>
		<path class="st0" d="M7.2,33.7c-0.8-0.1-1.5-0.2-2.1-0.7C3.7,32,4.3,30.6,5.3,30c0.6-0.4,1.2-0.5,1.9-0.4c1,0.1,1.9,0.5,2.5,1.4
			c0.4,0.5,0.3,0.9,0,1.4c-0.5,0.8-1.2,1.1-2,1.2C7.5,33.7,7.3,33.7,7.2,33.7z M7.6,30.2c-0.5,0.1-0.9,0.2-1.3,0.3
			c-0.9,0.3-0.8,1.3-0.3,1.7c0.6,0.5,1.7,0.7,2.4,0.3c0.7-0.4,0.9-1.3,0.2-1.8C8.4,30.5,8,30.4,7.6,30.2z"/>
		<path class="st0" d="M59.5,39.9c-0.5,0-1-0.1-1.5-0.1c-0.3,0-0.4-0.2-0.3-0.5c0-0.3,0.2-0.3,0.4-0.2c0.6,0.2,0.9,0,1-0.5
			c0.2-0.6-0.1-1.2-0.7-1.3c-0.4-0.1-0.5-0.2-0.4-0.7c0-0.4,0.3-0.4,0.5-0.4c1.3,0.1,2.6,0.4,3.6,1.2c0.2,0.2,0.4,0.4,0.5,0.6
			c0.2,0.5,0.1,1-0.4,1.3c-0.4,0.2-0.8,0.4-1.3,0.4C60.6,39.9,60,39.9,59.5,39.9z M60.9,39.1c0.3-0.1,0.6-0.2,0.9-0.4
			c0.2-0.1,0.2-0.4,0-0.5c-0.3-0.2-0.7-0.3-1.1-0.4c-0.5,0-0.8,0.5-0.5,0.9C60.3,38.9,60.6,39,60.9,39.1z"/>
		<path class="st0" d="M8.9,19.5c1.5,0,2.8,0.5,4,1.2c0.1,0.1,0.1,0.2,0.2,0.2c-0.1,0.1-0.2,0.2-0.3,0.2c-0.2,0-0.4,0-0.6,0
			c-0.4,0-0.6,0.2-0.7,0.6c-0.1,0.6,0.1,1,0.4,1.5c0.3,0.3,0.2,0.4-0.2,0.6c-0.4,0.1-0.7,0-1-0.1c-0.8-0.5-1.5-1.1-2-1.9
			c-0.3-0.5-0.6-1-0.9-1.6c-0.2-0.4-0.1-0.6,0.4-0.6C8.6,19.5,8.7,19.5,8.9,19.5z M11,21c0-0.1-0.1-0.3-0.2-0.3
			c-0.2-0.1-0.5-0.3-0.8-0.3c-0.1,0-0.3,0-0.4,0c-0.1,0.1-0.2,0.3-0.1,0.5c0.1,0.2,0.2,0.5,0.4,0.7c0.2,0.2,0.5,0.4,0.6,0.3
			c0.2-0.1,0.3-0.4,0.4-0.6C11,21.2,11,21.1,11,21z"/>
		<path class="st0" d="M12.3,46.6c-0.1,0.4-0.1,0.7-0.2,1c-0.1,0.5-0.2,0.9-0.2,1.4c0,0.5,0.1,0.5,0.5,0.3c0.3-0.1,0.6-0.3,1-0.4
			c0.2-0.1,0.4-0.1,0.5,0.2c0.1,0.3,0.2,0.5-0.2,0.7c-1.1,0.6-2.2,1.3-3.4,1.9c0,0-0.1,0-0.2,0.1c0.2-0.5,0.4-1,0.5-1.4
			c0.1-0.6,0.3-1.1,0.2-1.7c0-0.6-0.2-0.7-0.8-0.4c-0.4,0.3-0.9,0.5-1.3,0.8c-0.3,0.1-0.8-0.2-0.8-0.5c0-0.1,0.1-0.2,0.3-0.3
			c0.8-0.4,1.5-0.7,2.3-1.1C11.1,46.9,11.6,46.8,12.3,46.6z"/>
		<path class="st0" d="M25.1,7.1c-0.5,0.3-1,0.5-1.4,0.8c-0.4,0.2-0.5,0.5-0.3,1c0.1,0.4,0.3,0.5,0.7,0.4c0.5-0.1,1-0.3,1.5-0.4
			c0.1,0,0.2,0,0.4-0.1c0,0,0,0.1,0.1,0.1c-0.1,0.1-0.2,0.3-0.4,0.3c-0.3,0.2-0.6,0.3-0.8,0.5c-0.2,0.2-0.5,0.4-0.6,0.7
			c-0.2,0.3-0.1,0.6,0.3,0.6c0.6,0.1,1.1,0,1.7-0.2c0.1,0,0.2-0.1,0.4-0.1c-0.1,0.1-0.1,0.3-0.2,0.4c-1,1.2-2.5,1.1-3.4-0.2
			c-0.5-0.7-0.7-1.6-0.8-2.5c0-0.1,0-0.3,0.1-0.4C23,7.4,24,7.1,25,7C25,7,25.1,7.1,25.1,7.1z"/>
		<path class="st0" d="M45.2,52.6c-0.5,0.4-1,0.7-1.7,0.9c-1.3,0.4-2.5,0.9-3.7,1.3c-1.7,0.6-3.6,0.7-5.4,0.7
			c-1.8,0-3.5-0.2-5.2-0.7c-0.2-0.1-0.4-0.2-0.6-0.2c0,0,0-0.1,0-0.1c0.2,0,0.5,0.1,0.7,0.1c3.6,0.6,7.1,0.5,10.6-0.5
			c0.6-0.2,1.2-0.3,1.9-0.5c0.8-0.2,1.6-0.5,2.3-0.7c0.3-0.1,0.7-0.3,1-0.4C45.2,52.5,45.2,52.6,45.2,52.6z"/>
		<path class="st0" d="M56,51.5c0.1-0.4,0.1-0.7,0.2-1c0.1-0.6,0-1.1-0.6-1.5c-0.4-0.3-0.8-0.6-1.1-0.9c-0.4-0.3-0.4-0.6-0.2-0.9
			c0.2-0.3,0.5-0.3,0.9-0.1c0.4,0.3,0.8,0.7,1.2,0.9c0.2,0.1,0.4,0.2,0.6,0.1c0.5-0.1,1-0.3,1.5-0.5c0.3-0.1,0.4,0,0.5,0.2
			c0.3,0.7,0.2,1-0.6,1.2c-0.1,0-0.2,0.1-0.4,0.1c-0.8,0.1-0.8,0.1-0.8,0.9c0,0.4,0,0.9-0.1,1.3c-0.1,0.4-0.3,0.5-0.7,0.4
			C56.2,51.8,56.1,51.6,56,51.5z"/>
		<path class="st0" d="M45.6,7.6c0.1,0.4,0.1,0.6,0.2,0.9c0.1,1,0.2,2.1,0.2,3.1c0,0.3-0.2,0.6-0.3,0.9c-0.1,0.2-0.3,0.2-0.3-0.1
			c0-0.1-0.1-0.3-0.1-0.4c0.1-0.5-0.2-0.8-0.6-1c-0.1-0.1-0.2-0.1-0.4-0.1c-0.4-0.2-0.6-0.1-0.7,0.3c-0.3,0.5-0.8,0.6-1.2,0.2
			c-0.2-0.2-0.1-0.3,0-0.5c0.5-0.9,1.2-1.7,2-2.3C44.7,8.2,45.1,7.9,45.6,7.6z M45.3,10.5c0-0.3,0-0.6,0-0.9c0-0.2-0.2-0.5-0.3-0.5
			c-0.2,0-0.4,0.1-0.6,0.3c-0.1,0.1-0.2,0.3-0.2,0.4c0,0.1,0,0.2,0.1,0.3C44.5,10.2,44.8,10.3,45.3,10.5z"/>
		<path class="st0" d="M32.1,13.2c0.7-0.4,1.4-0.5,2.2-0.5c3.2-0.1,6.2,0.8,9.1,2.2c2.5,1.2,4.5,2.8,6.5,4.7
			c0.3,0.3,0.5,0.6,0.8,0.9c0,0,0,0-0.1,0.1c-0.2-0.1-0.4-0.3-0.5-0.4c-1.3-1.1-2.6-2.2-3.9-3.3c-0.2-0.1-0.4-0.1-0.6-0.2
			c-0.2-0.1-0.5-0.2-0.7-0.3c-0.6-0.5-1.3-0.8-2.1-1.1c-0.9-0.3-1.8-0.7-2.7-1c-0.1,0-0.2-0.1-0.2-0.1c-0.8-0.7-1.7-0.7-2.7-0.8
			c-1.6-0.2-3.2-0.2-4.9,0C32.3,13.3,32.2,13.2,32.1,13.2z"/>
		<path class="st0" d="M36.8,6c-0.3,0.1-0.6,0.1-0.9,0.2c-0.3,0-0.5,0.1-0.5,0.4c-0.1,0.4-0.1,0.9-0.2,1.3c0,0.6-0.1,1.2-0.1,1.7
			c0,0.4-0.2,0.5-0.6,0.5c-0.1,0-0.3-0.1-0.4-0.1c-0.2-0.1-0.3-0.2-0.3-0.4C34,8.8,34.1,8,34.2,7.2c0-0.1,0.1-0.3,0.1-0.4
			c0-0.3-0.1-0.4-0.4-0.4c-0.1,0-0.2,0-0.3,0c-0.3,0-0.6,0.1-0.7-0.3c-0.1-0.4,0.1-0.8,0.5-0.9c0.2-0.1,0.5-0.1,0.7-0.1
			c0.9,0,1.8,0.2,2.7,0.6c0,0,0.1,0.1,0.1,0.1C36.8,6,36.8,6,36.8,6z"/>
		<path class="st0" d="M16.1,17.4c-0.2,0.7-0.5,1.3-1.1,1.8c-0.4,0.4-1,0.4-1.5,0.3c-0.7-0.2-1.3-0.7-1.8-1.2
			c-0.4-0.4-0.8-0.8-1.2-1.2c-0.2-0.2-0.4-0.3-0.2-0.6c0.2-0.3,0.5-0.5,0.8-0.3c0.3,0.1,0.5,0.3,0.7,0.5c0.5,0.5,0.9,1,1.4,1.5
			c0.6,0.6,0.8,0.6,1.5,0.1c0.3-0.2,0.6-0.5,0.9-0.7C15.8,17.3,15.9,17.3,16.1,17.4C16,17.3,16,17.3,16.1,17.4z"/>
		<path class="st0" d="M5.5,37.9c0.2,0.3,0.3,0.6,0.4,0.8c0.2,0.3,0.4,0.4,0.7,0.4c0.9-0.2,1.7-0.4,2.6-0.5c0.4-0.1,0.5,0.2,0.7,0.5
			c0.1,0.3,0,0.5-0.2,0.6c-0.5,0.1-1,0.2-1.5,0.3C7.8,40,7.4,40,7,40.1c-0.4,0.1-0.5,0.2-0.4,0.6c0,0.2,0.1,0.3,0.1,0.5
			c0.1,0.3,0.1,0.5-0.2,0.6c-0.3,0.1-0.5,0.2-0.8-0.1c-0.4-0.3-0.5-0.7-0.5-1.2C5.3,39.8,5.4,38.9,5.5,37.9z"/>
		<path class="st0" d="M15.7,23.6c0.2-0.4,0.4-0.8,0.6-1.1c1-1.8,2.3-3.3,4-4.4c0.4-0.3,0.8-0.6,1.2-0.9c0.1-0.1,0.2-0.2,0.3-0.3
			c0.4-0.5,1-0.4,1.4-0.9c0.3-0.4,1-0.6,1.5-0.9c0.5-0.3,1.1-0.5,1.6-0.7c0.5-0.2,1.1-0.4,1.7-0.5c0.6-0.2,1.2-0.2,1.7-0.4
			c0.2,0,0.3,0,0.5,0.1c-0.1,0-0.2,0.1-0.3,0.1c-2.9,0.8-5.7,2-8.1,3.9c-0.8,0.7-1.7,1.1-2.5,1.8c-1.3,1-2.2,2.4-3.1,3.8
			C16.1,23.2,16,23.4,15.7,23.6C15.8,23.6,15.7,23.6,15.7,23.6z"/>
		<path class="st0" d="M55.2,20.7c-0.6-0.1-0.9-0.4-1.2-0.7c-0.4-0.4-0.7-0.9-1-1.4c-0.1-0.1,0-0.4,0.1-0.5c0.4-0.5,0.8-0.9,1.3-1.3
			c0.5-0.5,1.2-0.9,1.7-1.4c0.2-0.1,0.3-0.1,0.4,0c0.3,0.3,0.3,0.7,0,1.1c-0.3,0.3-0.7,0.6-1,0.9c-0.3,0.3-0.7,0.5-1.1,0.7
			c-0.3,0.2-0.3,0.4-0.2,0.7c0.3,0.5,0.6,1.1,0.9,1.6C55.1,20.5,55.1,20.6,55.2,20.7z"/>
		<path class="st0" d="M50,14.7c-1.3-0.3-2.4-0.7-3-2c-0.1-0.1-0.1-0.3,0-0.4c0.4-0.7,0.8-1.4,1.2-2c0.4-0.5,0.9-0.6,1.4-0.3
			c0.2,0.2,0.3,0.4,0.1,0.6c-0.2,0.3-0.4,0.5-0.6,0.7c-0.1,0.2-0.3,0.3-0.4,0.5c-0.5,0.7-0.5,1.3,0.3,1.9c0.3,0.3,0.7,0.5,1,0.8
			C50,14.5,50.1,14.6,50,14.7C50.1,14.7,50.1,14.7,50,14.7z"/>
		<path class="st0" d="M13,35.3c0.1,0.2,0.2,0.4,0.2,0.6c0.3,2.4,0.8,4.7,1.8,6.9c1,2.5,2.5,4.7,4.3,6.6c0.1,0.1,0.1,0.1,0.2,0.2
			c0,0,0,0.1,0,0.2c-0.2-0.1-0.5-0.2-0.6-0.3c-0.3-0.3-0.6-0.6-1-0.9c-1.1-1-1.4-2.4-2-3.6c-0.7-1.3-1.3-2.6-1.9-3.9
			c-0.8-1.7-1.1-3.6-1.2-5.4c0-0.1,0-0.1,0-0.2C13,35.3,13,35.3,13,35.3z"/>
		<path class="st0" d="M59.7,20.9c-0.1,0.1-0.1,0.3-0.3,0.4c-0.2,0.2-0.5,0.3-0.7,0.4c-0.7,0.4-1.4,0.7-2.1,1.1
			C56.4,22.9,56.2,23,56,23c-0.1,0-0.3-0.1-0.4-0.1c0-0.1,0-0.3,0.1-0.4c0.8-0.9,1.7-1.6,2.8-2.1c0.1,0,0.2-0.1,0.3-0.1
			C59.3,20.1,59.6,20.3,59.7,20.9z"/>
		<path class="st0" d="M13,34.8c-0.8-3.2,0.2-6.1,1.6-8.9C13.6,28.8,13.6,31.9,13,34.8z"/>
		<path class="st0" d="M9.7,35.9c-0.3,0.1-0.6,0.3-0.9,0.3c-0.7,0.1-1.4,0-2.1,0c-0.5,0-1.1,0-1.6,0.1c-0.3,0-0.4-0.1-0.5-0.4
			c-0.1-0.6,0-0.7,0.5-0.8c1.4-0.1,2.8,0,4.2,0.3c0.1,0,0.2,0.1,0.3,0.1C9.6,35.8,9.7,35.9,9.7,35.9z"/>
		<path class="st0" d="M54.4,41.6c0.1-0.6,0.3-1.2,0.4-1.8c0.3-1.2,0.5-2.3,0.7-3.5c0.2-1.3-0.1-2.5-0.4-3.7C55,32,55,31.4,55,30.8
			c0-0.1,0.1-0.3,0.1-0.5C56.3,32.2,56,39.6,54.4,41.6z"/>
		<path class="st0" d="M2.7,27.1c-0.4,3.7-0.9,7.3-0.5,11C1.3,36.5,1.6,29.9,2.7,27.1z"/>
		<path class="st0" d="M26,54c-0.3-0.1-0.7-0.2-1-0.4c-1.1-0.9-2.4-1.4-3.6-2c-0.6-0.3-1.1-0.8-1.3-1.2c0.4,0.2,0.8,0.5,1.2,0.7
			c0.9,0.5,1.8,0.9,2.7,1.5c0.5,0.3,0.9,0.6,1.4,1c0.2,0.1,0.4,0.3,0.6,0.4C26.1,54,26,54,26,54z"/>
		<path class="st0" d="M46.3,52.1c2.1-1.7,4.1-3.4,5.7-5.6C50.6,48.9,48.7,50.7,46.3,52.1z"/>
		<path class="st0" d="M3.4,43.6c0.6,1.7,1.9,3,2.3,4.8C4.4,47,3.8,45.3,3.4,43.6z"/>
		<path class="st0" d="M31.3,2.2c1.5-0.3,3-0.4,4.5-0.3c0,0,0,0.1,0,0.1c-1.5,0.1-3,0.2-4.5,0.4C31.3,2.3,31.3,2.2,31.3,2.2z"/>
		<path class="st0" d="M38.1,2.1c1.4,0.1,2.6,0.6,4,0.9c0,0,0,0.1,0,0.1c-0.2,0-0.5,0-0.7,0c-1.1-0.3-2.2-0.6-3.3-0.8
			C38.1,2.2,38.1,2.2,38.1,2.1z"/>
		<path class="st0" d="M21,4.9c1-0.4,2.1-0.9,3.1-1.3c0,0,0,0.1,0.1,0.1c-1,0.6-2,1.1-3.1,1.3C21,5,21,4.9,21,4.9z"/>
		<path class="st0" d="M52.9,45c0.2-1.1,0.7-1.9,1.2-2.8C54.2,42.7,53.5,44.3,52.9,45z"/>
		<path class="st0" d="M4.3,21.9c-0.3,1-0.5,2-0.8,3C3.2,24.4,3.7,22.5,4.3,21.9z"/>
		<path class="st0" d="M43.5,3.4c1.2,0,2.2,0.5,3.2,1c0,0,0,0.1,0,0.1C45.6,4.2,44.5,3.8,43.5,3.4z"/>
		<path class="st0" d="M55,29.7c-0.3-0.8-0.8-1.4-0.8-2.2C54.6,27.7,55,28.9,55,29.7z"/>
		<path class="st0" d="M53.6,25.4c-0.4-0.5-0.9-1-0.9-1.8c0,0,0.1-0.1,0.1-0.1c0.3,0.6,0.6,1.2,0.9,1.8
			C53.7,25.4,53.7,25.4,53.6,25.4z"/>
		<path class="st0" d="M30,2.3c-0.7,0.2-1.4,0.3-2.1,0.4c0,0,0-0.1,0-0.1c0.7-0.4,1.4-0.4,2.1-0.4C30,2.2,30,2.3,30,2.3z"/>
		<path class="st0" d="M51.5,21.7c0.2,0.3,0.3,0.5,0.5,0.8c0,0-0.1,0.1-0.1,0.1c-0.2-0.2-0.4-0.5-0.6-0.7
			C51.4,21.8,51.5,21.7,51.5,21.7z"/>
		<path class="st0" d="M53.9,26c0.1,0.3,0.2,0.6,0.3,0.9c-0.1,0-0.1,0-0.2,0.1c-0.1-0.3-0.2-0.6-0.3-0.9C53.8,26.1,53.9,26,53.9,26z
			"/>
		<path class="st0" d="M2.3,39.1c0.1,0.3,0.1,0.5,0.2,0.8c-0.1,0-0.1,0-0.2,0c-0.1-0.3-0.2-0.5-0.2-0.8C2.2,39.1,2.3,39.1,2.3,39.1z
			"/>
		<path class="st0" d="M48.4,5.2c0.2,0.1,0.5,0.3,0.7,0.4c0,0-0.1,0.1-0.1,0.1c-0.2-0.1-0.4-0.3-0.7-0.4C48.4,5.3,48.4,5.2,48.4,5.2
			z"/>
		<path class="st0" d="M25.4,3.4c-0.2,0-0.4,0-0.6,0.1c0-0.1,0-0.1,0-0.2c0.2,0,0.4,0,0.6-0.1C25.4,3.3,25.4,3.4,25.4,3.4z"/>
	</g>
</g>
</svg>
