<?xml version="1.0" encoding="utf-8"?>
<!-- Generator: Adobe Illustrator 25.4.1, SVG Export Plug-In . SVG Version: 6.00 Build 0)  -->
<svg version="1.1" id="圖層_1" xmlns="http://www.w3.org/2000/svg" xmlns:xlink="http://www.w3.org/1999/xlink" x="0px" y="0px"
	 viewBox="0 0 164 230" style="enable-background:new 0 0 164 230;" xml:space="preserve">
<style type="text/css">
	.st0{fill:#FFF0F0;}
	.st1{fill:#B3B3B3;}
</style>
<g>
	<rect x="0" y="-0.5" class="st0" width="164" height="230"/>
</g>
<g>
	<path class="st1" d="M29.5,55.5V38H33l7.1,11.6V38h3.3v17.4h-3.5l-7-11.4v11.4H29.5z"/>
	<path class="st1" d="M46.3,49c0-1.1,0.3-2.2,0.8-3.2c0.5-1,1.3-1.8,2.3-2.4s2.1-0.8,3.4-0.8c1.9,0,3.5,0.6,4.7,1.9
		c1.2,1.2,1.8,2.8,1.8,4.7c0,1.9-0.6,3.5-1.8,4.8c-1.2,1.3-2.8,1.9-4.7,1.9c-1.2,0-2.3-0.3-3.3-0.8c-1.1-0.5-1.8-1.3-2.4-2.3
		C46.6,51.7,46.3,50.4,46.3,49z M49.7,49.2c0,1.3,0.3,2.2,0.9,2.9s1.3,1,2.2,1c0.9,0,1.6-0.3,2.2-1c0.6-0.7,0.9-1.6,0.9-2.9
		c0-1.2-0.3-2.2-0.9-2.9c-0.6-0.7-1.3-1-2.2-1c-0.9,0-1.6,0.3-2.2,1S49.7,47.9,49.7,49.2z"/>
	<path class="st1" d="M79.9,49.1l3.4,1.1c-0.5,1.9-1.4,3.3-2.6,4.2c-1.2,0.9-2.8,1.4-4.6,1.4c-2.3,0-4.2-0.8-5.7-2.4
		c-1.5-1.6-2.2-3.7-2.2-6.5c0-2.9,0.8-5.2,2.2-6.8c1.5-1.6,3.5-2.4,5.9-2.4c2.1,0,3.9,0.6,5.2,1.9c0.8,0.7,1.4,1.8,1.8,3.2l-3.5,0.8
		c-0.2-0.9-0.6-1.6-1.3-2.1c-0.7-0.5-1.4-0.8-2.4-0.8c-1.3,0-2.3,0.5-3.1,1.4s-1.2,2.4-1.2,4.5c0,2.2,0.4,3.8,1.2,4.7
		s1.8,1.4,3.1,1.4c0.9,0,1.7-0.3,2.4-0.9S79.6,50.3,79.9,49.1z"/>
	<path class="st1" d="M85.5,49c0-1.1,0.3-2.2,0.8-3.2c0.5-1,1.3-1.8,2.3-2.4s2.1-0.8,3.4-0.8c1.9,0,3.5,0.6,4.7,1.9
		c1.2,1.2,1.8,2.8,1.8,4.7c0,1.9-0.6,3.5-1.8,4.8s-2.8,1.9-4.7,1.9c-1.2,0-2.3-0.3-3.3-0.8c-1.1-0.5-1.8-1.3-2.4-2.3
		S85.5,50.4,85.5,49z M89,49.2c0,1.3,0.3,2.2,0.9,2.9s1.3,1,2.2,1s1.6-0.3,2.2-1s0.9-1.6,0.9-2.9c0-1.2-0.3-2.2-0.9-2.9
		s-1.3-1-2.2-1s-1.6,0.3-2.2,1S89,47.9,89,49.2z"/>
	<path class="st1" d="M104.7,55.5l-5.1-12.6h3.5l2.4,6.4l0.7,2.2c0.2-0.5,0.3-0.9,0.3-1.1c0.1-0.4,0.2-0.7,0.4-1.1l2.4-6.4h3.4
		l-5,12.6H104.7z"/>
	<path class="st1" d="M122,51.5l3.3,0.6c-0.4,1.2-1.1,2.2-2,2.8s-2.1,1-3.5,1c-2.2,0-3.8-0.7-4.9-2.2c-0.8-1.1-1.2-2.6-1.2-4.4
		c0-2.1,0.5-3.7,1.6-4.9c1.1-1.2,2.5-1.8,4.2-1.8c1.9,0,3.4,0.6,4.4,1.9c1.1,1.2,1.6,3.1,1.6,5.7h-8.4c0,1,0.3,1.8,0.8,2.3
		c0.5,0.6,1.2,0.8,1.9,0.8c0.5,0,1-0.1,1.3-0.4C121.6,52.6,121.9,52.1,122,51.5z M122.2,48.1c0-1-0.3-1.7-0.7-2.2
		c-0.5-0.5-1.1-0.8-1.7-0.8c-0.7,0-1.3,0.3-1.8,0.8s-0.7,1.3-0.7,2.2H122.2z"/>
	<path class="st1" d="M131.5,55.5h-3.3V42.8h3.1v1.8c0.5-0.8,1-1.4,1.4-1.7c0.4-0.3,0.9-0.4,1.4-0.4c0.8,0,1.5,0.2,2.2,0.6l-1,2.9
		c-0.6-0.4-1.1-0.5-1.6-0.5c-0.5,0-0.9,0.1-1.2,0.4c-0.3,0.3-0.6,0.7-0.8,1.4c-0.2,0.7-0.3,2.1-0.3,4.2V55.5z"/>
	<path class="st1" d="M45.2,84.7h-3.8l-1.5-4h-7l-1.4,4h-3.7l6.8-17.4h3.7L45.2,84.7z M38.7,77.8l-2.4-6.5L34,77.8H38.7z"/>
	<path class="st1" d="M49.6,84.7l-5.1-12.6h3.5l2.4,6.4l0.7,2.2c0.2-0.5,0.3-0.9,0.3-1.1c0.1-0.4,0.2-0.7,0.4-1.1l2.4-6.4h3.4
		l-5,12.6H49.6z"/>
	<path class="st1" d="M62.2,75.9l-3-0.5c0.3-1.2,0.9-2.1,1.8-2.7c0.8-0.6,2.1-0.9,3.7-0.9c1.5,0,2.6,0.2,3.3,0.5
		c0.7,0.4,1.2,0.8,1.5,1.3s0.4,1.5,0.4,3l0,3.9c0,1.1,0.1,1.9,0.2,2.5c0.1,0.5,0.3,1.1,0.6,1.7h-3.3c-0.1-0.2-0.2-0.6-0.3-1
		c-0.1-0.2-0.1-0.3-0.1-0.4c-0.6,0.6-1.2,1-1.8,1.2C64.5,84.9,63.8,85,63,85c-1.3,0-2.3-0.4-3.1-1.1c-0.7-0.7-1.1-1.6-1.1-2.7
		c0-0.7,0.2-1.3,0.5-1.9c0.3-0.6,0.8-1,1.4-1.3c0.6-0.3,1.5-0.6,2.7-0.8c1.6-0.3,2.6-0.6,3.2-0.8v-0.3c0-0.6-0.2-1.1-0.5-1.4
		s-0.9-0.4-1.8-0.4c-0.6,0-1.1,0.1-1.4,0.4C62.7,74.9,62.4,75.3,62.2,75.9z M66.7,78.6c-0.4,0.1-1.1,0.3-2,0.5
		c-0.9,0.2-1.5,0.4-1.8,0.6c-0.4,0.3-0.7,0.7-0.7,1.2c0,0.5,0.2,0.9,0.5,1.2s0.8,0.5,1.3,0.5c0.6,0,1.2-0.2,1.7-0.6
		c0.4-0.3,0.7-0.7,0.8-1.1c0.1-0.3,0.1-0.8,0.1-1.6V78.6z"/>
	<path class="st1" d="M73.3,70.4v-3.1h3.3v3.1H73.3z M73.3,84.7V72.1h3.3v12.6H73.3z"/>
	<path class="st1" d="M80,84.7V67.3h3.3v17.4H80z"/>
	<path class="st1" d="M89.3,75.9l-3-0.5c0.3-1.2,0.9-2.1,1.8-2.7c0.8-0.6,2.1-0.9,3.7-0.9c1.5,0,2.6,0.2,3.3,0.5
		c0.7,0.4,1.2,0.8,1.5,1.3s0.4,1.5,0.4,3l0,3.9c0,1.1,0.1,1.9,0.2,2.5c0.1,0.5,0.3,1.1,0.6,1.7h-3.3c-0.1-0.2-0.2-0.6-0.3-1
		c-0.1-0.2-0.1-0.3-0.1-0.4c-0.6,0.6-1.2,1-1.8,1.2c-0.7,0.3-1.3,0.4-2.1,0.4c-1.3,0-2.3-0.4-3.1-1.1c-0.7-0.7-1.1-1.6-1.1-2.7
		c0-0.7,0.2-1.3,0.5-1.9c0.3-0.6,0.8-1,1.4-1.3c0.6-0.3,1.5-0.6,2.7-0.8c1.6-0.3,2.6-0.6,3.2-0.8v-0.3c0-0.6-0.2-1.1-0.5-1.4
		s-0.9-0.4-1.8-0.4c-0.6,0-1.1,0.1-1.4,0.4C89.8,74.9,89.5,75.3,89.3,75.9z M93.8,78.6c-0.4,0.1-1.1,0.3-2,0.5
		c-0.9,0.2-1.5,0.4-1.8,0.6c-0.4,0.3-0.7,0.7-0.7,1.2c0,0.5,0.2,0.9,0.5,1.2s0.8,0.5,1.3,0.5c0.6,0,1.2-0.2,1.7-0.6
		c0.4-0.3,0.7-0.7,0.8-1.1c0.1-0.3,0.1-0.8,0.1-1.6V78.6z"/>
	<path class="st1" d="M100.2,84.7V67.3h3.3v6.3c1-1.2,2.3-1.8,3.7-1.8c1.5,0,2.8,0.6,3.8,1.7s1.5,2.7,1.5,4.8c0,2.2-0.5,3.8-1.5,5
		c-1,1.2-2.3,1.7-3.7,1.7c-0.7,0-1.4-0.2-2.1-0.5c-0.7-0.4-1.3-0.9-1.8-1.6v1.9H100.2z M103.5,78.1c0,1.3,0.2,2.3,0.6,2.9
		c0.6,0.9,1.3,1.3,2.3,1.3c0.7,0,1.4-0.3,1.9-0.9c0.5-0.6,0.8-1.6,0.8-3c0-1.4-0.3-2.5-0.8-3.1c-0.5-0.6-1.2-1-2-1
		c-0.8,0-1.5,0.3-2,0.9C103.8,75.9,103.5,76.9,103.5,78.1z"/>
	<path class="st1" d="M115.2,84.7V67.3h3.3v17.4H115.2z"/>
	<path class="st1" d="M129.3,80.7l3.3,0.6c-0.4,1.2-1.1,2.2-2,2.8s-2.1,1-3.5,1c-2.2,0-3.8-0.7-4.9-2.2c-0.8-1.1-1.2-2.6-1.2-4.4
		c0-2.1,0.5-3.7,1.6-4.9c1.1-1.2,2.5-1.8,4.2-1.8c1.9,0,3.4,0.6,4.4,1.9c1.1,1.2,1.6,3.1,1.6,5.7h-8.4c0,1,0.3,1.8,0.8,2.3
		c0.5,0.6,1.2,0.8,1.9,0.8c0.5,0,1-0.1,1.3-0.4C128.8,81.8,129.1,81.3,129.3,80.7z M129.5,77.3c0-1-0.3-1.7-0.7-2.2
		c-0.5-0.5-1.1-0.8-1.7-0.8c-0.7,0-1.3,0.3-1.8,0.8s-0.7,1.3-0.7,2.2H129.5z"/>
</g>
<g>
	<path class="st1" d="M62,131.9h51.7c1,0,1.9-0.8,1.9-1.9c0-1-0.8-1.9-1.9-1.9H62c-5.3,0-9.6-4.3-9.6-9.6c0-5.3,4.3-9.6,9.6-9.6
		h51.7c1,0,1.9-0.8,1.9-1.9c0-1-0.8-1.9-1.9-1.9H62c-7.4,0-13.4,6-13.4,13.4C48.5,125.9,54.6,131.9,62,131.9z"/>
	<path class="st1" d="M110.1,113.1H59.8c-0.5,0-0.9,0.6-0.9,1.4c0,0.8,0.4,1.4,0.9,1.4h50.3c0.5,0,0.9-0.6,0.9-1.4
		C111,113.7,110.6,113.1,110.1,113.1z"/>
	<path class="st1" d="M110.1,121H59.8c-0.5,0-0.9,0.6-0.9,1.4c0,0.8,0.4,1.4,0.9,1.4h50.3c0.5,0,0.9-0.6,0.9-1.4
		C111,121.7,110.6,121,110.1,121z"/>
</g>
<g>
	<path class="st1" d="M119.9,149.7c0-7.4-6-13.4-13.4-13.4H46.1c-1,0-1.9,0.8-1.9,1.9c0,1,0.8,1.9,1.9,1.9h60.3
		c5.3,0,9.6,4.3,9.6,9.6c0,5.3-4.3,9.6-9.6,9.6H46.1c-1,0-1.9,0.8-1.9,1.9c0,1,0.8,1.9,1.9,1.9h60.3
		C113.8,163.1,119.9,157.1,119.9,149.7z"/>
	<path class="st1" d="M50.7,155.1h56.5c0.5,0,0.9-0.6,0.9-1.4c0-0.8-0.4-1.4-0.9-1.4H50.7c-0.5,0-0.9,0.6-0.9,1.4
		C49.8,154.5,50.2,155.1,50.7,155.1z"/>
	<path class="st1" d="M50.7,147.2h56.5c0.5,0,0.9-0.6,0.9-1.4c0-0.8-0.4-1.4-0.9-1.4H50.7c-0.5,0-0.9,0.6-0.9,1.4
		C49.8,146.5,50.2,147.2,50.7,147.2z"/>
</g>
<g>
	<path class="st1" d="M121.1,190.6H54.5c-5.3,0-9.6-4.3-9.6-9.6c0-5.3,4.3-9.6,9.6-9.6h66.6c1,0,1.9-0.8,1.9-1.9
		c0-1-0.8-1.9-1.9-1.9H54.5c-7.4,0-13.4,6-13.4,13.4c0,7.4,6,13.4,13.4,13.4h66.6c1,0,1.9-0.8,1.9-1.9
		C123,191.5,122.1,190.6,121.1,190.6z"/>
	<path class="st1" d="M118.8,175.6H51.9c-0.5,0-0.9,0.6-0.9,1.4c0,0.8,0.4,1.4,0.9,1.4h66.8c0.5,0,0.9-0.6,0.9-1.4
		C119.7,176.2,119.3,175.6,118.8,175.6z"/>
	<path class="st1" d="M118.8,183.5H51.9c-0.5,0-0.9,0.6-0.9,1.4c0,0.8,0.4,1.4,0.9,1.4h66.8c0.5,0,0.9-0.6,0.9-1.4
		C119.7,184.2,119.3,183.5,118.8,183.5z"/>
</g>
</svg>
