<?xml version="1.0" encoding="utf-8"?>
<!-- Generator: Adobe Illustrator 25.4.1, SVG Export Plug-In . SVG Version: 6.00 Build 0)  -->
<svg version="1.1" id="圖層_1" xmlns="http://www.w3.org/2000/svg" xmlns:xlink="http://www.w3.org/1999/xlink" x="0px" y="0px"
	 viewBox="0 0 218.2 76.3" style="enable-background:new 0 0 218.2 76.3;" xml:space="preserve">
<style type="text/css">
	.st0{fill:#EEEEEE;}
	.st1{fill:#8CB3D5;}
	.st2{fill:none;stroke:#EEB884;stroke-linecap:round;stroke-linejoin:round;stroke-miterlimit:10;}
</style>
<path class="st0" d="M213.2,76.3H5c-2.8,0-5-2.2-5-5V5c0-2.8,2.2-5,5-5h208.2c2.8,0,5,2.2,5,5v66.3
	C218.2,74.1,215.9,76.3,213.2,76.3z"/>
<rect x="6" y="67.7" class="st1" width="11.4" height="3.6"/>
<rect x="21" y="55.3" class="st1" width="11.4" height="16"/>
<rect x="35.8" y="52.6" class="st1" width="11.4" height="18.7"/>
<rect x="50.8" y="52.6" class="st1" width="11.4" height="18.7"/>
<rect x="65.7" y="46.7" class="st1" width="11.4" height="24.6"/>
<rect x="80.6" y="16.7" class="st1" width="11.4" height="54.6"/>
<rect x="95.5" y="38.1" class="st1" width="11.4" height="33.2"/>
<rect x="110.4" y="66.4" class="st1" width="11.4" height="4.9"/>
<rect x="125.3" y="14.8" class="st1" width="11.4" height="56.6"/>
<rect x="140.3" y="34.2" class="st1" width="11.4" height="37.2"/>
<rect x="155.1" y="43.8" class="st1" width="11.4" height="27.5"/>
<rect x="170.1" y="28.3" class="st1" width="11.4" height="43"/>
<rect x="184.9" y="40.7" class="st1" width="11.4" height="30.6"/>
<rect x="199.9" y="52.6" class="st1" width="11.4" height="18.7"/>
<polyline class="st2" points="11.7,69.5 26.7,59 42.8,56.1 56.5,56.1 71.4,49.9 86.3,21.7 101.2,42.2 116.1,68.9 131,18.8 
	144.8,38.1 160.8,48.2 175.8,32.2 190.7,45.1 205.6,57.6 "/>
</svg>
