<?xml version="1.0" encoding="utf-8"?>
<!-- Generator: Adobe Illustrator 25.4.1, SVG Export Plug-In . SVG Version: 6.00 Build 0)  -->
<svg version="1.1" id="圖層_1" xmlns="http://www.w3.org/2000/svg" xmlns:xlink="http://www.w3.org/1999/xlink" x="0px" y="0px"
	 viewBox="0 0 140.7 127" style="enable-background:new 0 0 140.7 127;" xml:space="preserve">
<style type="text/css">
	.st0{fill:#EEEEEE;}
	.st1{fill:#9BAAA9;}
	.st2{fill:#AD7971;}
	.st3{fill:#7AADD3;}
	.st4{fill:#93AD4D;}
	.st5{fill:#D6A256;}
	.st6{fill:#FFFFFF;}
</style>
<path class="st0" d="M135.7,127H5c-2.8,0-5-2.2-5-5V5c0-2.8,2.2-5,5-5h130.7c2.8,0,5,2.2,5,5v117C140.7,124.8,138.4,127,135.7,127z"
	/>
<g>
	<path class="st1" d="M55.5,90.3C48,86.1,42.9,79.2,40.8,71.5l-19.2,5.2c3.5,12.7,11.8,24.1,24.3,31c12,6.6,25.5,7.9,37.7,4.5
		L78.4,93C70.9,95.1,62.7,94.3,55.5,90.3z"/>
	<path class="st2" d="M43.5,48.6c5.3-9.6,15.1-15.3,25.4-15.8l-1-19.9C51,13.7,34.8,23,26.1,38.9c-6.6,12-7.9,25.5-4.5,37.7
		l19.2-5.2C38.7,64.1,39.5,55.9,43.5,48.6z"/>
	<path class="st3" d="M114.6,88L114.6,88l-17.4-9.6l0,0C93,85.9,86.1,91,78.4,93.1l5.2,19.2C96.3,108.8,107.7,100.4,114.6,88z"/>
	<path class="st4" d="M85.2,36.6c14.8,8.2,20.2,26.9,12,41.7l17.4,9.6c13.5-24.4,4.7-55.3-19.8-68.8c-0.7-0.4-1.4-0.8-2.1-1.1
		l-8.8,17.9C84.3,36.2,84.7,36.4,85.2,36.6z"/>
	<path class="st5" d="M83.9,36l8.8-17.9c-7.9-3.9-16.4-5.5-24.8-5.1l1,19.9C73.9,32.6,79.1,33.6,83.9,36z"/>
	<g>
		<path class="st6" d="M35.4,41.8h-3.8c0-0.3,0.1-0.7,0.3-1c0.1-0.2,0.3-0.3,0.4-0.5c0.2-0.2,0.4-0.4,0.7-0.6
			c0.3-0.2,0.5-0.4,0.7-0.6c0.2-0.2,0.3-0.3,0.5-0.5c0.2-0.3,0.3-0.6,0.3-0.9c0-0.3-0.1-0.6-0.3-0.7c-0.2-0.2-0.4-0.3-0.8-0.3
			c-0.3,0-0.5,0.1-0.7,0.3s-0.3,0.4-0.3,0.8h-0.8c0-0.3,0.1-0.5,0.2-0.7s0.2-0.4,0.4-0.5s0.3-0.3,0.6-0.3c0.2-0.1,0.5-0.1,0.7-0.1
			c0.3,0,0.5,0,0.8,0.1c0.2,0.1,0.4,0.2,0.6,0.3c0.1,0.1,0.3,0.3,0.3,0.5c0.1,0.2,0.1,0.4,0.1,0.6c0,0.2,0,0.4-0.1,0.6
			c-0.1,0.2-0.1,0.3-0.3,0.5c-0.1,0.2-0.3,0.4-0.5,0.6c-0.2,0.2-0.5,0.5-0.8,0.8c-0.7,0.6-1,0.9-1,1.1h2.8L35.4,41.8L35.4,41.8z"/>
		<path class="st6" d="M39.9,38.7c0,2.1-0.7,3.1-2,3.1c-0.2,0-0.4,0-0.6-0.1s-0.3-0.1-0.5-0.3c-0.1-0.1-0.3-0.3-0.4-0.4
			c-0.1-0.2-0.2-0.4-0.2-0.6h0.7c0.1,0.6,0.4,0.8,0.9,0.8c0.4,0,0.6-0.2,0.9-0.5c0.2-0.4,0.3-0.9,0.4-1.6c-0.4,0.4-0.8,0.6-1.3,0.6
			c-0.2,0-0.5,0-0.7-0.1s-0.4-0.2-0.5-0.4c-0.2-0.2-0.3-0.4-0.4-0.6c-0.1-0.2-0.1-0.5-0.1-0.7c0-0.3,0-0.5,0.1-0.7s0.2-0.4,0.4-0.6
			c0.2-0.2,0.3-0.3,0.6-0.4c0.2-0.1,0.5-0.2,0.7-0.2c0.6,0,1.1,0.2,1.4,0.7C39.7,37.1,39.9,37.8,39.9,38.7z M39.2,38.6
			c0-0.7-0.1-1.2-0.3-1.5c-0.2-0.3-0.5-0.5-0.9-0.5c-0.2,0-0.3,0-0.4,0.1s-0.2,0.2-0.3,0.3c-0.1,0.1-0.2,0.3-0.2,0.4
			c0,0.2-0.1,0.3-0.1,0.5s0,0.4,0.1,0.5c0,0.2,0.1,0.3,0.2,0.4c0.1,0.1,0.2,0.2,0.3,0.3c0.1,0.1,0.3,0.1,0.4,0.1
			C38.4,39.2,38.8,39,39.2,38.6z"/>
		<path class="st6" d="M43.3,37.5c0,0.2,0,0.5-0.1,0.6c-0.1,0.2-0.2,0.3-0.3,0.5c-0.1,0.1-0.3,0.2-0.4,0.3C42.3,39,42.2,39,42,39
			s-0.4,0-0.5-0.1c-0.2-0.1-0.3-0.2-0.4-0.3s-0.2-0.3-0.3-0.5c-0.1-0.2-0.1-0.4-0.1-0.6c0-0.2,0-0.4,0.1-0.6
			c0.1-0.2,0.2-0.3,0.3-0.5c0.1-0.1,0.2-0.2,0.4-0.3C41.7,36,41.8,36,42,36s0.4,0,0.5,0.1c0.2,0.1,0.3,0.2,0.4,0.3s0.2,0.3,0.3,0.5
			C43.3,37,43.3,37.2,43.3,37.5z M42.7,37.5c0-0.7-0.2-1-0.7-1c-0.4,0-0.7,0.3-0.7,1s0.2,1,0.7,1S42.7,38.2,42.7,37.5z M45.6,36.1
			l-3.1,5.7h-0.6l3.1-5.7C45,36.1,45.6,36.1,45.6,36.1z M46.8,40.3c0,0.2,0,0.4-0.1,0.6s-0.2,0.3-0.3,0.5c-0.1,0.1-0.3,0.2-0.4,0.3
			c-0.2,0.1-0.3,0.1-0.5,0.1s-0.4,0-0.5-0.1c-0.2-0.1-0.3-0.2-0.4-0.3c-0.1-0.1-0.2-0.3-0.3-0.5c-0.1-0.2-0.1-0.4-0.1-0.6
			s0-0.4,0.1-0.6s0.2-0.3,0.3-0.5c0.1-0.1,0.2-0.2,0.4-0.3c0.2-0.1,0.3-0.1,0.5-0.1s0.4,0,0.5,0.1c0.2,0.1,0.3,0.2,0.4,0.3
			s0.2,0.3,0.3,0.5C46.8,39.9,46.8,40.1,46.8,40.3z M46.2,40.3c0-0.7-0.2-1-0.7-1c-0.4,0-0.7,0.3-0.7,1s0.2,1,0.7,1
			C46,41.4,46.2,41,46.2,40.3z"/>
	</g>
	<g>
		<path class="st6" d="M48.7,101.1h-3.8c0-0.3,0.1-0.7,0.3-1c0.1-0.2,0.3-0.3,0.5-0.5s0.4-0.4,0.7-0.6c0.3-0.2,0.5-0.4,0.7-0.6
			s0.3-0.3,0.5-0.5c0.2-0.3,0.3-0.6,0.3-0.9s-0.1-0.6-0.3-0.7c-0.2-0.2-0.4-0.3-0.8-0.3c-0.3,0-0.5,0.1-0.7,0.3
			c-0.2,0.2-0.3,0.4-0.3,0.8H45c0-0.3,0.1-0.5,0.2-0.7s0.2-0.4,0.4-0.5c0.2-0.1,0.3-0.2,0.6-0.3c0.2-0.1,0.5-0.1,0.7-0.1
			c0.3,0,0.5,0,0.8,0.1c0.2,0.1,0.4,0.2,0.6,0.3c0.1,0.1,0.3,0.3,0.3,0.5c0.1,0.2,0.1,0.4,0.1,0.6s0,0.4-0.1,0.6s-0.1,0.3-0.3,0.5
			c-0.1,0.2-0.3,0.3-0.5,0.6c-0.2,0.2-0.5,0.5-0.8,0.8c-0.7,0.6-1,0.9-1,1.1h2.8v0.5H48.7z"/>
		<path class="st6" d="M53.2,99.2c0,0.3,0,0.6-0.1,0.8c-0.1,0.2-0.2,0.5-0.4,0.6c-0.2,0.2-0.4,0.3-0.6,0.4s-0.5,0.2-0.8,0.2
			c-0.2,0-0.5,0-0.7-0.1s-0.4-0.2-0.6-0.3c-0.2-0.1-0.3-0.3-0.4-0.5s-0.2-0.4-0.2-0.7h0.8c0,0.3,0.2,0.6,0.4,0.8
			c0.2,0.2,0.4,0.2,0.7,0.2c0.2,0,0.3,0,0.5-0.1c0.1-0.1,0.3-0.2,0.4-0.3c0.1-0.1,0.2-0.3,0.2-0.4c0.1-0.2,0.1-0.3,0.1-0.5
			s0-0.4-0.1-0.5c-0.1-0.2-0.1-0.3-0.2-0.4s-0.2-0.2-0.4-0.3C51.7,98,51.5,98,51.3,98c-0.4,0-0.8,0.2-1,0.5h-0.6l0.2-3h3v0.7h-2.4
			l-0.1,1.6c0.3-0.2,0.6-0.3,1.1-0.3c0.2,0,0.4,0,0.7,0.1c0.2,0.1,0.4,0.2,0.6,0.4c0.2,0.2,0.3,0.4,0.4,0.6
			C53.2,98.6,53.2,98.9,53.2,99.2z"/>
		<path class="st6" d="M56.6,96.8c0,0.2,0,0.5-0.1,0.6c-0.1,0.2-0.2,0.3-0.3,0.5c-0.1,0.1-0.2,0.2-0.4,0.3c-0.2,0.1-0.3,0.1-0.5,0.1
			s-0.4,0-0.5-0.1c-0.2-0.1-0.3-0.2-0.4-0.3c-0.1-0.1-0.2-0.3-0.3-0.5C54,97.2,54,97,54,96.8s0-0.4,0.1-0.6s0.2-0.3,0.3-0.5
			c0.1-0.1,0.3-0.2,0.4-0.3c0.2-0.1,0.3-0.1,0.5-0.1s0.4,0,0.5,0.1c0.2,0.1,0.3,0.2,0.4,0.3c0.1,0.1,0.2,0.3,0.3,0.5
			C56.6,96.4,56.6,96.6,56.6,96.8z M56,96.8c0-0.7-0.2-1-0.7-1c-0.4,0-0.7,0.3-0.7,1s0.2,1,0.7,1S56,97.5,56,96.8z M58.9,95.4
			l-3.1,5.7h-0.6l3.1-5.7H58.9z M60.1,99.7c0,0.2,0,0.4-0.1,0.6s-0.2,0.3-0.3,0.5c-0.1,0.1-0.3,0.2-0.4,0.3
			c-0.2,0.1-0.3,0.1-0.5,0.1s-0.4,0-0.5-0.1c-0.2-0.1-0.3-0.2-0.4-0.3c-0.1-0.1-0.2-0.3-0.3-0.5c-0.1-0.2-0.1-0.4-0.1-0.6
			s0-0.4,0.1-0.6s0.2-0.3,0.3-0.5c0.1-0.1,0.2-0.2,0.4-0.3c0.2-0.1,0.3-0.1,0.5-0.1s0.4,0,0.5,0.1c0.2,0.1,0.3,0.2,0.4,0.3
			c0.1,0.1,0.2,0.3,0.3,0.5C60.1,99.2,60.1,99.4,60.1,99.7z M59.5,99.7c0-0.7-0.2-1-0.7-1c-0.4,0-0.7,0.3-0.7,1s0.2,1,0.7,1
			S59.5,100.4,59.5,99.7z"/>
	</g>
	<g>
		<path class="st6" d="M90.8,98.5H90v-4.9c-0.3,0.2-0.8,0.3-1.5,0.3v-0.6c1,0,1.5-0.4,1.7-1.1h0.6L90.8,98.5L90.8,98.5z"/>
		<path class="st6" d="M96.9,96.9c0,0.3,0,0.5-0.1,0.7s-0.2,0.4-0.4,0.6c-0.2,0.2-0.4,0.3-0.7,0.4c-0.2,0.1-0.5,0.1-0.8,0.1
			s-0.6,0-0.8-0.1c-0.3-0.1-0.5-0.2-0.6-0.4c-0.2-0.2-0.3-0.3-0.4-0.6C93,97.4,93,97.1,93,96.9c0-0.7,0.4-1.2,1.3-1.6
			c-0.7-0.4-1-0.9-1-1.5c0-0.2,0-0.4,0.1-0.6s0.2-0.4,0.4-0.5c0.2-0.1,0.3-0.2,0.6-0.3c0.2-0.1,0.5-0.1,0.7-0.1c0.3,0,0.5,0,0.7,0.1
			s0.4,0.2,0.6,0.3c0.2,0.1,0.3,0.3,0.4,0.5s0.1,0.4,0.1,0.6c0,0.6-0.3,1.1-1,1.5C96.4,95.6,96.9,96.2,96.9,96.9z M96,96.9
			c0-0.3-0.1-0.5-0.3-0.7c-0.2-0.2-0.5-0.4-0.9-0.6c-0.2,0.1-0.4,0.2-0.6,0.3c-0.2,0.1-0.3,0.2-0.4,0.3c-0.1,0.1-0.2,0.2-0.2,0.3
			c0,0.1-0.1,0.2-0.1,0.4c0,0.2,0,0.3,0.1,0.5c0.1,0.1,0.1,0.3,0.2,0.4S94,98,94.2,98c0.1,0.1,0.3,0.1,0.5,0.1s0.3,0,0.5-0.1
			c0.1,0,0.3-0.1,0.4-0.2s0.2-0.2,0.3-0.4C96,97.2,96,97,96,96.9z M94.8,94.9c0.7-0.3,1-0.7,1-1.2c0-0.3-0.1-0.5-0.3-0.7
			c-0.2-0.2-0.4-0.2-0.7-0.2c-0.3,0-0.6,0.1-0.7,0.2c-0.2,0.2-0.3,0.4-0.3,0.7C93.8,94.2,94.2,94.6,94.8,94.9z"/>
		<path class="st6" d="M100.6,93.8c0,0.3,0,0.5-0.1,0.7s-0.2,0.4-0.3,0.5c-0.1,0.1-0.3,0.2-0.4,0.3c-0.2,0.1-0.4,0.1-0.6,0.1
			s-0.4,0-0.6-0.1s-0.3-0.2-0.4-0.3c-0.1-0.1-0.2-0.3-0.3-0.5c-0.1-0.2-0.1-0.4-0.1-0.7c0-0.3,0-0.5,0.1-0.7s0.2-0.4,0.3-0.5
			c0.1-0.1,0.3-0.3,0.4-0.3c0.2-0.1,0.4-0.1,0.6-0.1s0.4,0,0.6,0.1s0.3,0.2,0.4,0.3c0.1,0.1,0.2,0.3,0.3,0.5
			C100.6,93.4,100.6,93.6,100.6,93.8z M99.9,93.8c0-0.8-0.2-1.1-0.7-1.1s-0.7,0.4-0.7,1.1c0,0.8,0.2,1.1,0.7,1.1
			C99.7,95,99.9,94.6,99.9,93.8z M103.1,92.3l-3.4,6.2h-0.6l3.4-6.2H103.1z M104.4,97c0,0.3,0,0.5-0.1,0.7s-0.2,0.4-0.3,0.5
			c-0.1,0.1-0.3,0.3-0.4,0.3c-0.2,0.1-0.4,0.1-0.6,0.1s-0.4,0-0.6-0.1s-0.3-0.2-0.4-0.3c-0.1-0.1-0.2-0.3-0.3-0.5
			c-0.1-0.2-0.1-0.4-0.1-0.7c0-0.2,0-0.5,0.1-0.7s0.2-0.4,0.3-0.5c0.1-0.1,0.3-0.3,0.4-0.3c0.2-0.1,0.4-0.1,0.6-0.1s0.4,0,0.6,0.1
			s0.3,0.2,0.4,0.3c0.1,0.1,0.2,0.3,0.3,0.5C104.4,96.5,104.4,96.7,104.4,97z M103.7,97c0-0.8-0.2-1.1-0.7-1.1s-0.7,0.4-0.7,1.1
			c0,0.8,0.2,1.1,0.7,1.1S103.7,97.7,103.7,97z"/>
	</g>
	<g>
		<path class="st6" d="M106.9,58.8h-3.8c0-0.3,0.1-0.7,0.3-1c0.1-0.2,0.3-0.3,0.5-0.5s0.4-0.4,0.7-0.6c0.3-0.2,0.5-0.4,0.7-0.6
			s0.3-0.3,0.5-0.5c0.2-0.3,0.3-0.6,0.3-0.9s-0.1-0.6-0.3-0.7c-0.2-0.2-0.4-0.3-0.8-0.3c-0.3,0-0.5,0.1-0.7,0.3
			c-0.2,0.2-0.3,0.4-0.3,0.8h-0.8c0-0.3,0.1-0.5,0.2-0.7s0.2-0.4,0.4-0.5c0.2-0.1,0.3-0.2,0.6-0.3c0.2-0.1,0.5-0.1,0.7-0.1
			c0.3,0,0.5,0,0.8,0.1c0.2,0.1,0.4,0.2,0.6,0.3c0.1,0.1,0.3,0.3,0.3,0.5c0.1,0.2,0.1,0.4,0.1,0.6s0,0.4-0.1,0.6s-0.1,0.3-0.3,0.5
			c-0.1,0.2-0.3,0.4-0.5,0.6s-0.5,0.5-0.8,0.8c-0.7,0.6-1,0.9-1,1.1h2.8v0.5H106.9z"/>
		<path class="st6" d="M111.4,55.8c0,2.1-0.7,3.1-2,3.1c-0.2,0-0.4,0-0.6-0.1s-0.3-0.1-0.5-0.3c-0.1-0.1-0.3-0.3-0.4-0.4
			c-0.1-0.2-0.2-0.4-0.2-0.6h0.7c0.1,0.6,0.4,0.8,0.9,0.8c0.4,0,0.6-0.2,0.9-0.5c0.2-0.4,0.3-0.9,0.4-1.6c-0.4,0.4-0.8,0.6-1.3,0.6
			c-0.2,0-0.5,0-0.7-0.1s-0.4-0.2-0.5-0.4c-0.2-0.2-0.3-0.4-0.4-0.6s-0.1-0.5-0.1-0.7c0-0.3,0-0.5,0.1-0.7s0.2-0.4,0.4-0.6
			c0.2-0.2,0.3-0.3,0.6-0.4c0.2-0.1,0.5-0.2,0.7-0.2c0.6,0,1.1,0.2,1.4,0.7C111.2,54.2,111.4,54.9,111.4,55.8z M110.6,55.6
			c0-0.7-0.1-1.2-0.3-1.5c-0.2-0.3-0.5-0.5-0.9-0.5c-0.2,0-0.3,0-0.4,0.1s-0.2,0.2-0.3,0.3c-0.1,0.1-0.2,0.3-0.2,0.4
			c0,0.2-0.1,0.3-0.1,0.5s0,0.4,0.1,0.5c0,0.2,0.1,0.3,0.2,0.4s0.2,0.2,0.3,0.3c0.1,0.1,0.3,0.1,0.4,0.1
			C109.9,56.2,110.3,56,110.6,55.6z"/>
		<path class="st6" d="M114.8,54.6c0,0.2,0,0.5-0.1,0.6c-0.1,0.2-0.2,0.3-0.3,0.5c-0.1,0.1-0.2,0.2-0.4,0.3
			c-0.2,0.1-0.3,0.1-0.5,0.1s-0.4,0-0.5-0.1c-0.2-0.1-0.3-0.2-0.4-0.3c-0.1-0.1-0.2-0.3-0.3-0.5c-0.1-0.2-0.1-0.4-0.1-0.6
			s0-0.4,0.1-0.6s0.2-0.3,0.3-0.5c0.1-0.1,0.3-0.2,0.4-0.3c0.2-0.1,0.3-0.1,0.5-0.1s0.4,0,0.5,0.1c0.2,0.1,0.3,0.2,0.4,0.3
			c0.1,0.1,0.2,0.3,0.3,0.5C114.8,54.1,114.8,54.3,114.8,54.6z M114.2,54.6c0-0.7-0.2-1-0.7-1c-0.4,0-0.7,0.3-0.7,1s0.2,1,0.7,1
			S114.2,55.2,114.2,54.6z M117.1,53.1l-3.1,5.7h-0.6l3.1-5.7H117.1z M118.3,57.4c0,0.2,0,0.4-0.1,0.6s-0.2,0.3-0.3,0.5
			c-0.1,0.1-0.3,0.2-0.4,0.3c-0.2,0.1-0.3,0.1-0.5,0.1s-0.4,0-0.5-0.1c-0.2-0.1-0.3-0.2-0.4-0.3c-0.1-0.1-0.2-0.3-0.3-0.5
			c-0.1-0.2-0.1-0.4-0.1-0.6s0-0.4,0.1-0.6s0.2-0.3,0.3-0.5c0.1-0.1,0.2-0.2,0.4-0.3c0.2-0.1,0.3-0.1,0.5-0.1s0.4,0,0.5,0.1
			c0.2,0.1,0.3,0.2,0.4,0.3c0.1,0.1,0.2,0.3,0.3,0.5C118.3,57,118.3,57.2,118.3,57.4z M117.7,57.4c0-0.7-0.2-1-0.7-1
			c-0.4,0-0.7,0.3-0.7,1s0.2,1,0.7,1S117.7,58.1,117.7,57.4z"/>
	</g>
	<g>
		<path class="st6" d="M75.7,26.8h-0.6V23c-0.2,0.2-0.6,0.3-1.2,0.3v-0.5c0.8,0,1.2-0.3,1.3-0.9h0.5L75.7,26.8L75.7,26.8z"/>
		<path class="st6" d="M80.3,24.4c0,1.7-0.5,2.5-1.6,2.5c-1,0-1.6-0.8-1.6-2.5s0.5-2.5,1.6-2.5S80.3,22.8,80.3,24.4z M79.7,24.4
			c0-0.4,0-0.7-0.1-0.9c0-0.3-0.1-0.5-0.2-0.6c-0.1-0.2-0.2-0.3-0.3-0.3c-0.1-0.1-0.3-0.1-0.4-0.1c-0.2,0-0.3,0-0.4,0.1
			s-0.2,0.2-0.3,0.3c-0.1,0.2-0.1,0.4-0.2,0.6c0,0.3-0.1,0.6-0.1,1s0,0.7,0.1,1c0,0.3,0.1,0.5,0.2,0.6c0.1,0.2,0.2,0.3,0.3,0.3
			c0.1,0.1,0.2,0.1,0.4,0.1c0.2,0,0.3,0,0.4-0.1s0.2-0.2,0.3-0.3c0.1-0.2,0.1-0.4,0.2-0.6C79.7,25.1,79.7,24.8,79.7,24.4z"/>
		<path class="st6" d="M83.3,23.2c0,0.2,0,0.4-0.1,0.5c-0.1,0.2-0.1,0.3-0.2,0.4c-0.1,0.1-0.2,0.2-0.3,0.2c-0.1,0.1-0.3,0.1-0.4,0.1
			c-0.2,0-0.3,0-0.4-0.1s-0.2-0.1-0.3-0.3c-0.1-0.1-0.2-0.2-0.2-0.4c-0.1-0.2-0.1-0.3-0.1-0.5s0-0.4,0.1-0.5
			c0.1-0.2,0.1-0.3,0.2-0.4c0.1-0.1,0.2-0.2,0.3-0.3c0.1-0.1,0.3-0.1,0.4-0.1c0.2,0,0.3,0,0.4,0.1S83,22,83,22.2
			c0.1,0.1,0.2,0.2,0.2,0.4C83.2,22.8,83.3,23,83.3,23.2z M82.7,23.2c0-0.6-0.2-0.9-0.6-0.9s-0.6,0.3-0.6,0.9c0,0.6,0.2,0.9,0.6,0.9
			C82.6,24.1,82.7,23.8,82.7,23.2z M85.2,22l-2.6,4.8h-0.5l2.6-4.8H85.2z M86.2,25.6c0,0.2,0,0.4-0.1,0.5c-0.1,0.2-0.1,0.3-0.2,0.4
			c-0.1,0.1-0.2,0.2-0.3,0.3c-0.1,0.1-0.3,0.1-0.4,0.1c-0.2,0-0.3,0-0.4-0.1s-0.2-0.1-0.3-0.3c-0.1-0.1-0.2-0.2-0.2-0.4
			c-0.1-0.2-0.1-0.3-0.1-0.5s0-0.4,0.1-0.5c0.1-0.2,0.1-0.3,0.2-0.4c0.1-0.1,0.2-0.2,0.3-0.3c0.1-0.1,0.3-0.1,0.4-0.1
			c0.2,0,0.3,0,0.4,0.1s0.2,0.1,0.3,0.3c0.1,0.1,0.2,0.2,0.2,0.4C86.2,25.3,86.2,25.4,86.2,25.6z M85.7,25.6c0-0.6-0.2-0.9-0.6-0.9
			s-0.6,0.3-0.6,0.9c0,0.6,0.2,0.9,0.6,0.9S85.7,26.2,85.7,25.6z"/>
	</g>
</g>
</svg>
