<?xml version="1.0" encoding="utf-8"?>
<!-- Generator: Adobe Illustrator 27.4.0, SVG Export Plug-In . SVG Version: 6.00 Build 0)  -->
<svg version="1.1" id="圖層_1" xmlns="http://www.w3.org/2000/svg" xmlns:xlink="http://www.w3.org/1999/xlink" x="0px" y="0px"
	 viewBox="0 0 50 50" style="enable-background:new 0 0 50 50;" xml:space="preserve">
<style type="text/css">
	.st0{fill:#666666;}
</style>
<g>
	<path class="st0" d="M36.4,21.9H15.1c-1.6,0-2.9,1.3-2.9,2.9v21.4c0,1.6,1.3,2.9,2.9,2.9h21.4c1.6,0,2.9-1.3,2.9-2.9V24.9
		C39.4,23.2,38,21.9,36.4,21.9z M16.7,32.6v-2.5c0-0.7,0.6-1.3,1.3-1.3h2.5c0.7,0,1.3,0.6,1.3,1.3v2.5c0,0.7-0.6,1.3-1.3,1.3h-2.5
		C17.2,33.9,16.7,33.3,16.7,32.6z M31.4,42.6H20.1c-0.5,0-0.8-0.4-0.8-0.8c0-0.5,0.4-0.8,0.8-0.8h11.4c0.5,0,0.8,0.4,0.8,0.8
		C32.3,42.2,31.9,42.6,31.4,42.6z M34.8,32.6c0,0.7-0.6,1.3-1.3,1.3H31c-0.7,0-1.3-0.6-1.3-1.3v-2.5c0-0.7,0.6-1.3,1.3-1.3h2.5
		c0.7,0,1.3,0.6,1.3,1.3V32.6z"/>
	<path class="st0" d="M41.1,28.9v14c3.9,0,7-3.1,7-7S45,28.9,41.1,28.9z"/>
	<g>
		<path class="st0" d="M40.2,13.2c0-2.1-1.5-3.9-3.8-5c0.2,0.6,0.3,1.2,0.3,1.9c0,3.9-3.8,7.2-8.8,8.1c1.2,0.5,2.7,0.8,4.2,0.8
			c1.2,0,2.3-0.2,3.3-0.5l4.2,1.9L38,17.2C39.3,16.1,40.2,14.7,40.2,13.2z"/>
		<path class="st0" d="M23.7,0.8C17.2,0.8,12,4.6,12,9.2c0,2.2,1.2,4.2,3.1,5.7L13,19.5l5.9-2.7c1.5,0.5,3.1,0.7,4.8,0.7
			c6.4,0,11.7-3.7,11.7-8.4C35.3,4.6,30.1,0.8,23.7,0.8z M19,10.2c-0.6,0-1.1-0.5-1.1-1.1C17.9,8.5,18.4,8,19,8
			c0.6,0,1.1,0.5,1.1,1.1C20.1,9.7,19.6,10.2,19,10.2z M23.7,10.2c-0.6,0-1.1-0.5-1.1-1.1c0-0.6,0.5-1.1,1.1-1.1
			c0.6,0,1.1,0.5,1.1,1.1C24.8,9.7,24.3,10.2,23.7,10.2z M28.4,10.2c-0.6,0-1.1-0.5-1.1-1.1c0-0.6,0.5-1.1,1.1-1.1
			c0.6,0,1.1,0.5,1.1,1.1C29.5,9.7,29,10.2,28.4,10.2z"/>
	</g>
	<rect x="43.8" y="17.1" class="st0" width="1.7" height="18.2"/>
	<path class="st0" d="M46.3,16.1c0,0.9-0.8,1.7-1.7,1.7s-1.7-0.8-1.7-1.7c0-0.9,0.8-1.7,1.7-1.7S46.3,15.1,46.3,16.1z"/>
	<path class="st0" d="M10.4,28.9v14c-3.9,0-7-3.1-7-7S6.5,28.9,10.4,28.9z"/>
	
		<rect x="6" y="17.1" transform="matrix(-1 -1.224647e-16 1.224647e-16 -1 13.7205 52.505)" class="st0" width="1.7" height="18.2"/>
	<path class="st0" d="M5.2,16.1c0,0.9,0.8,1.7,1.7,1.7c0.9,0,1.7-0.8,1.7-1.7c0-0.9-0.8-1.7-1.7-1.7C5.9,14.4,5.2,15.1,5.2,16.1z"/>
</g>
</svg>
